<svg xmlns="http://www.w3.org/2000/svg" xmlns:xlink="http://www.w3.org/1999/xlink" width="1024" zoomAndPan="magnify" viewBox="0 0 768 767.999994" height="1024" preserveAspectRatio="xMidYMid meet" version="1.0"><path fill="#ffffff" d="M 5.523438 260.300781 L 175.613281 358.503906 C 181.164062 361.707031 188.097656 357.703125 188.097656 351.296875 L 188.097656 289.640625 L 730.011719 289.640625 C 750.195312 289.640625 766.558594 273.277344 766.558594 253.09375 C 766.558594 232.910156 750.195312 216.546875 730.011719 216.546875 L 188.097656 216.546875 L 188.097656 154.890625 C 188.097656 148.480469 181.164062 144.480469 175.613281 147.679688 L 5.523438 245.882812 C -0.0273438 249.089844 -0.0273438 257.097656 5.523438 260.300781 Z M 762.394531 522.117188 L 592.304688 620.316406 C 586.753906 623.519531 579.820312 619.515625 579.820312 613.109375 L 579.820312 551.449219 L 37.90625 551.449219 C 17.722656 551.449219 1.359375 535.089844 1.359375 514.910156 C 1.359375 494.722656 17.722656 478.359375 37.90625 478.359375 L 579.820312 478.359375 L 579.820312 416.703125 C 579.820312 410.296875 586.753906 406.292969 592.304688 409.496094 L 762.394531 507.695312 C 767.945312 510.902344 767.945312 518.910156 762.394531 522.117188 " fill-opacity="1" fill-rule="nonzero"/></svg>