<svg xmlns="http://www.w3.org/2000/svg" xmlns:xlink="http://www.w3.org/1999/xlink" width="1024" zoomAndPan="magnify" viewBox="0 0 768 767.999994" height="1024" preserveAspectRatio="xMidYMid meet" version="1.0"><defs><clipPath id="410589b0bc"><path d="M 10.007812 10.007812 L 757.757812 10.007812 L 757.757812 757.757812 L 10.007812 757.757812 Z M 10.007812 10.007812 " clip-rule="nonzero"/></clipPath></defs><g clip-path="url(#410589b0bc)"><path fill="#0a3871" d="M 731.269531 704.554688 L 704.554688 704.554688 L 704.554688 277.140625 C 704.554688 276.269531 704.511719 275.394531 704.425781 274.523438 C 704.339844 273.652344 704.210938 272.789062 704.042969 271.929688 C 703.871094 271.074219 703.660156 270.226562 703.40625 269.386719 C 703.152344 268.550781 702.855469 267.726562 702.523438 266.917969 C 702.1875 266.113281 701.8125 265.320312 701.402344 264.550781 C 700.988281 263.777344 700.539062 263.027344 700.054688 262.300781 C 699.566406 261.574219 699.046875 260.871094 698.492188 260.195312 C 697.9375 259.519531 697.351562 258.871094 696.730469 258.253906 C 696.113281 257.636719 695.464844 257.046875 694.789062 256.492188 C 694.113281 255.9375 693.410156 255.417969 692.683594 254.929688 C 691.957031 254.445312 691.207031 253.996094 690.433594 253.582031 C 689.664062 253.171875 688.875 252.796875 688.066406 252.460938 C 687.257812 252.128906 686.433594 251.832031 685.597656 251.578125 C 684.757812 251.324219 683.910156 251.113281 683.054688 250.941406 C 682.195312 250.773438 681.332031 250.644531 680.460938 250.558594 C 679.589844 250.472656 678.71875 250.429688 677.84375 250.429688 L 517.5625 250.429688 L 517.5625 36.722656 C 517.5625 35.847656 517.519531 34.976562 517.433594 34.105469 C 517.347656 33.234375 517.21875 32.371094 517.050781 31.511719 C 516.878906 30.652344 516.667969 29.804688 516.410156 28.96875 C 516.15625 28.132812 515.863281 27.308594 515.527344 26.5 C 515.195312 25.691406 514.820312 24.902344 514.40625 24.128906 C 513.996094 23.359375 513.546875 22.609375 513.058594 21.882812 C 512.574219 21.152344 512.054688 20.453125 511.5 19.777344 C 510.945312 19.101562 510.355469 18.453125 509.738281 17.832031 C 509.121094 17.214844 508.472656 16.628906 507.796875 16.074219 C 507.121094 15.519531 506.417969 14.996094 505.691406 14.511719 C 504.960938 14.027344 504.214844 13.578125 503.441406 13.164062 C 502.671875 12.75 501.878906 12.378906 501.070312 12.042969 C 500.261719 11.707031 499.441406 11.414062 498.605469 11.160156 C 497.765625 10.90625 496.917969 10.695312 496.058594 10.523438 C 495.203125 10.351562 494.339844 10.222656 493.46875 10.136719 C 492.597656 10.050781 491.722656 10.007812 490.847656 10.007812 L 90.148438 10.007812 C 89.273438 10.007812 88.402344 10.050781 87.53125 10.136719 C 86.660156 10.222656 85.796875 10.351562 84.9375 10.523438 C 84.078125 10.695312 83.230469 10.90625 82.394531 11.160156 C 81.558594 11.414062 80.734375 11.707031 79.925781 12.042969 C 79.117188 12.378906 78.328125 12.75 77.558594 13.164062 C 76.785156 13.578125 76.035156 14.027344 75.308594 14.511719 C 74.582031 14.996094 73.878906 15.519531 73.203125 16.074219 C 72.527344 16.628906 71.878906 17.214844 71.261719 17.832031 C 70.640625 18.453125 70.054688 19.101562 69.5 19.777344 C 68.945312 20.453125 68.425781 21.152344 67.9375 21.882812 C 67.453125 22.609375 67.003906 23.359375 66.589844 24.128906 C 66.179688 24.902344 65.804688 25.691406 65.46875 26.5 C 65.132812 27.308594 64.839844 28.132812 64.585938 28.96875 C 64.332031 29.804688 64.121094 30.652344 63.949219 31.511719 C 63.777344 32.371094 63.652344 33.234375 63.566406 34.105469 C 63.480469 34.976562 63.4375 35.847656 63.4375 36.722656 L 63.4375 704.554688 L 36.722656 704.554688 C 35.847656 704.554688 34.976562 704.597656 34.105469 704.683594 C 33.234375 704.769531 32.371094 704.898438 31.511719 705.070312 C 30.652344 705.238281 29.804688 705.453125 28.96875 705.707031 C 28.132812 705.960938 27.308594 706.253906 26.5 706.589844 C 25.691406 706.921875 24.902344 707.296875 24.128906 707.710938 C 23.359375 708.121094 22.609375 708.570312 21.882812 709.058594 C 21.152344 709.542969 20.453125 710.0625 19.777344 710.617188 C 19.101562 711.175781 18.453125 711.761719 17.832031 712.378906 C 17.214844 713 16.628906 713.644531 16.074219 714.320312 C 15.519531 715 14.996094 715.699219 14.511719 716.425781 C 14.027344 717.15625 13.578125 717.90625 13.164062 718.675781 C 12.75 719.449219 12.378906 720.238281 12.042969 721.046875 C 11.707031 721.855469 11.414062 722.675781 11.160156 723.515625 C 10.90625 724.351562 10.695312 725.199219 10.523438 726.058594 C 10.351562 726.914062 10.222656 727.78125 10.136719 728.652344 C 10.050781 729.519531 10.007812 730.394531 10.007812 731.269531 C 10.007812 732.144531 10.050781 733.015625 10.136719 733.886719 C 10.222656 734.757812 10.351562 735.621094 10.523438 736.480469 C 10.695312 737.339844 10.90625 738.1875 11.160156 739.023438 C 11.414062 739.859375 11.707031 740.683594 12.042969 741.492188 C 12.378906 742.300781 12.75 743.089844 13.164062 743.859375 C 13.578125 744.632812 14.027344 745.382812 14.511719 746.109375 C 14.996094 746.835938 15.519531 747.539062 16.074219 748.214844 C 16.628906 748.890625 17.214844 749.539062 17.832031 750.15625 C 18.453125 750.777344 19.101562 751.363281 19.777344 751.917969 C 20.453125 752.472656 21.152344 752.992188 21.882812 753.480469 C 22.609375 753.964844 23.359375 754.414062 24.128906 754.828125 C 24.902344 755.238281 25.691406 755.613281 26.5 755.949219 C 27.308594 756.285156 28.132812 756.578125 28.96875 756.832031 C 29.804688 757.085938 30.652344 757.296875 31.511719 757.46875 C 32.371094 757.640625 33.234375 757.769531 34.105469 757.851562 C 34.976562 757.9375 35.847656 757.980469 36.722656 757.980469 L 731.269531 757.980469 C 732.144531 757.980469 733.015625 757.9375 733.886719 757.851562 C 734.757812 757.769531 735.621094 757.640625 736.480469 757.46875 C 737.339844 757.296875 738.1875 757.085938 739.023438 756.832031 C 739.859375 756.578125 740.683594 756.285156 741.492188 755.949219 C 742.300781 755.613281 743.089844 755.238281 743.859375 754.828125 C 744.632812 754.414062 745.382812 753.964844 746.109375 753.480469 C 746.835938 752.992188 747.539062 752.472656 748.214844 751.917969 C 748.890625 751.363281 749.539062 750.777344 750.15625 750.15625 C 750.777344 749.539062 751.363281 748.890625 751.917969 748.214844 C 752.472656 747.539062 752.992188 746.835938 753.480469 746.109375 C 753.964844 745.382812 754.414062 744.632812 754.828125 743.859375 C 755.238281 743.089844 755.613281 742.300781 755.949219 741.492188 C 756.285156 740.683594 756.578125 739.859375 756.832031 739.023438 C 757.085938 738.1875 757.296875 737.339844 757.46875 736.480469 C 757.640625 735.621094 757.769531 734.757812 757.851562 733.886719 C 757.9375 733.015625 757.980469 732.144531 757.980469 731.269531 C 757.980469 730.394531 757.9375 729.519531 757.851562 728.652344 C 757.769531 727.78125 757.640625 726.914062 757.46875 726.058594 C 757.296875 725.199219 757.085938 724.351562 756.832031 723.515625 C 756.578125 722.675781 756.285156 721.855469 755.949219 721.046875 C 755.613281 720.238281 755.238281 719.449219 754.828125 718.675781 C 754.414062 717.90625 753.964844 717.15625 753.480469 716.425781 C 752.992188 715.699219 752.472656 715 751.917969 714.320312 C 751.363281 713.644531 750.777344 713 750.15625 712.378906 C 749.539062 711.761719 748.890625 711.175781 748.214844 710.617188 C 747.539062 710.0625 746.835938 709.542969 746.109375 709.058594 C 745.382812 708.570312 744.632812 708.121094 743.859375 707.710938 C 743.089844 707.296875 742.300781 706.921875 741.492188 706.589844 C 740.683594 706.253906 739.859375 705.960938 739.023438 705.707031 C 738.1875 705.453125 737.339844 705.238281 736.480469 705.070312 C 735.621094 704.898438 734.757812 704.769531 733.886719 704.683594 C 733.015625 704.597656 732.144531 704.554688 731.269531 704.554688 Z M 651.128906 303.855469 L 651.128906 704.554688 L 517.5625 704.554688 L 517.5625 303.855469 Z M 116.863281 63.4375 L 464.136719 63.4375 L 464.136719 704.554688 L 410.710938 704.554688 L 410.710938 544.277344 C 410.710938 543.402344 410.667969 542.527344 410.582031 541.65625 C 410.496094 540.785156 410.367188 539.921875 410.195312 539.0625 C 410.023438 538.207031 409.8125 537.359375 409.558594 536.519531 C 409.304688 535.683594 409.011719 534.859375 408.675781 534.054688 C 408.339844 533.246094 407.96875 532.453125 407.554688 531.683594 C 407.140625 530.910156 406.691406 530.160156 406.207031 529.433594 C 405.722656 528.707031 405.199219 528.003906 404.644531 527.328125 C 404.089844 526.652344 403.503906 526.003906 402.886719 525.386719 C 402.265625 524.769531 401.617188 524.179688 400.941406 523.625 C 400.265625 523.070312 399.5625 522.550781 398.835938 522.0625 C 398.109375 521.578125 397.359375 521.128906 396.589844 520.714844 C 395.816406 520.304688 395.027344 519.929688 394.21875 519.59375 C 393.410156 519.261719 392.585938 518.964844 391.75 518.710938 C 390.914062 518.457031 390.066406 518.246094 389.207031 518.074219 C 388.347656 517.90625 387.484375 517.777344 386.613281 517.691406 C 385.742188 517.605469 384.871094 517.5625 383.996094 517.5625 L 197.003906 517.5625 C 196.128906 517.5625 195.253906 517.605469 194.382812 517.691406 C 193.511719 517.777344 192.648438 517.90625 191.792969 518.074219 C 190.933594 518.246094 190.085938 518.457031 189.25 518.710938 C 188.410156 518.964844 187.589844 519.261719 186.78125 519.597656 C 185.972656 519.929688 185.179688 520.304688 184.410156 520.714844 C 183.636719 521.128906 182.890625 521.578125 182.160156 522.0625 C 181.433594 522.550781 180.730469 523.070312 180.054688 523.625 C 179.378906 524.179688 178.730469 524.769531 178.113281 525.386719 C 177.496094 526.003906 176.90625 526.652344 176.351562 527.328125 C 175.796875 528.003906 175.277344 528.707031 174.792969 529.433594 C 174.304688 530.160156 173.855469 530.910156 173.445312 531.683594 C 173.03125 532.453125 172.65625 533.246094 172.324219 534.054688 C 171.988281 534.859375 171.695312 535.683594 171.441406 536.519531 C 171.1875 537.359375 170.972656 538.207031 170.800781 539.0625 C 170.632812 539.921875 170.503906 540.785156 170.417969 541.65625 C 170.332031 542.527344 170.289062 543.402344 170.289062 544.277344 L 170.289062 704.554688 L 116.863281 704.554688 Z M 357.28125 704.554688 L 223.714844 704.554688 L 223.714844 570.988281 L 357.28125 570.988281 Z M 357.28125 704.554688 " fill-opacity="1" fill-rule="nonzero"/></g><path fill="#0a3871" d="M 170.289062 90.148438 L 250.429688 90.148438 L 250.429688 143.574219 L 170.289062 143.574219 Z M 170.289062 90.148438 " fill-opacity="1" fill-rule="nonzero"/><path fill="#0a3871" d="M 330.570312 90.148438 L 410.710938 90.148438 L 410.710938 143.574219 L 330.570312 143.574219 Z M 330.570312 90.148438 " fill-opacity="1" fill-rule="nonzero"/><path fill="#0a3871" d="M 170.289062 197.003906 L 250.429688 197.003906 L 250.429688 250.429688 L 170.289062 250.429688 Z M 170.289062 197.003906 " fill-opacity="1" fill-rule="nonzero"/><path fill="#0a3871" d="M 330.570312 197.003906 L 410.710938 197.003906 L 410.710938 250.429688 L 330.570312 250.429688 Z M 330.570312 197.003906 " fill-opacity="1" fill-rule="nonzero"/><path fill="#0a3871" d="M 170.289062 303.855469 L 250.429688 303.855469 L 250.429688 357.28125 L 170.289062 357.28125 Z M 170.289062 303.855469 " fill-opacity="1" fill-rule="nonzero"/><path fill="#0a3871" d="M 330.570312 303.855469 L 410.710938 303.855469 L 410.710938 357.28125 L 330.570312 357.28125 Z M 330.570312 303.855469 " fill-opacity="1" fill-rule="nonzero"/><path fill="#0a3871" d="M 170.289062 410.710938 L 250.429688 410.710938 L 250.429688 464.136719 L 170.289062 464.136719 Z M 170.289062 410.710938 " fill-opacity="1" fill-rule="nonzero"/><path fill="#0a3871" d="M 330.570312 410.710938 L 410.710938 410.710938 L 410.710938 464.136719 L 330.570312 464.136719 Z M 330.570312 410.710938 " fill-opacity="1" fill-rule="nonzero"/><path fill="#0a3871" d="M 544.277344 357.28125 L 624.414062 357.28125 L 624.414062 410.710938 L 544.277344 410.710938 Z M 544.277344 357.28125 " fill-opacity="1" fill-rule="nonzero"/><path fill="#0a3871" d="M 544.277344 464.136719 L 624.414062 464.136719 L 624.414062 517.5625 L 544.277344 517.5625 Z M 544.277344 464.136719 " fill-opacity="1" fill-rule="nonzero"/><path fill="#0a3871" d="M 544.277344 570.988281 L 624.414062 570.988281 L 624.414062 624.414062 L 544.277344 624.414062 Z M 544.277344 570.988281 " fill-opacity="1" fill-rule="nonzero"/></svg>