<svg xmlns="http://www.w3.org/2000/svg" xmlns:xlink="http://www.w3.org/1999/xlink" width="1024" zoomAndPan="magnify" viewBox="0 0 768 767.999994" height="1024" preserveAspectRatio="xMidYMid meet" version="1.0"><defs><clipPath id="dd02590940"><path d="M 100.800781 12 L 667.050781 12 L 667.050781 768 L 100.800781 768 Z M 100.800781 12 " clip-rule="nonzero"/></clipPath></defs><g clip-path="url(#dd02590940)"><path fill="#ffffff" d="M 242.398438 318.929688 L 596.453125 318.929688 C 597.609375 318.933594 598.765625 318.964844 599.921875 319.023438 C 601.078125 319.085938 602.230469 319.175781 603.378906 319.292969 C 604.53125 319.410156 605.679688 319.554688 606.820312 319.726562 C 607.964844 319.898438 609.105469 320.101562 610.238281 320.328125 C 611.371094 320.558594 612.5 320.8125 613.621094 321.097656 C 614.742188 321.382812 615.855469 321.691406 616.960938 322.03125 C 618.066406 322.367188 619.164062 322.734375 620.25 323.125 C 621.339844 323.515625 622.417969 323.933594 623.484375 324.378906 C 624.554688 324.824219 625.609375 325.292969 626.652344 325.789062 C 627.699219 326.285156 628.730469 326.808594 629.75 327.355469 C 630.769531 327.902344 631.773438 328.472656 632.765625 329.066406 C 633.757812 329.664062 634.734375 330.28125 635.695312 330.925781 C 636.65625 331.570312 637.601562 332.234375 638.527344 332.925781 C 639.457031 333.613281 640.367188 334.328125 641.261719 335.0625 C 642.15625 335.796875 643.03125 336.550781 643.886719 337.328125 C 644.746094 338.105469 645.582031 338.902344 646.398438 339.71875 C 647.21875 340.539062 648.015625 341.375 648.792969 342.230469 C 649.566406 343.089844 650.324219 343.964844 651.058594 344.855469 C 651.792969 345.75 652.503906 346.660156 653.191406 347.589844 C 653.882812 348.519531 654.550781 349.464844 655.191406 350.425781 C 655.835938 351.386719 656.457031 352.363281 657.050781 353.351562 C 657.648438 354.34375 658.21875 355.351562 658.765625 356.367188 C 659.3125 357.386719 659.832031 358.421875 660.328125 359.464844 C 660.824219 360.507812 661.292969 361.566406 661.738281 362.632812 C 662.183594 363.703125 662.601562 364.777344 662.992188 365.867188 C 663.386719 366.957031 663.75 368.050781 664.089844 369.160156 C 664.425781 370.265625 664.738281 371.378906 665.019531 372.5 C 665.304688 373.621094 665.5625 374.746094 665.789062 375.882812 C 666.019531 377.015625 666.21875 378.152344 666.390625 379.296875 C 666.566406 380.441406 666.710938 381.589844 666.828125 382.738281 C 666.945312 383.890625 667.03125 385.042969 667.09375 386.195312 C 667.152344 387.351562 667.1875 388.507812 667.191406 389.664062 L 667.191406 696.523438 C 667.1875 697.679688 667.152344 698.835938 667.09375 699.992188 C 667.03125 701.148438 666.945312 702.304688 666.828125 703.457031 C 666.710938 704.605469 666.5625 705.753906 666.390625 706.898438 C 666.21875 708.042969 666.015625 709.183594 665.785156 710.320312 C 665.558594 711.453125 665.300781 712.582031 665.015625 713.707031 C 664.730469 714.828125 664.421875 715.941406 664.082031 717.050781 C 663.742188 718.15625 663.375 719.253906 662.984375 720.34375 C 662.589844 721.433594 662.171875 722.511719 661.726562 723.582031 C 661.28125 724.648438 660.808594 725.707031 660.3125 726.753906 C 659.816406 727.796875 659.292969 728.832031 658.746094 729.851562 C 658.199219 730.871094 657.625 731.878906 657.027344 732.871094 C 656.433594 733.863281 655.8125 734.839844 655.167969 735.800781 C 654.519531 736.761719 653.851562 737.707031 653.164062 738.636719 C 652.472656 739.566406 651.757812 740.476562 651.023438 741.371094 C 650.285156 742.265625 649.53125 743.140625 648.75 743.996094 C 647.972656 744.855469 647.175781 745.691406 646.355469 746.511719 C 645.535156 747.328125 644.695312 748.125 643.835938 748.902344 C 642.980469 749.679688 642.101562 750.4375 641.207031 751.167969 C 640.3125 751.902344 639.398438 752.613281 638.46875 753.304688 C 637.539062 753.992188 636.589844 754.660156 635.628906 755.304688 C 634.664062 755.945312 633.6875 756.566406 632.695312 757.160156 C 631.703125 757.753906 630.695312 758.328125 629.671875 758.871094 C 628.652344 759.417969 627.617188 759.9375 626.570312 760.433594 C 625.527344 760.929688 624.46875 761.398438 623.398438 761.84375 C 622.328125 762.285156 621.25 762.703125 620.160156 763.09375 C 619.070312 763.484375 617.96875 763.847656 616.863281 764.183594 C 615.753906 764.523438 614.640625 764.832031 613.515625 765.113281 C 612.394531 765.398438 611.265625 765.652344 610.128906 765.878906 C 608.992188 766.105469 607.855469 766.304688 606.707031 766.476562 C 605.5625 766.648438 604.414062 766.789062 603.261719 766.90625 C 602.109375 767.019531 600.957031 767.109375 599.800781 767.167969 C 598.644531 767.226562 597.488281 767.253906 596.328125 767.257812 L 171.660156 767.257812 C 170.503906 767.253906 169.347656 767.226562 168.191406 767.167969 C 167.035156 767.109375 165.878906 767.019531 164.726562 766.90625 C 163.574219 766.789062 162.425781 766.648438 161.28125 766.476562 C 160.136719 766.304688 158.996094 766.105469 157.863281 765.878906 C 156.726562 765.652344 155.597656 765.398438 154.472656 765.113281 C 153.351562 764.832031 152.234375 764.523438 151.128906 764.183594 C 150.019531 763.847656 148.921875 763.484375 147.832031 763.09375 C 146.742188 762.703125 145.660156 762.285156 144.59375 761.84375 C 143.523438 761.398438 142.464844 760.929688 141.417969 760.433594 C 140.371094 759.9375 139.339844 759.417969 138.316406 758.871094 C 137.296875 758.324219 136.289062 757.753906 135.296875 757.160156 C 134.300781 756.566406 133.324219 755.945312 132.363281 755.304688 C 131.398438 754.660156 130.453125 753.992188 129.523438 753.304688 C 128.59375 752.613281 127.679688 751.902344 126.785156 751.167969 C 125.886719 750.4375 125.011719 749.679688 124.152344 748.902344 C 123.292969 748.125 122.457031 747.328125 121.636719 746.511719 C 120.816406 745.691406 120.015625 744.855469 119.238281 743.996094 C 118.460938 743.140625 117.703125 742.265625 116.96875 741.371094 C 116.230469 740.476562 115.519531 739.566406 114.828125 738.636719 C 114.136719 737.707031 113.46875 736.761719 112.824219 735.800781 C 112.179688 734.839844 111.558594 733.863281 110.960938 732.871094 C 110.363281 731.878906 109.792969 730.871094 109.246094 729.851562 C 108.695312 728.832031 108.175781 727.796875 107.675781 726.753906 C 107.179688 725.707031 106.707031 724.648438 106.261719 723.582031 C 105.816406 722.511719 105.398438 721.433594 105.007812 720.34375 C 104.613281 719.253906 104.246094 718.15625 103.910156 717.050781 C 103.570312 715.941406 103.257812 714.828125 102.972656 713.707031 C 102.691406 712.582031 102.433594 711.453125 102.203125 710.320312 C 101.972656 709.183594 101.773438 708.042969 101.601562 706.898438 C 101.425781 705.753906 101.28125 704.605469 101.164062 703.453125 C 101.046875 702.304688 100.957031 701.148438 100.898438 699.992188 C 100.835938 698.835938 100.804688 697.679688 100.800781 696.523438 L 100.800781 389.664062 C 100.804688 388.507812 100.835938 387.347656 100.898438 386.191406 C 100.957031 385.035156 101.046875 383.882812 101.164062 382.730469 C 101.28125 381.578125 101.425781 380.429688 101.601562 379.285156 C 101.773438 378.140625 101.972656 377 102.203125 375.867188 C 102.433594 374.730469 102.691406 373.601562 102.972656 372.480469 C 103.257812 371.359375 103.570312 370.242188 103.910156 369.136719 C 104.246094 368.027344 104.613281 366.929688 105.007812 365.839844 C 105.398438 364.753906 105.816406 363.671875 106.261719 362.605469 C 106.710938 361.535156 107.179688 360.480469 107.675781 359.433594 C 108.175781 358.386719 108.695312 357.355469 109.246094 356.335938 C 109.792969 355.3125 110.363281 354.308594 110.960938 353.316406 C 111.558594 352.324219 112.179688 351.347656 112.824219 350.386719 C 113.46875 349.421875 114.136719 348.476562 114.828125 347.550781 C 115.519531 346.621094 116.230469 345.707031 116.96875 344.816406 C 117.703125 343.921875 118.460938 343.042969 119.238281 342.1875 C 120.019531 341.332031 120.816406 340.492188 121.636719 339.675781 C 122.457031 338.855469 123.292969 338.058594 124.152344 337.28125 C 125.011719 336.503906 125.886719 335.75 126.785156 335.015625 C 127.679688 334.28125 128.59375 333.570312 129.523438 332.882812 C 130.453125 332.191406 131.398438 331.527344 132.363281 330.882812 C 133.324219 330.238281 134.300781 329.621094 135.296875 329.023438 C 136.289062 328.429688 137.296875 327.859375 138.316406 327.3125 C 139.339844 326.769531 140.371094 326.246094 141.417969 325.75 C 142.464844 325.257812 143.523438 324.785156 144.59375 324.34375 C 145.664062 323.898438 146.742188 323.484375 147.832031 323.09375 C 148.921875 322.703125 150.019531 322.335938 151.128906 322 C 152.234375 321.664062 153.351562 321.355469 154.472656 321.070312 C 155.597656 320.789062 156.726562 320.535156 157.863281 320.308594 C 158.996094 320.082031 160.136719 319.882812 161.28125 319.710938 C 162.425781 319.539062 163.574219 319.394531 164.726562 319.28125 C 165.878906 319.164062 167.035156 319.078125 168.191406 319.019531 C 169.347656 318.960938 170.503906 318.929688 171.660156 318.929688 L 171.660156 224.53125 C 171.660156 221.054688 171.746094 217.582031 171.917969 214.109375 C 172.089844 210.640625 172.34375 207.175781 172.683594 203.71875 C 173.023438 200.257812 173.449219 196.8125 173.960938 193.375 C 174.46875 189.9375 175.0625 186.511719 175.742188 183.105469 C 176.417969 179.695312 177.179688 176.308594 178.023438 172.9375 C 178.871094 169.566406 179.796875 166.21875 180.804688 162.890625 C 181.8125 159.566406 182.902344 156.269531 184.074219 152.996094 C 185.246094 149.726562 186.496094 146.484375 187.824219 143.273438 C 189.15625 140.0625 190.5625 136.886719 192.046875 133.746094 C 193.535156 130.605469 195.09375 127.5 196.734375 124.4375 C 198.371094 121.371094 200.085938 118.347656 201.871094 115.367188 C 203.65625 112.386719 205.515625 109.453125 207.445312 106.5625 C 209.378906 103.675781 211.378906 100.832031 213.449219 98.042969 C 215.515625 95.25 217.65625 92.511719 219.859375 89.828125 C 222.0625 87.140625 224.332031 84.511719 226.667969 81.933594 C 229 79.359375 231.394531 76.84375 233.851562 74.386719 C 236.308594 71.929688 238.824219 69.535156 241.402344 67.199219 C 243.976562 64.867188 246.605469 62.597656 249.292969 60.394531 C 251.980469 58.1875 254.71875 56.050781 257.507812 53.980469 C 260.300781 51.910156 263.140625 49.910156 266.027344 47.980469 C 268.917969 46.050781 271.851562 44.191406 274.835938 42.40625 C 277.816406 40.617188 280.835938 38.90625 283.902344 37.269531 C 286.964844 35.628906 290.070312 34.066406 293.210938 32.582031 C 296.351562 31.097656 299.527344 29.6875 302.738281 28.359375 C 305.949219 27.027344 309.191406 25.777344 312.460938 24.609375 C 315.734375 23.4375 319.03125 22.347656 322.359375 21.339844 C 325.683594 20.332031 329.03125 19.402344 332.402344 18.558594 C 335.773438 17.714844 339.164062 16.953125 342.570312 16.277344 C 345.980469 15.597656 349.402344 15.003906 352.839844 14.496094 C 356.277344 13.984375 359.726562 13.558594 363.183594 13.21875 C 366.640625 12.878906 370.105469 12.621094 373.578125 12.453125 C 377.046875 12.28125 380.519531 12.195312 383.996094 12.195312 C 387.46875 12.195312 390.941406 12.28125 394.414062 12.453125 C 397.886719 12.621094 401.347656 12.878906 404.808594 13.21875 C 408.265625 13.558594 411.714844 13.984375 415.152344 14.496094 C 418.589844 15.003906 422.011719 15.597656 425.417969 16.277344 C 428.828125 16.953125 432.21875 17.714844 435.589844 18.558594 C 438.957031 19.402344 442.308594 20.332031 445.632812 21.339844 C 448.957031 22.347656 452.257812 23.4375 455.527344 24.609375 C 458.800781 25.777344 462.042969 27.027344 465.25 28.359375 C 468.460938 29.6875 471.636719 31.097656 474.78125 32.582031 C 477.921875 34.066406 481.023438 35.628906 484.089844 37.269531 C 487.152344 38.90625 490.175781 40.617188 493.15625 42.40625 C 496.136719 44.191406 499.070312 46.050781 501.960938 47.980469 C 504.851562 49.910156 507.691406 51.910156 510.480469 53.980469 C 513.273438 56.050781 516.011719 58.1875 518.699219 60.394531 C 521.382812 62.597656 524.015625 64.867188 526.589844 67.199219 C 529.164062 69.535156 531.679688 71.929688 534.136719 74.386719 C 536.59375 76.84375 538.992188 79.359375 541.324219 81.933594 C 543.65625 84.511719 545.925781 87.140625 548.132812 89.828125 C 550.335938 92.511719 552.472656 95.25 554.542969 98.042969 C 556.613281 100.832031 558.613281 103.675781 560.542969 106.5625 C 562.476562 109.453125 564.332031 112.386719 566.121094 115.367188 C 567.90625 118.347656 569.617188 121.371094 571.257812 124.4375 C 572.894531 127.5 574.457031 130.605469 575.941406 133.746094 C 577.429688 136.886719 578.835938 140.0625 580.164062 143.273438 C 581.496094 146.484375 582.746094 149.726562 583.917969 152.996094 C 585.085938 156.269531 586.175781 159.566406 587.1875 162.890625 C 588.195312 166.21875 589.121094 169.566406 589.964844 172.9375 C 590.808594 176.308594 591.570312 179.695312 592.25 183.105469 C 592.925781 186.511719 593.519531 189.9375 594.03125 193.375 C 594.539062 196.8125 594.964844 200.257812 595.304688 203.71875 C 595.648438 207.175781 595.902344 210.640625 596.074219 214.109375 C 596.242188 217.582031 596.328125 221.054688 596.328125 224.53125 L 596.328125 236.359375 C 596.332031 237.519531 596.273438 238.675781 596.164062 239.832031 C 596.050781 240.984375 595.882812 242.128906 595.65625 243.269531 C 595.433594 244.40625 595.152344 245.527344 594.816406 246.636719 C 594.480469 247.75 594.09375 248.839844 593.652344 249.910156 C 593.207031 250.980469 592.714844 252.03125 592.167969 253.050781 C 591.621094 254.074219 591.027344 255.070312 590.386719 256.035156 C 589.742188 257 589.054688 257.929688 588.316406 258.824219 C 587.582031 259.722656 586.804688 260.582031 585.988281 261.402344 C 585.167969 262.222656 584.308594 263 583.414062 263.734375 C 582.519531 264.472656 581.589844 265.164062 580.625 265.808594 C 579.660156 266.453125 578.667969 267.046875 577.648438 267.59375 C 576.625 268.140625 575.578125 268.636719 574.507812 269.082031 C 573.4375 269.523438 572.347656 269.914062 571.238281 270.253906 C 570.128906 270.589844 569.003906 270.871094 567.867188 271.097656 C 566.730469 271.324219 565.585938 271.492188 564.429688 271.605469 C 563.277344 271.722656 562.121094 271.777344 560.960938 271.777344 C 559.800781 271.777344 558.644531 271.722656 557.492188 271.605469 C 556.335938 271.492188 555.191406 271.324219 554.054688 271.097656 C 552.917969 270.871094 551.792969 270.589844 550.683594 270.253906 C 549.574219 269.914062 548.484375 269.523438 547.414062 269.082031 C 546.34375 268.636719 545.296875 268.140625 544.273438 267.59375 C 543.253906 267.046875 542.261719 266.453125 541.296875 265.808594 C 540.332031 265.164062 539.402344 264.472656 538.507812 263.734375 C 537.613281 263 536.753906 262.222656 535.933594 261.402344 C 535.117188 260.582031 534.339844 259.722656 533.605469 258.824219 C 532.867188 257.929688 532.179688 257 531.535156 256.035156 C 530.894531 255.070312 530.300781 254.074219 529.753906 253.050781 C 529.207031 252.03125 528.714844 250.980469 528.269531 249.910156 C 527.828125 248.839844 527.441406 247.75 527.105469 246.636719 C 526.769531 245.527344 526.488281 244.40625 526.265625 243.269531 C 526.039062 242.128906 525.871094 240.984375 525.757812 239.832031 C 525.648438 238.675781 525.589844 237.519531 525.59375 236.359375 L 525.59375 224.53125 C 525.59375 222.210938 525.535156 219.894531 525.421875 217.582031 C 525.308594 215.265625 525.136719 212.957031 524.910156 210.652344 C 524.683594 208.34375 524.398438 206.046875 524.058594 203.753906 C 523.71875 201.460938 523.324219 199.179688 522.871094 196.90625 C 522.421875 194.632812 521.914062 192.371094 521.347656 190.125 C 520.785156 187.875 520.167969 185.644531 519.496094 183.425781 C 518.824219 181.207031 518.097656 179.007812 517.316406 176.828125 C 516.535156 174.644531 515.699219 172.484375 514.8125 170.34375 C 513.925781 168.203125 512.988281 166.082031 511.996094 163.988281 C 511.007812 161.894531 509.964844 159.824219 508.875 157.78125 C 507.78125 155.738281 506.640625 153.722656 505.449219 151.734375 C 504.257812 149.746094 503.015625 147.789062 501.730469 145.863281 C 500.441406 143.933594 499.109375 142.042969 497.726562 140.179688 C 496.347656 138.320312 494.921875 136.492188 493.453125 134.699219 C 491.980469 132.910156 490.46875 131.15625 488.910156 129.4375 C 487.355469 127.722656 485.757812 126.042969 484.121094 124.40625 C 482.480469 122.765625 480.804688 121.167969 479.085938 119.613281 C 477.371094 118.054688 475.613281 116.542969 473.824219 115.074219 C 472.03125 113.601562 470.207031 112.175781 468.34375 110.796875 C 466.484375 109.417969 464.589844 108.082031 462.664062 106.796875 C 460.734375 105.507812 458.777344 104.269531 456.789062 103.078125 C 454.804688 101.886719 452.789062 100.742188 450.742188 99.652344 C 448.699219 98.558594 446.628906 97.519531 444.535156 96.527344 C 442.441406 95.535156 440.324219 94.597656 438.183594 93.710938 C 436.042969 92.824219 433.878906 91.988281 431.699219 91.210938 C 429.515625 90.429688 427.316406 89.703125 425.097656 89.027344 C 422.882812 88.355469 420.648438 87.738281 418.402344 87.175781 C 416.152344 86.613281 413.890625 86.105469 411.621094 85.652344 C 409.347656 85.199219 407.0625 84.804688 404.773438 84.464844 C 402.480469 84.125 400.179688 83.839844 397.875 83.613281 C 395.566406 83.386719 393.257812 83.214844 390.941406 83.101562 C 388.628906 82.988281 386.3125 82.933594 383.996094 82.933594 C 381.679688 82.933594 379.363281 82.988281 377.046875 83.101562 C 374.734375 83.214844 372.421875 83.386719 370.117188 83.613281 C 367.808594 83.839844 365.511719 84.125 363.21875 84.464844 C 360.925781 84.804688 358.644531 85.199219 356.371094 85.652344 C 354.097656 86.105469 351.835938 86.613281 349.589844 87.175781 C 347.34375 87.738281 345.109375 88.355469 342.890625 89.027344 C 340.675781 89.703125 338.472656 90.429688 336.292969 91.210938 C 334.109375 91.988281 331.949219 92.824219 329.808594 93.710938 C 327.667969 94.597656 325.550781 95.535156 323.453125 96.527344 C 321.359375 97.519531 319.289062 98.558594 317.246094 99.652344 C 315.203125 100.742188 313.1875 101.886719 311.199219 103.078125 C 309.210938 104.269531 307.253906 105.507812 305.328125 106.796875 C 303.402344 108.082031 301.507812 109.417969 299.644531 110.796875 C 297.785156 112.175781 295.957031 113.601562 294.167969 115.074219 C 292.375 116.542969 290.621094 118.054688 288.902344 119.613281 C 287.1875 121.167969 285.507812 122.765625 283.871094 124.40625 C 282.230469 126.042969 280.632812 127.722656 279.078125 129.4375 C 277.523438 131.15625 276.007812 132.910156 274.539062 134.699219 C 273.070312 136.492188 271.644531 138.320312 270.261719 140.179688 C 268.882812 142.042969 267.546875 143.933594 266.261719 145.863281 C 264.972656 147.789062 263.734375 149.746094 262.542969 151.734375 C 261.351562 153.722656 260.210938 155.738281 259.117188 157.78125 C 258.023438 159.824219 256.984375 161.894531 255.992188 163.988281 C 255 166.082031 254.0625 168.203125 253.175781 170.34375 C 252.289062 172.484375 251.457031 174.644531 250.675781 176.828125 C 249.894531 179.007812 249.167969 181.207031 248.496094 183.425781 C 247.820312 185.644531 247.203125 187.875 246.640625 190.125 C 246.078125 192.371094 245.570312 194.632812 245.117188 196.90625 C 244.667969 199.179688 244.269531 201.460938 243.929688 203.753906 C 243.589844 206.046875 243.304688 208.34375 243.078125 210.652344 C 242.851562 212.957031 242.683594 215.265625 242.566406 217.582031 C 242.453125 219.894531 242.398438 222.210938 242.398438 224.53125 Z M 383.996094 460.527344 C 382.308594 460.515625 380.621094 460.574219 378.941406 460.710938 C 377.257812 460.84375 375.585938 461.046875 373.917969 461.324219 C 372.253906 461.601562 370.605469 461.949219 368.96875 462.367188 C 367.335938 462.785156 365.722656 463.273438 364.128906 463.832031 C 362.535156 464.386719 360.96875 465.011719 359.429688 465.703125 C 357.890625 466.394531 356.382812 467.148438 354.90625 467.96875 C 353.433594 468.789062 351.996094 469.671875 350.597656 470.617188 C 349.195312 471.558594 347.839844 472.5625 346.527344 473.621094 C 345.214844 474.683594 343.949219 475.796875 342.730469 476.964844 C 341.515625 478.132812 340.347656 479.351562 339.234375 480.621094 C 338.121094 481.890625 337.066406 483.203125 336.066406 484.5625 C 335.066406 485.921875 334.125 487.320312 333.246094 488.761719 C 332.363281 490.199219 331.546875 491.675781 330.792969 493.1875 C 330.039062 494.695312 329.351562 496.234375 328.730469 497.804688 C 328.105469 499.371094 327.554688 500.964844 327.070312 502.582031 C 326.582031 504.199219 326.167969 505.832031 325.824219 507.484375 C 325.476562 509.136719 325.203125 510.800781 325 512.476562 C 324.800781 514.152344 324.667969 515.832031 324.609375 517.519531 C 324.554688 519.207031 324.566406 520.890625 324.652344 522.578125 C 324.738281 524.261719 324.898438 525.941406 325.128906 527.613281 C 325.359375 529.285156 325.660156 530.945312 326.03125 532.589844 C 326.40625 534.234375 326.847656 535.863281 327.359375 537.472656 C 327.871094 539.078125 328.453125 540.660156 329.101562 542.21875 C 329.75 543.777344 330.460938 545.304688 331.242188 546.804688 C 332.019531 548.300781 332.863281 549.761719 333.765625 551.1875 C 334.671875 552.613281 335.632812 553.996094 336.65625 555.335938 C 337.679688 556.679688 338.757812 557.976562 339.894531 559.226562 C 341.027344 560.476562 342.210938 561.675781 343.449219 562.820312 C 344.6875 563.96875 345.96875 565.0625 347.300781 566.101562 C 348.632812 567.140625 350.003906 568.117188 351.417969 569.039062 C 352.835938 569.957031 354.285156 570.816406 355.773438 571.613281 C 357.261719 572.40625 358.78125 573.136719 360.332031 573.804688 L 360.332031 614.207031 C 360.332031 614.980469 360.371094 615.753906 360.449219 616.523438 C 360.527344 617.292969 360.640625 618.058594 360.792969 618.816406 C 360.945312 619.578125 361.132812 620.328125 361.359375 621.066406 C 361.585938 621.808594 361.847656 622.535156 362.144531 623.25 C 362.441406 623.964844 362.773438 624.664062 363.136719 625.347656 C 363.503906 626.03125 363.902344 626.691406 364.332031 627.335938 C 364.761719 627.980469 365.222656 628.601562 365.714844 629.199219 C 366.207031 629.796875 366.726562 630.371094 367.273438 630.917969 C 367.824219 631.464844 368.394531 631.984375 368.996094 632.472656 C 369.59375 632.964844 370.214844 633.425781 370.859375 633.855469 C 371.503906 634.285156 372.167969 634.683594 372.851562 635.046875 C 373.53125 635.410156 374.230469 635.742188 374.949219 636.039062 C 375.664062 636.335938 376.390625 636.59375 377.132812 636.820312 C 377.875 637.042969 378.625 637.230469 379.382812 637.382812 C 380.140625 637.535156 380.90625 637.648438 381.679688 637.722656 C 382.449219 637.796875 383.222656 637.835938 383.996094 637.835938 C 384.769531 637.835938 385.542969 637.796875 386.3125 637.722656 C 387.082031 637.648438 387.847656 637.535156 388.609375 637.382812 C 389.367188 637.230469 390.117188 637.042969 390.859375 636.820312 C 391.597656 636.59375 392.328125 636.335938 393.042969 636.039062 C 393.757812 635.742188 394.457031 635.410156 395.140625 635.046875 C 395.824219 634.683594 396.488281 634.285156 397.132812 633.855469 C 397.773438 633.425781 398.398438 632.964844 398.996094 632.472656 C 399.59375 631.984375 400.167969 631.464844 400.714844 630.917969 C 401.261719 630.371094 401.785156 629.796875 402.273438 629.199219 C 402.765625 628.601562 403.226562 627.980469 403.660156 627.335938 C 404.089844 626.691406 404.488281 626.03125 404.851562 625.347656 C 405.21875 624.664062 405.550781 623.964844 405.847656 623.25 C 406.144531 622.535156 406.40625 621.808594 406.632812 621.066406 C 406.855469 620.328125 407.046875 619.578125 407.199219 618.816406 C 407.347656 618.058594 407.464844 617.292969 407.539062 616.523438 C 407.617188 615.753906 407.65625 614.980469 407.65625 614.207031 L 407.65625 573.550781 C 409.207031 572.886719 410.726562 572.15625 412.214844 571.359375 C 413.703125 570.566406 415.15625 569.707031 416.570312 568.785156 C 417.984375 567.867188 419.359375 566.886719 420.6875 565.847656 C 422.019531 564.8125 423.304688 563.71875 424.539062 562.570312 C 425.777344 561.421875 426.964844 560.222656 428.097656 558.972656 C 429.230469 557.722656 430.308594 556.429688 431.332031 555.085938 C 432.355469 553.742188 433.320312 552.359375 434.222656 550.933594 C 435.128906 549.511719 435.96875 548.050781 436.75 546.550781 C 437.527344 545.054688 438.242188 543.527344 438.890625 541.96875 C 439.539062 540.410156 440.117188 538.828125 440.628906 537.21875 C 441.140625 535.609375 441.585938 533.984375 441.957031 532.339844 C 442.332031 530.691406 442.632812 529.035156 442.863281 527.363281 C 443.09375 525.691406 443.25 524.011719 443.335938 522.324219 C 443.421875 520.640625 443.4375 518.953125 443.378906 517.265625 C 443.320312 515.582031 443.191406 513.898438 442.988281 512.222656 C 442.785156 510.546875 442.511719 508.886719 442.167969 507.234375 C 441.824219 505.582031 441.40625 503.945312 440.921875 502.332031 C 440.4375 500.714844 439.882812 499.121094 439.261719 497.550781 C 438.640625 495.984375 437.953125 494.445312 437.199219 492.933594 C 436.445312 491.425781 435.625 489.949219 434.746094 488.507812 C 433.867188 487.070312 432.925781 485.671875 431.925781 484.3125 C 430.925781 482.953125 429.867188 481.636719 428.753906 480.371094 C 427.640625 479.101562 426.476562 477.882812 425.257812 476.714844 C 424.042969 475.546875 422.777344 474.429688 421.460938 473.371094 C 420.148438 472.3125 418.792969 471.308594 417.394531 470.363281 C 415.996094 469.421875 414.558594 468.539062 413.082031 467.71875 C 411.609375 466.898438 410.101562 466.140625 408.5625 465.449219 C 407.023438 464.761719 405.457031 464.136719 403.863281 463.578125 C 402.269531 463.023438 400.65625 462.535156 399.019531 462.117188 C 397.386719 461.699219 395.734375 461.351562 394.070312 461.074219 C 392.40625 460.796875 390.734375 460.589844 389.050781 460.457031 C 387.367188 460.324219 385.683594 460.261719 383.996094 460.273438 Z M 383.996094 460.527344 " fill-opacity="1" fill-rule="evenodd"/></g></svg>