<svg xmlns="http://www.w3.org/2000/svg" xmlns:xlink="http://www.w3.org/1999/xlink" width="1024" zoomAndPan="magnify" viewBox="0 0 768 767.999994" height="1024" preserveAspectRatio="xMidYMid meet" version="1.0"><defs><clipPath id="d3f1a616eb"><path d="M 86.398438 0 L 681.898438 0 L 681.898438 768 L 86.398438 768 Z M 86.398438 0 " clip-rule="nonzero"/></clipPath></defs><g clip-path="url(#d3f1a616eb)"><path fill="#ffffff" d="M 617.792969 296.789062 L 617.792969 233.78125 C 617.792969 104.898438 512.898438 0 384.019531 0 C 255.136719 0 150.195312 104.875 150.195312 233.78125 L 150.195312 296.789062 C 114.902344 297.746094 86.542969 326.5 86.542969 362.027344 L 86.542969 702.578125 C 86.542969 703.648438 86.570312 704.71875 86.621094 705.789062 C 86.675781 706.855469 86.753906 707.925781 86.855469 708.988281 C 86.960938 710.054688 87.09375 711.117188 87.25 712.175781 C 87.40625 713.234375 87.589844 714.289062 87.800781 715.339844 C 88.007812 716.390625 88.242188 717.433594 88.503906 718.472656 C 88.761719 719.511719 89.046875 720.542969 89.359375 721.566406 C 89.667969 722.589844 90.003906 723.609375 90.363281 724.617188 C 90.726562 725.625 91.109375 726.621094 91.519531 727.613281 C 91.929688 728.601562 92.363281 729.578125 92.820312 730.546875 C 93.277344 731.515625 93.761719 732.472656 94.265625 733.414062 C 94.769531 734.359375 95.296875 735.289062 95.847656 736.210938 C 96.398438 737.128906 96.96875 738.03125 97.566406 738.921875 C 98.160156 739.8125 98.777344 740.6875 99.414062 741.546875 C 100.050781 742.40625 100.710938 743.25 101.386719 744.078125 C 102.066406 744.90625 102.765625 745.71875 103.484375 746.511719 C 104.203125 747.304688 104.941406 748.078125 105.699219 748.835938 C 106.457031 749.59375 107.230469 750.332031 108.023438 751.050781 C 108.816406 751.769531 109.628906 752.46875 110.457031 753.148438 C 111.285156 753.828125 112.128906 754.484375 112.988281 755.125 C 113.847656 755.761719 114.722656 756.378906 115.613281 756.972656 C 116.503906 757.566406 117.40625 758.140625 118.324219 758.691406 C 119.242188 759.242188 120.175781 759.769531 121.117188 760.273438 C 122.0625 760.777344 123.019531 761.257812 123.984375 761.71875 C 124.953125 762.175781 125.933594 762.609375 126.921875 763.019531 C 127.910156 763.429688 128.910156 763.8125 129.917969 764.175781 C 130.925781 764.535156 131.941406 764.871094 132.964844 765.179688 C 133.988281 765.492188 135.019531 765.777344 136.058594 766.039062 C 137.097656 766.296875 138.144531 766.53125 139.191406 766.742188 C 140.242188 766.949219 141.296875 767.132812 142.355469 767.292969 C 143.414062 767.449219 144.476562 767.578125 145.542969 767.683594 C 146.609375 767.789062 147.675781 767.867188 148.746094 767.921875 C 149.8125 767.972656 150.882812 768 151.953125 768 L 616.046875 768 C 617.117188 768 618.1875 767.972656 619.253906 767.921875 C 620.324219 767.867188 621.390625 767.789062 622.457031 767.683594 C 623.523438 767.578125 624.585938 767.449219 625.644531 767.292969 C 626.703125 767.136719 627.757812 766.953125 628.808594 766.742188 C 629.859375 766.535156 630.902344 766.300781 631.941406 766.039062 C 632.980469 765.78125 634.011719 765.492188 635.035156 765.183594 C 636.058594 764.871094 637.078125 764.535156 638.085938 764.175781 C 639.09375 763.816406 640.089844 763.429688 641.082031 763.019531 C 642.070312 762.609375 643.046875 762.175781 644.015625 761.71875 C 644.984375 761.261719 645.941406 760.78125 646.882812 760.277344 C 647.828125 759.769531 648.757812 759.242188 649.679688 758.691406 C 650.597656 758.144531 651.5 757.570312 652.390625 756.976562 C 653.28125 756.378906 654.15625 755.765625 655.015625 755.125 C 655.875 754.488281 656.71875 753.832031 657.546875 753.152344 C 658.375 752.472656 659.1875 751.773438 659.980469 751.054688 C 660.773438 750.335938 661.546875 749.597656 662.304688 748.839844 C 663.0625 748.082031 663.800781 747.308594 664.519531 746.515625 C 665.238281 745.722656 665.9375 744.910156 666.617188 744.082031 C 667.296875 743.253906 667.953125 742.410156 668.589844 741.550781 C 669.230469 740.691406 669.847656 739.816406 670.441406 738.925781 C 671.035156 738.035156 671.609375 737.132812 672.160156 736.214844 C 672.710938 735.296875 673.238281 734.363281 673.742188 733.421875 C 674.246094 732.476562 674.726562 731.519531 675.183594 730.550781 C 675.644531 729.585938 676.078125 728.605469 676.488281 727.617188 C 676.898438 726.628906 677.28125 725.628906 677.640625 724.621094 C 678.003906 723.613281 678.339844 722.597656 678.648438 721.574219 C 678.960938 720.546875 679.246094 719.515625 679.507812 718.476562 C 679.765625 717.441406 680 716.394531 680.210938 715.34375 C 680.417969 714.296875 680.601562 713.242188 680.757812 712.179688 C 680.917969 711.121094 681.046875 710.058594 681.152344 708.996094 C 681.257812 707.929688 681.335938 706.863281 681.390625 705.792969 C 681.441406 704.722656 681.46875 703.652344 681.46875 702.582031 L 681.46875 362.027344 C 681.46875 326.496094 653.09375 297.734375 617.792969 296.789062 Z M 437.515625 485.238281 C 437.222656 487.269531 436.089844 491.894531 435.984375 492.25 C 431.988281 506.085938 422.445312 517.449219 410.046875 524.363281 L 431.050781 613.894531 C 431.199219 614.351562 431.324219 614.820312 431.421875 615.296875 C 431.519531 615.769531 431.589844 616.25 431.628906 616.730469 C 431.671875 617.214844 431.683594 617.699219 431.667969 618.183594 C 431.652344 618.667969 431.609375 619.148438 431.539062 619.628906 C 431.464844 620.109375 431.367188 620.582031 431.242188 621.050781 C 431.113281 621.515625 430.960938 621.976562 430.78125 622.425781 C 430.597656 622.875 430.394531 623.3125 430.160156 623.738281 C 429.929688 624.164062 429.675781 624.574219 429.394531 624.96875 C 429.113281 625.367188 428.8125 625.746094 428.488281 626.105469 C 428.164062 626.464844 427.820312 626.804688 427.457031 627.128906 C 427.09375 627.449219 426.714844 627.746094 426.316406 628.023438 C 425.917969 628.296875 425.503906 628.550781 425.078125 628.777344 C 424.648438 629.003906 424.210938 629.207031 423.757812 629.382812 C 423.308594 629.558594 422.847656 629.710938 422.378906 629.832031 C 421.910156 629.957031 421.433594 630.050781 420.953125 630.117188 C 420.476562 630.183594 419.992188 630.222656 419.507812 630.234375 L 349.921875 630.234375 C 349.4375 630.222656 348.957031 630.183594 348.476562 630.117188 C 347.996094 630.050781 347.523438 629.957031 347.054688 629.832031 C 346.585938 629.710938 346.125 629.5625 345.671875 629.382812 C 345.222656 629.207031 344.78125 629.003906 344.355469 628.777344 C 343.925781 628.550781 343.515625 628.296875 343.117188 628.023438 C 342.71875 627.746094 342.335938 627.449219 341.972656 627.128906 C 341.609375 626.808594 341.265625 626.464844 340.941406 626.105469 C 340.617188 625.746094 340.316406 625.367188 340.039062 624.96875 C 339.757812 624.574219 339.503906 624.164062 339.273438 623.738281 C 339.039062 623.3125 338.835938 622.875 338.652344 622.425781 C 338.472656 621.976562 338.320312 621.515625 338.195312 621.046875 C 338.066406 620.582031 337.96875 620.105469 337.894531 619.628906 C 337.824219 619.148438 337.78125 618.667969 337.765625 618.183594 C 337.75 617.699219 337.765625 617.214844 337.804688 616.730469 C 337.847656 616.25 337.917969 615.769531 338.015625 615.296875 C 338.109375 614.820312 338.234375 614.351562 338.386719 613.894531 L 357.960938 524.363281 C 345.5625 517.449219 336.015625 506.085938 332.027344 492.25 C 331.921875 491.894531 330.78125 487.269531 330.492188 485.238281 C 330.125 482.742188 329.9375 480.226562 329.9375 477.703125 C 329.9375 475.929688 330.023438 474.164062 330.195312 472.402344 C 330.367188 470.640625 330.625 468.890625 330.972656 467.152344 C 331.316406 465.414062 331.746094 463.699219 332.257812 462.003906 C 332.773438 460.308594 333.367188 458.640625 334.046875 457.003906 C 334.722656 455.367188 335.480469 453.769531 336.3125 452.207031 C 337.148438 450.644531 338.058594 449.128906 339.039062 447.65625 C 340.023438 446.179688 341.078125 444.761719 342.203125 443.390625 C 343.324219 442.023438 344.511719 440.710938 345.765625 439.457031 C 347.015625 438.207031 348.328125 437.015625 349.695312 435.894531 C 351.066406 434.769531 352.484375 433.714844 353.957031 432.730469 C 355.429688 431.746094 356.949219 430.835938 358.511719 430.003906 C 360.074219 429.167969 361.671875 428.410156 363.308594 427.730469 C 364.945312 427.054688 366.609375 426.457031 368.304688 425.945312 C 370 425.429688 371.714844 425 373.453125 424.652344 C 375.191406 424.308594 376.941406 424.050781 378.703125 423.875 C 380.464844 423.703125 382.230469 423.613281 384.003906 423.613281 C 385.773438 423.613281 387.539062 423.703125 389.304688 423.875 C 391.066406 424.050781 392.816406 424.308594 394.554688 424.652344 C 396.289062 425 398.007812 425.429688 399.703125 425.945312 C 401.394531 426.457031 403.0625 427.054688 404.699219 427.734375 C 406.335938 428.410156 407.933594 429.167969 409.496094 430.003906 C 411.058594 430.835938 412.574219 431.746094 414.046875 432.730469 C 415.519531 433.714844 416.941406 434.769531 418.308594 435.894531 C 419.679688 437.015625 420.988281 438.207031 422.242188 439.457031 C 423.492188 440.710938 424.679688 442.023438 425.804688 443.390625 C 426.925781 444.761719 427.980469 446.183594 428.964844 447.65625 C 429.949219 449.128906 430.859375 450.644531 431.691406 452.207031 C 432.527344 453.769531 433.28125 455.367188 433.960938 457.003906 C 434.636719 458.640625 435.234375 460.308594 435.746094 462.003906 C 436.261719 463.699219 436.6875 465.414062 437.035156 467.152344 C 437.378906 468.890625 437.636719 470.640625 437.8125 472.402344 C 437.984375 474.164062 438.070312 475.929688 438.070312 477.703125 C 438.066406 480.226562 437.882812 482.742188 437.515625 485.238281 Z M 537.96875 296.609375 L 230.027344 296.609375 L 230.027344 233.78125 C 230.027344 148.863281 299.078125 79.789062 384.019531 79.789062 C 468.957031 79.789062 537.96875 148.863281 537.96875 233.78125 Z M 537.96875 296.609375 " fill-opacity="1" fill-rule="nonzero"/></g></svg>