<svg xmlns="http://www.w3.org/2000/svg" xmlns:xlink="http://www.w3.org/1999/xlink" width="1024" zoomAndPan="magnify" viewBox="0 0 768 767.999994" height="1024" preserveAspectRatio="xMidYMid meet" version="1.0"><defs><clipPath id="cbd10dfc6e"><path d="M 0.554688 131.519531 L 767.53125 131.519531 L 767.53125 636.269531 L 0.554688 636.269531 Z M 0.554688 131.519531 " clip-rule="nonzero"/></clipPath></defs><g clip-path="url(#cbd10dfc6e)"><path fill="#ffffff" d="M 64.246094 131.511719 L 703.828125 131.511719 C 720.765625 131.511719 736.867188 138.242188 748.828125 150.203125 C 760.800781 162.175781 767.53125 178.277344 767.53125 195.203125 L 767.53125 572.734375 C 767.53125 589.664062 760.800781 605.761719 748.828125 617.734375 C 736.867188 629.699219 720.765625 636.425781 703.828125 636.425781 L 64.246094 636.425781 C 47.320312 636.425781 31.21875 629.699219 19.253906 617.734375 C 7.285156 605.761719 0.554688 589.664062 0.554688 572.734375 L 0.554688 195.203125 C 0.554688 178.277344 7.285156 162.175781 19.253906 150.203125 C 31.21875 138.242188 47.320312 131.511719 64.246094 131.511719 Z M 703.828125 166.90625 L 64.246094 166.90625 C 56.722656 166.90625 49.59375 169.921875 44.277344 175.234375 C 38.964844 180.550781 35.957031 187.679688 35.957031 195.203125 L 35.957031 572.734375 C 35.957031 580.261719 38.964844 587.386719 44.277344 592.703125 C 49.59375 598.019531 56.722656 601.035156 64.246094 601.035156 L 703.828125 601.035156 C 711.363281 601.035156 718.492188 598.019531 723.804688 592.703125 C 729.121094 587.386719 732.136719 580.261719 732.136719 572.734375 L 732.136719 195.203125 C 732.136719 187.679688 729.121094 180.550781 723.804688 175.234375 C 718.492188 169.921875 711.363281 166.90625 703.828125 166.90625 " fill-opacity="1" fill-rule="evenodd"/></g><path fill="#ffffff" d="M 761.628906 242.359375 L 761.628906 335.511719 L 6.457031 335.511719 L 6.457031 230.566406 L 761.628906 230.566406 L 761.628906 242.359375 " fill-opacity="1" fill-rule="nonzero"/><path fill="#ffffff" d="M 132.6875 407.558594 C 141.242188 407.558594 149.484375 409.09375 157.132812 411.914062 C 157.808594 412.167969 158.472656 412.417969 159.132812 412.6875 C 156.230469 414.914062 153.457031 417.328125 150.84375 419.953125 C 135.3125 435.484375 126.648438 456.386719 126.648438 478.355469 C 126.648438 500.320312 135.3125 521.226562 150.84375 536.753906 C 153.457031 539.378906 156.230469 541.800781 159.132812 544.019531 C 158.472656 544.289062 157.808594 544.542969 157.132812 544.792969 C 149.484375 547.613281 141.242188 549.148438 132.6875 549.148438 C 113.132812 549.148438 95.429688 541.226562 82.621094 528.417969 C 69.804688 515.601562 61.882812 497.90625 61.882812 478.355469 C 61.882812 458.808594 69.804688 441.105469 82.621094 428.289062 C 95.429688 415.480469 113.132812 407.558594 132.6875 407.558594 " fill-opacity="1" fill-rule="nonzero"/><path fill="#ffffff" d="M 159.179688 428.289062 C 171.996094 415.480469 189.699219 407.558594 209.242188 407.558594 C 228.796875 407.558594 246.5 415.480469 259.308594 428.289062 C 272.113281 441.105469 280.046875 458.808594 280.046875 478.355469 C 280.046875 497.90625 272.113281 515.601562 259.308594 528.417969 C 246.5 541.226562 228.796875 549.148438 209.242188 549.148438 C 189.699219 549.148438 171.996094 541.226562 159.179688 528.417969 C 146.371094 515.601562 138.449219 497.898438 138.449219 478.355469 C 138.449219 458.808594 146.371094 441.105469 159.179688 428.289062 " fill-opacity="1" fill-rule="nonzero"/><path fill="#ffffff" d="M 344.984375 460.652344 L 420.582031 460.652344 C 429.78125 460.652344 437.242188 468.585938 437.242188 478.355469 C 437.242188 488.132812 429.78125 496.054688 420.582031 496.054688 L 344.984375 496.054688 C 335.785156 496.054688 328.3125 488.132812 328.3125 478.355469 C 328.3125 468.585938 335.785156 460.652344 344.984375 460.652344 Z M 476.660156 460.652344 L 552.25 460.652344 C 561.449219 460.652344 568.917969 468.585938 568.917969 478.355469 C 568.917969 488.132812 561.449219 496.054688 552.25 496.054688 L 476.660156 496.054688 C 467.449219 496.054688 459.992188 488.132812 459.992188 478.355469 C 459.992188 468.585938 467.449219 460.652344 476.660156 460.652344 Z M 608.328125 460.652344 L 683.917969 460.652344 C 693.125 460.652344 700.585938 468.585938 700.585938 478.355469 C 700.585938 488.132812 693.125 496.054688 683.917969 496.054688 L 608.328125 496.054688 C 599.128906 496.054688 591.660156 488.132812 591.660156 478.355469 C 591.660156 468.585938 599.128906 460.652344 608.328125 460.652344 " fill-opacity="1" fill-rule="evenodd"/></svg>