<svg xmlns="http://www.w3.org/2000/svg" xmlns:xlink="http://www.w3.org/1999/xlink" width="1024" zoomAndPan="magnify" viewBox="0 0 768 767.999994" height="1024" preserveAspectRatio="xMidYMid meet" version="1.0"><defs><clipPath id="3a5fa25314"><path d="M 0 9.078125 L 766 9.078125 L 766 759 L 0 759 Z M 0 9.078125 " clip-rule="nonzero"/></clipPath></defs><g clip-path="url(#3a5fa25314)"><path fill="#ffffff" d="M 73.898438 758.914062 L 525.78125 758.914062 C 566.382812 758.914062 599.3125 725.984375 599.3125 685.382812 L 599.3125 546.476562 L 722.234375 265.789062 C 728.46875 270.902344 733.421875 277.617188 736.460938 285.289062 C 741.09375 297.117188 740.777344 310.066406 735.660156 321.734375 L 681.3125 446.253906 L 704.808594 456.484375 L 759.316406 332.125 C 767.148438 314.222656 767.628906 294.402344 760.4375 276.179688 C 754.84375 261.953125 745.25 250.285156 732.941406 241.972656 L 749.246094 204.886719 C 760.597656 178.992188 748.769531 148.78125 722.871094 137.433594 L 710.246094 131.835938 C 697.777344 126.402344 683.871094 126.082031 671.082031 131.039062 C 658.296875 135.992188 648.382812 145.585938 642.789062 158.210938 L 621.851562 206.007812 L 599.472656 257.15625 L 599.472656 197.375 L 411.015625 9.078125 L 73.578125 9.078125 C 33.140625 9.078125 0.371094 41.84375 0.371094 82.285156 L 0.371094 685.542969 C 0.371094 725.984375 33.296875 758.914062 73.898438 758.914062 Z M 666.128906 168.441406 C 668.84375 162.207031 673.960938 157.414062 680.195312 154.855469 C 686.429688 152.296875 693.460938 152.457031 699.695312 155.175781 L 712.324219 160.769531 C 725.269531 166.363281 731.183594 181.550781 725.429688 194.496094 L 709.605469 230.621094 L 650.144531 204.566406 Z M 640.074219 228.066406 L 686.585938 248.367188 L 699.535156 254.121094 L 570.539062 548.554688 L 511.078125 522.5 Z M 559.03125 571.414062 L 514.113281 596.828125 L 502.285156 546.476562 Z M 418.527344 52.714844 L 555.675781 189.863281 L 466 190.023438 C 466 190.023438 466 190.023438 465.839844 190.023438 C 453.214844 190.023438 441.226562 185.066406 432.273438 176.113281 C 423.320312 167.164062 418.367188 155.175781 418.367188 142.386719 Z M 25.945312 82.285156 C 25.945312 56.070312 47.363281 34.652344 73.578125 34.652344 L 393.109375 34.652344 L 392.953125 142.386719 C 392.953125 162.046875 400.464844 180.429688 414.371094 194.175781 C 428.117188 207.925781 446.5 215.597656 466.160156 215.597656 C 466.160156 215.597656 466.320312 215.597656 466.320312 215.597656 L 574.054688 215.4375 L 574.054688 315.5 L 496.371094 493.089844 L 496.371094 491.96875 L 103.628906 491.96875 L 103.628906 517.546875 L 485.183594 517.546875 L 476.390625 537.847656 C 475.273438 540.402344 474.953125 543.28125 475.589844 545.839844 L 487.738281 597.628906 L 103.628906 597.628906 L 103.628906 623.203125 L 494.613281 623.203125 C 495.890625 625.28125 497.96875 627.039062 500.367188 628.160156 C 501.964844 628.796875 503.722656 629.277344 505.484375 629.277344 C 507.71875 629.277344 509.796875 628.796875 511.714844 627.679688 L 573.738281 592.511719 L 573.738281 685.542969 C 573.738281 712.078125 552.15625 733.496094 525.78125 733.496094 L 73.898438 733.496094 C 47.363281 733.496094 25.945312 711.917969 25.945312 685.542969 Z M 25.945312 82.285156 " fill-opacity="1" fill-rule="nonzero"/></g><path fill="#ffffff" d="M 299.921875 280.652344 L 496.050781 280.652344 L 496.050781 306.230469 L 299.921875 306.230469 Z M 299.921875 280.652344 " fill-opacity="1" fill-rule="nonzero"/><path fill="#ffffff" d="M 103.628906 386.3125 L 495.890625 386.3125 L 495.890625 411.886719 L 103.628906 411.886719 Z M 103.628906 386.3125 " fill-opacity="1" fill-rule="nonzero"/></svg>