<svg xmlns="http://www.w3.org/2000/svg" xmlns:xlink="http://www.w3.org/1999/xlink" width="1024" zoomAndPan="magnify" viewBox="0 0 768 767.999994" height="1024" preserveAspectRatio="xMidYMid meet" version="1.0"><defs><clipPath id="4e03039881"><path d="M 13.289062 15.140625 L 752 15.140625 L 752 753 L 13.289062 753 Z M 13.289062 15.140625 " clip-rule="nonzero"/></clipPath></defs><g clip-path="url(#4e03039881)"><path fill="#0a3871" d="M 675.800781 648.816406 L 675.800781 724.472656 C 675.800781 725.398438 675.757812 726.328125 675.664062 727.25 C 675.574219 728.175781 675.4375 729.09375 675.253906 730.007812 C 675.074219 730.917969 674.847656 731.816406 674.578125 732.707031 C 674.308594 733.597656 673.992188 734.46875 673.636719 735.328125 C 673.28125 736.1875 672.886719 737.023438 672.445312 737.84375 C 672.007812 738.664062 671.53125 739.460938 671.015625 740.234375 C 670.5 741.003906 669.945312 741.75 669.355469 742.46875 C 668.765625 743.1875 668.144531 743.875 667.488281 744.53125 C 666.828125 745.1875 666.140625 745.8125 665.421875 746.402344 C 664.707031 746.992188 663.960938 747.542969 663.1875 748.0625 C 662.414062 748.578125 661.617188 749.054688 660.800781 749.492188 C 659.980469 749.929688 659.140625 750.328125 658.28125 750.683594 C 657.425781 751.039062 656.550781 751.351562 655.660156 751.621094 C 654.773438 751.894531 653.871094 752.117188 652.960938 752.300781 C 652.050781 752.480469 651.132812 752.617188 650.207031 752.710938 C 649.28125 752.800781 648.355469 752.847656 647.425781 752.847656 L 42.128906 752.847656 C 41.199219 752.847656 40.273438 752.800781 39.347656 752.710938 C 38.421875 752.621094 37.503906 752.484375 36.59375 752.304688 C 35.679688 752.121094 34.78125 751.894531 33.890625 751.625 C 33 751.355469 32.128906 751.042969 31.269531 750.6875 C 30.410156 750.332031 29.570312 749.933594 28.75 749.496094 C 27.933594 749.058594 27.136719 748.582031 26.363281 748.066406 C 25.589844 747.550781 24.84375 746.996094 24.125 746.40625 C 23.40625 745.816406 22.71875 745.195312 22.0625 744.535156 C 21.40625 743.878906 20.78125 743.191406 20.191406 742.472656 C 19.601562 741.753906 19.050781 741.007812 18.535156 740.238281 C 18.019531 739.464844 17.539062 738.667969 17.101562 737.847656 C 16.664062 737.027344 16.265625 736.1875 15.910156 735.332031 C 15.554688 734.472656 15.242188 733.597656 14.972656 732.707031 C 14.703125 731.820312 14.476562 730.917969 14.296875 730.007812 C 14.117188 729.09375 13.980469 728.175781 13.886719 727.253906 C 13.796875 726.328125 13.75 725.402344 13.75 724.472656 L 13.75 43.519531 C 13.75 42.589844 13.796875 41.660156 13.886719 40.738281 C 13.980469 39.8125 14.117188 38.894531 14.296875 37.980469 C 14.476562 37.070312 14.703125 36.171875 14.972656 35.28125 C 15.242188 34.390625 15.554688 33.515625 15.910156 32.660156 C 16.265625 31.800781 16.664062 30.960938 17.101562 30.140625 C 17.539062 29.320312 18.019531 28.527344 18.535156 27.753906 C 19.050781 26.980469 19.601562 26.234375 20.191406 25.515625 C 20.78125 24.796875 21.40625 24.109375 22.0625 23.453125 C 22.71875 22.796875 23.40625 22.171875 24.125 21.582031 C 24.84375 20.992188 25.589844 20.441406 26.363281 19.921875 C 27.136719 19.40625 27.933594 18.929688 28.75 18.492188 C 29.570312 18.054688 30.410156 17.65625 31.269531 17.300781 C 32.128906 16.945312 33 16.632812 33.890625 16.363281 C 34.78125 16.09375 35.679688 15.867188 36.59375 15.6875 C 37.503906 15.503906 38.421875 15.367188 39.347656 15.277344 C 40.273438 15.1875 41.199219 15.140625 42.128906 15.140625 L 647.425781 15.140625 C 648.355469 15.140625 649.28125 15.1875 650.207031 15.277344 C 651.132812 15.371094 652.050781 15.507812 652.960938 15.6875 C 653.871094 15.871094 654.773438 16.097656 655.660156 16.367188 C 656.550781 16.636719 657.425781 16.949219 658.28125 17.304688 C 659.140625 17.660156 659.980469 18.058594 660.800781 18.496094 C 661.617188 18.933594 662.414062 19.414062 663.1875 19.929688 C 663.960938 20.445312 664.707031 20.996094 665.421875 21.585938 C 666.140625 22.175781 666.828125 22.800781 667.488281 23.457031 C 668.144531 24.113281 668.765625 24.800781 669.355469 25.519531 C 669.945312 26.238281 670.5 26.984375 671.015625 27.757812 C 671.53125 28.527344 672.007812 29.324219 672.445312 30.144531 C 672.886719 30.964844 673.28125 31.804688 673.636719 32.660156 C 673.992188 33.519531 674.308594 34.394531 674.578125 35.28125 C 674.847656 36.171875 675.074219 37.070312 675.253906 37.984375 C 675.4375 38.894531 675.574219 39.8125 675.664062 40.738281 C 675.757812 41.660156 675.800781 42.589844 675.800781 43.519531 L 675.800781 308.339844 C 675.800781 309.269531 675.757812 310.195312 675.664062 311.121094 C 675.574219 312.046875 675.4375 312.964844 675.257812 313.875 C 675.074219 314.785156 674.851562 315.6875 674.582031 316.574219 C 674.3125 317.464844 674 318.339844 673.640625 319.199219 C 673.285156 320.058594 672.890625 320.894531 672.453125 321.714844 C 672.015625 322.535156 671.535156 323.332031 671.019531 324.105469 C 670.503906 324.878906 669.949219 325.621094 669.359375 326.339844 C 668.773438 327.058594 668.148438 327.746094 667.492188 328.40625 C 666.832031 329.0625 666.144531 329.683594 665.429688 330.273438 C 664.710938 330.863281 663.964844 331.417969 663.191406 331.933594 C 662.417969 332.449219 661.621094 332.925781 660.800781 333.363281 C 659.984375 333.804688 659.144531 334.199219 658.285156 334.554688 C 657.425781 334.910156 656.550781 335.222656 655.664062 335.492188 C 654.773438 335.765625 653.875 335.988281 652.960938 336.171875 C 652.050781 336.351562 651.132812 336.488281 650.207031 336.578125 C 649.28125 336.671875 648.355469 336.714844 647.425781 336.714844 C 646.496094 336.714844 645.570312 336.671875 644.644531 336.578125 C 643.71875 336.488281 642.800781 336.351562 641.890625 336.171875 C 640.976562 335.988281 640.078125 335.765625 639.1875 335.492188 C 638.296875 335.222656 637.425781 334.910156 636.566406 334.554688 C 635.707031 334.199219 634.867188 333.804688 634.046875 333.363281 C 633.230469 332.925781 632.433594 332.449219 631.660156 331.933594 C 630.886719 331.417969 630.140625 330.863281 629.421875 330.273438 C 628.703125 329.683594 628.015625 329.0625 627.359375 328.40625 C 626.703125 327.746094 626.078125 327.058594 625.488281 326.339844 C 624.898438 325.621094 624.347656 324.875 623.832031 324.105469 C 623.3125 323.332031 622.835938 322.535156 622.398438 321.714844 C 621.960938 320.894531 621.5625 320.058594 621.207031 319.199219 C 620.851562 318.339844 620.539062 317.464844 620.269531 316.574219 C 620 315.6875 619.773438 314.785156 619.59375 313.875 C 619.414062 312.964844 619.277344 312.046875 619.183594 311.121094 C 619.09375 310.195312 619.046875 309.269531 619.046875 308.339844 L 619.046875 71.894531 L 70.503906 71.894531 L 70.503906 696.09375 L 619.046875 696.09375 L 619.046875 648.816406 C 619.046875 647.886719 619.09375 646.957031 619.183594 646.035156 C 619.277344 645.109375 619.414062 644.191406 619.59375 643.277344 C 619.773438 642.367188 620 641.46875 620.269531 640.578125 C 620.539062 639.6875 620.851562 638.8125 621.207031 637.957031 C 621.5625 637.097656 621.960938 636.257812 622.398438 635.4375 C 622.835938 634.617188 623.3125 633.824219 623.832031 633.050781 C 624.347656 632.277344 624.898438 631.53125 625.488281 630.8125 C 626.078125 630.09375 626.703125 629.40625 627.359375 628.75 C 628.015625 628.09375 628.703125 627.46875 629.421875 626.878906 C 630.140625 626.289062 630.886719 625.738281 631.660156 625.21875 C 632.433594 624.703125 633.230469 624.226562 634.046875 623.789062 C 634.867188 623.351562 635.707031 622.953125 636.566406 622.597656 C 637.425781 622.242188 638.296875 621.929688 639.1875 621.660156 C 640.078125 621.390625 640.976562 621.164062 641.890625 620.984375 C 642.800781 620.800781 643.71875 620.664062 644.644531 620.574219 C 645.570312 620.484375 646.496094 620.4375 647.425781 620.4375 C 648.355469 620.4375 649.28125 620.484375 650.207031 620.574219 C 651.132812 620.664062 652.050781 620.800781 652.960938 620.984375 C 653.875 621.164062 654.773438 621.390625 655.664062 621.660156 C 656.550781 621.929688 657.425781 622.242188 658.285156 622.597656 C 659.144531 622.953125 659.984375 623.351562 660.800781 623.789062 C 661.621094 624.226562 662.417969 624.703125 663.191406 625.21875 C 663.964844 625.738281 664.710938 626.289062 665.429688 626.878906 C 666.144531 627.46875 666.832031 628.09375 667.492188 628.75 C 668.148438 629.40625 668.773438 630.09375 669.359375 630.8125 C 669.949219 631.53125 670.503906 632.277344 671.019531 633.050781 C 671.535156 633.824219 672.015625 634.617188 672.453125 635.4375 C 672.890625 636.257812 673.285156 637.097656 673.640625 637.957031 C 674 638.8125 674.3125 639.6875 674.582031 640.578125 C 674.851562 641.46875 675.074219 642.367188 675.257812 643.277344 C 675.4375 644.191406 675.574219 645.109375 675.664062 646.035156 C 675.757812 646.957031 675.800781 647.886719 675.800781 648.816406 Z M 743.148438 373.40625 C 742.488281 372.746094 741.800781 372.125 741.085938 371.535156 C 740.367188 370.945312 739.621094 370.390625 738.847656 369.875 C 738.078125 369.359375 737.28125 368.882812 736.460938 368.445312 C 735.640625 368.007812 734.804688 367.609375 733.945312 367.253906 C 733.085938 366.898438 732.214844 366.585938 731.324219 366.316406 C 730.433594 366.046875 729.535156 365.820312 728.625 365.640625 C 727.710938 365.457031 726.792969 365.320312 725.871094 365.230469 C 724.945312 365.140625 724.019531 365.09375 723.089844 365.09375 C 722.160156 365.09375 721.234375 365.140625 720.308594 365.230469 C 719.382812 365.320312 718.464844 365.457031 717.554688 365.640625 C 716.644531 365.820312 715.746094 366.046875 714.855469 366.316406 C 713.964844 366.585938 713.09375 366.898438 712.234375 367.253906 C 711.375 367.609375 710.535156 368.007812 709.71875 368.445312 C 708.898438 368.882812 708.101562 369.359375 707.332031 369.875 C 706.558594 370.390625 705.8125 370.945312 705.09375 371.535156 C 704.375 372.125 703.6875 372.746094 703.03125 373.40625 L 515.015625 561.40625 L 440.492188 486.878906 C 439.839844 486.203125 439.152344 485.554688 438.4375 484.945312 C 437.722656 484.335938 436.976562 483.761719 436.203125 483.222656 C 435.429688 482.6875 434.632812 482.191406 433.808594 481.734375 C 432.984375 481.277344 432.140625 480.859375 431.277344 480.488281 C 430.414062 480.113281 429.53125 479.785156 428.636719 479.5 C 427.738281 479.214844 426.828125 478.972656 425.910156 478.777344 C 424.988281 478.582031 424.058594 478.433594 423.125 478.332031 C 422.1875 478.230469 421.25 478.171875 420.308594 478.164062 C 419.367188 478.152344 418.425781 478.191406 417.488281 478.277344 C 416.550781 478.359375 415.621094 478.488281 414.695312 478.667969 C 413.769531 478.84375 412.859375 479.066406 411.957031 479.332031 C 411.054688 479.601562 410.164062 479.914062 409.292969 480.269531 C 408.421875 480.625 407.570312 481.023438 406.738281 481.464844 C 405.90625 481.90625 405.097656 482.386719 404.316406 482.90625 C 403.53125 483.429688 402.777344 483.988281 402.046875 484.585938 C 401.320312 485.179688 400.621094 485.8125 399.957031 486.476562 C 399.289062 487.144531 398.660156 487.839844 398.0625 488.570312 C 397.46875 489.296875 396.910156 490.054688 396.386719 490.839844 C 395.867188 491.621094 395.386719 492.429688 394.945312 493.261719 C 394.507812 494.09375 394.109375 494.945312 393.753906 495.816406 C 393.394531 496.691406 393.085938 497.578125 392.816406 498.480469 C 392.550781 499.382812 392.328125 500.296875 392.152344 501.21875 C 391.976562 502.144531 391.84375 503.078125 391.761719 504.015625 C 391.675781 504.953125 391.640625 505.890625 391.652344 506.832031 C 391.660156 507.773438 391.714844 508.710938 391.820312 509.648438 C 391.921875 510.585938 392.074219 511.511719 392.269531 512.433594 C 392.464844 513.355469 392.703125 514.261719 392.988281 515.160156 C 393.277344 516.058594 393.605469 516.9375 393.980469 517.800781 C 394.351562 518.664062 394.769531 519.507812 395.226562 520.332031 C 395.683594 521.152344 396.179688 521.953125 396.71875 522.726562 C 397.253906 523.5 397.828125 524.242188 398.441406 524.960938 C 399.050781 525.675781 399.695312 526.359375 400.375 527.011719 L 494.949219 621.585938 C 495.605469 622.242188 496.292969 622.867188 497.011719 623.457031 C 497.730469 624.046875 498.476562 624.597656 499.25 625.113281 C 500.023438 625.632812 500.820312 626.109375 501.636719 626.546875 C 502.457031 626.984375 503.296875 627.382812 504.15625 627.738281 C 505.015625 628.09375 505.886719 628.40625 506.777344 628.675781 C 507.667969 628.945312 508.566406 629.171875 509.480469 629.351562 C 510.390625 629.53125 511.308594 629.667969 512.234375 629.761719 C 513.160156 629.851562 514.085938 629.898438 515.015625 629.898438 C 515.945312 629.898438 516.871094 629.851562 517.796875 629.761719 C 518.722656 629.667969 519.640625 629.53125 520.550781 629.351562 C 521.464844 629.171875 522.363281 628.945312 523.253906 628.675781 C 524.140625 628.40625 525.015625 628.09375 525.875 627.738281 C 526.734375 627.382812 527.574219 626.984375 528.390625 626.546875 C 529.210938 626.109375 530.007812 625.632812 530.78125 625.113281 C 531.554688 624.597656 532.300781 624.046875 533.015625 623.457031 C 533.734375 622.867188 534.421875 622.242188 535.082031 621.585938 L 743.148438 413.503906 C 743.804688 412.847656 744.425781 412.160156 745.015625 411.441406 C 745.605469 410.722656 746.15625 409.976562 746.671875 409.203125 C 747.1875 408.429688 747.664062 407.636719 748.101562 406.816406 C 748.539062 405.996094 748.9375 405.15625 749.292969 404.300781 C 749.648438 403.441406 749.960938 402.566406 750.230469 401.679688 C 750.5 400.789062 750.722656 399.890625 750.90625 398.980469 C 751.085938 398.066406 751.222656 397.148438 751.3125 396.226562 C 751.40625 395.300781 751.449219 394.375 751.449219 393.445312 C 751.449219 392.515625 751.40625 391.589844 751.3125 390.664062 C 751.222656 389.742188 751.085938 388.824219 750.90625 387.914062 C 750.722656 387 750.5 386.101562 750.230469 385.210938 C 749.960938 384.324219 749.648438 383.449219 749.292969 382.589844 C 748.9375 381.734375 748.539062 380.894531 748.101562 380.074219 C 747.664062 379.253906 747.1875 378.460938 746.671875 377.6875 C 746.15625 376.914062 745.605469 376.167969 745.015625 375.449219 C 744.425781 374.734375 743.804688 374.046875 743.148438 373.386719 Z M 496.097656 166.46875 L 306.949219 166.46875 C 306.003906 166.445312 305.0625 166.472656 304.121094 166.542969 C 303.183594 166.613281 302.246094 166.730469 301.316406 166.894531 C 300.386719 167.0625 299.46875 167.269531 298.5625 167.527344 C 297.652344 167.785156 296.761719 168.085938 295.882812 168.429688 C 295.003906 168.773438 294.144531 169.164062 293.304688 169.59375 C 292.464844 170.027344 291.648438 170.496094 290.859375 171.007812 C 290.066406 171.523438 289.300781 172.074219 288.5625 172.660156 C 287.824219 173.25 287.121094 173.875 286.445312 174.53125 C 285.769531 175.191406 285.128906 175.882812 284.523438 176.605469 C 283.914062 177.328125 283.347656 178.082031 282.816406 178.859375 C 282.285156 179.640625 281.792969 180.445312 281.34375 181.273438 C 280.890625 182.101562 280.480469 182.953125 280.117188 183.820312 C 279.75 184.691406 279.425781 185.578125 279.148438 186.480469 C 278.871094 187.378906 278.640625 188.292969 278.453125 189.21875 C 278.265625 190.144531 278.125 191.074219 278.03125 192.015625 C 277.9375 192.953125 277.890625 193.894531 277.890625 194.839844 C 277.890625 195.78125 277.9375 196.722656 278.03125 197.664062 C 278.125 198.601562 278.265625 199.53125 278.453125 200.457031 C 278.640625 201.382812 278.871094 202.296875 279.148438 203.199219 C 279.425781 204.101562 279.75 204.984375 280.117188 205.855469 C 280.480469 206.726562 280.890625 207.574219 281.34375 208.402344 C 281.792969 209.230469 282.285156 210.035156 282.816406 210.816406 C 283.347656 211.59375 283.914062 212.347656 284.523438 213.070312 C 285.128906 213.792969 285.769531 214.484375 286.445312 215.144531 C 287.121094 215.804688 287.824219 216.425781 288.5625 217.015625 C 289.300781 217.605469 290.066406 218.15625 290.859375 218.667969 C 291.648438 219.179688 292.464844 219.652344 293.304688 220.082031 C 294.144531 220.511719 295.003906 220.902344 295.882812 221.246094 C 296.761719 221.59375 297.652344 221.894531 298.5625 222.148438 C 299.46875 222.40625 300.386719 222.617188 301.316406 222.78125 C 302.246094 222.945312 303.183594 223.0625 304.121094 223.132812 C 305.0625 223.207031 306.003906 223.230469 306.949219 223.207031 L 496.097656 223.207031 C 497.039062 223.230469 497.984375 223.207031 498.921875 223.132812 C 499.863281 223.0625 500.800781 222.945312 501.730469 222.78125 C 502.65625 222.617188 503.578125 222.40625 504.484375 222.148438 C 505.394531 221.894531 506.285156 221.59375 507.164062 221.246094 C 508.042969 220.902344 508.902344 220.511719 509.742188 220.082031 C 510.582031 219.652344 511.394531 219.179688 512.1875 218.667969 C 512.980469 218.15625 513.746094 217.605469 514.484375 217.015625 C 515.21875 216.425781 515.925781 215.804688 516.601562 215.144531 C 517.277344 214.484375 517.917969 213.792969 518.523438 213.070312 C 519.128906 212.347656 519.699219 211.597656 520.230469 210.816406 C 520.761719 210.035156 521.253906 209.230469 521.703125 208.402344 C 522.15625 207.574219 522.5625 206.726562 522.929688 205.855469 C 523.296875 204.984375 523.617188 204.101562 523.898438 203.199219 C 524.175781 202.296875 524.40625 201.382812 524.59375 200.457031 C 524.78125 199.53125 524.921875 198.601562 525.015625 197.664062 C 525.109375 196.722656 525.15625 195.78125 525.15625 194.839844 C 525.15625 193.894531 525.109375 192.953125 525.015625 192.015625 C 524.921875 191.074219 524.78125 190.144531 524.59375 189.21875 C 524.40625 188.292969 524.175781 187.378906 523.898438 186.480469 C 523.617188 185.578125 523.296875 184.691406 522.929688 183.820312 C 522.5625 182.953125 522.15625 182.101562 521.703125 181.273438 C 521.253906 180.445312 520.761719 179.640625 520.230469 178.859375 C 519.699219 178.082031 519.128906 177.328125 518.523438 176.605469 C 517.917969 175.882812 517.277344 175.191406 516.601562 174.53125 C 515.925781 173.875 515.21875 173.25 514.484375 172.660156 C 513.746094 172.074219 512.980469 171.523438 512.1875 171.007812 C 511.394531 170.496094 510.582031 170.027344 509.742188 169.59375 C 508.902344 169.164062 508.042969 168.773438 507.164062 168.429688 C 506.285156 168.085938 505.394531 167.785156 504.484375 167.527344 C 503.578125 167.269531 502.65625 167.0625 501.730469 166.894531 C 500.800781 166.730469 499.863281 166.613281 498.921875 166.542969 C 497.984375 166.472656 497.039062 166.445312 496.097656 166.46875 Z M 193.457031 223.207031 C 194.386719 223.207031 195.3125 223.160156 196.238281 223.070312 C 197.164062 222.980469 198.082031 222.84375 198.992188 222.660156 C 199.90625 222.480469 200.804688 222.253906 201.695312 221.984375 C 202.585938 221.714844 203.457031 221.402344 204.316406 221.046875 C 205.175781 220.691406 206.015625 220.292969 206.835938 219.855469 C 207.65625 219.417969 208.453125 218.941406 209.222656 218.421875 C 209.996094 217.90625 210.742188 217.355469 211.460938 216.765625 C 212.179688 216.175781 212.867188 215.550781 213.523438 214.894531 C 214.183594 214.238281 214.804688 213.546875 215.394531 212.828125 C 215.984375 212.113281 216.539062 211.367188 217.054688 210.59375 C 217.570312 209.820312 218.046875 209.023438 218.484375 208.203125 C 218.921875 207.382812 219.320312 206.542969 219.675781 205.6875 C 220.03125 204.828125 220.34375 203.953125 220.613281 203.0625 C 220.882812 202.175781 221.109375 201.273438 221.289062 200.363281 C 221.472656 199.449219 221.605469 198.53125 221.699219 197.605469 C 221.789062 196.679688 221.835938 195.753906 221.835938 194.824219 C 221.832031 193.894531 221.789062 192.96875 221.695312 192.042969 C 221.605469 191.117188 221.46875 190.199219 221.289062 189.289062 C 221.105469 188.375 220.878906 187.476562 220.609375 186.585938 C 220.339844 185.695312 220.027344 184.824219 219.671875 183.964844 C 219.316406 183.105469 218.917969 182.265625 218.480469 181.445312 C 218.042969 180.628906 217.5625 179.832031 217.046875 179.058594 C 216.53125 178.285156 215.976562 177.539062 215.386719 176.820312 C 214.796875 176.105469 214.175781 175.414062 213.515625 174.757812 C 212.859375 174.101562 212.171875 173.476562 211.453125 172.890625 C 210.734375 172.300781 209.988281 171.746094 209.214844 171.230469 C 208.441406 170.714844 207.644531 170.238281 206.824219 169.800781 C 206.003906 169.363281 205.167969 168.964844 204.308594 168.609375 C 203.449219 168.253906 202.574219 167.941406 201.683594 167.671875 C 200.796875 167.402344 199.894531 167.175781 198.984375 166.996094 C 198.070312 166.816406 197.152344 166.679688 196.226562 166.589844 C 195.304688 166.496094 194.375 166.453125 193.445312 166.453125 C 192.515625 166.453125 191.589844 166.5 190.664062 166.589844 C 189.738281 166.683594 188.820312 166.820312 187.910156 167 C 186.996094 167.183594 186.097656 167.410156 185.207031 167.679688 C 184.320312 167.949219 183.445312 168.261719 182.585938 168.617188 C 181.726562 168.972656 180.886719 169.371094 180.070312 169.808594 C 179.25 170.25 178.453125 170.726562 177.679688 171.242188 C 176.90625 171.757812 176.164062 172.3125 175.445312 172.902344 C 174.726562 173.492188 174.039062 174.117188 173.382812 174.773438 C 172.726562 175.433594 172.101562 176.121094 171.511719 176.839844 C 170.921875 177.558594 170.371094 178.304688 169.855469 179.078125 C 169.339844 179.851562 168.863281 180.644531 168.421875 181.464844 C 167.984375 182.285156 167.589844 183.125 167.234375 183.984375 C 166.878906 184.84375 166.566406 185.71875 166.296875 186.609375 C 166.027344 187.496094 165.804688 188.398438 165.621094 189.308594 C 165.441406 190.222656 165.304688 191.140625 165.214844 192.066406 C 165.125 192.988281 165.078125 193.917969 165.078125 194.847656 C 165.082031 195.777344 165.125 196.703125 165.21875 197.625 C 165.308594 198.550781 165.445312 199.46875 165.628906 200.378906 C 165.808594 201.292969 166.035156 202.191406 166.304688 203.082031 C 166.574219 203.96875 166.890625 204.84375 167.246094 205.699219 C 167.601562 206.558594 167.996094 207.398438 168.4375 208.21875 C 168.875 209.035156 169.351562 209.832031 169.867188 210.605469 C 170.382812 211.375 170.9375 212.121094 171.527344 212.839844 C 172.117188 213.558594 172.738281 214.246094 173.398438 214.902344 C 174.054688 215.558594 174.742188 216.179688 175.460938 216.769531 C 176.179688 217.359375 176.925781 217.914062 177.695312 218.429688 C 178.46875 218.945312 179.265625 219.421875 180.085938 219.859375 C 180.902344 220.296875 181.742188 220.695312 182.601562 221.050781 C 183.460938 221.402344 184.332031 221.714844 185.222656 221.984375 C 186.113281 222.257812 187.011719 222.480469 187.921875 222.664062 C 188.835938 222.84375 189.753906 222.980469 190.675781 223.070312 C 191.601562 223.160156 192.527344 223.207031 193.457031 223.207031 Z M 193.457031 374.535156 C 194.386719 374.535156 195.3125 374.488281 196.238281 374.398438 C 197.164062 374.308594 198.082031 374.171875 198.992188 373.992188 C 199.90625 373.808594 200.804688 373.582031 201.695312 373.3125 C 202.582031 373.042969 203.457031 372.730469 204.316406 372.375 C 205.175781 372.019531 206.015625 371.621094 206.832031 371.183594 C 207.652344 370.746094 208.449219 370.269531 209.222656 369.753906 C 209.996094 369.238281 210.742188 368.683594 211.460938 368.09375 C 212.175781 367.503906 212.867188 366.882812 213.523438 366.222656 C 214.179688 365.566406 214.804688 364.878906 215.394531 364.160156 C 215.980469 363.441406 216.535156 362.695312 217.050781 361.925781 C 217.566406 361.152344 218.046875 360.355469 218.484375 359.535156 C 218.921875 358.714844 219.316406 357.875 219.675781 357.019531 C 220.03125 356.160156 220.34375 355.285156 220.613281 354.394531 C 220.882812 353.507812 221.109375 352.605469 221.289062 351.695312 C 221.46875 350.78125 221.605469 349.863281 221.699219 348.941406 C 221.789062 348.015625 221.835938 347.085938 221.835938 346.160156 C 221.835938 345.230469 221.789062 344.300781 221.699219 343.378906 C 221.605469 342.453125 221.46875 341.535156 221.289062 340.621094 C 221.109375 339.710938 220.882812 338.808594 220.613281 337.921875 C 220.34375 337.03125 220.03125 336.15625 219.675781 335.300781 C 219.316406 334.441406 218.921875 333.601562 218.484375 332.78125 C 218.046875 331.960938 217.566406 331.164062 217.050781 330.394531 C 216.535156 329.621094 215.980469 328.875 215.394531 328.15625 C 214.804688 327.4375 214.179688 326.75 213.523438 326.09375 C 212.867188 325.4375 212.175781 324.8125 211.460938 324.222656 C 210.742188 323.632812 209.996094 323.082031 209.222656 322.5625 C 208.449219 322.046875 207.652344 321.570312 206.832031 321.132812 C 206.015625 320.695312 205.175781 320.296875 204.316406 319.941406 C 203.457031 319.585938 202.582031 319.273438 201.695312 319.003906 C 200.804688 318.734375 199.90625 318.507812 198.992188 318.328125 C 198.082031 318.144531 197.164062 318.007812 196.238281 317.917969 C 195.3125 317.828125 194.386719 317.78125 193.457031 317.78125 C 192.527344 317.78125 191.601562 317.828125 190.675781 317.917969 C 189.75 318.007812 188.832031 318.144531 187.921875 318.328125 C 187.007812 318.507812 186.109375 318.734375 185.21875 319.003906 C 184.332031 319.273438 183.457031 319.585938 182.597656 319.941406 C 181.738281 320.296875 180.898438 320.695312 180.082031 321.132812 C 179.261719 321.570312 178.464844 322.046875 177.691406 322.5625 C 176.917969 323.082031 176.171875 323.632812 175.453125 324.222656 C 174.734375 324.8125 174.046875 325.4375 173.390625 326.09375 C 172.734375 326.75 172.109375 327.4375 171.519531 328.15625 C 170.929688 328.875 170.378906 329.621094 169.863281 330.394531 C 169.347656 331.164062 168.867188 331.960938 168.429688 332.78125 C 167.992188 333.601562 167.59375 334.441406 167.238281 335.300781 C 166.882812 336.15625 166.570312 337.03125 166.300781 337.921875 C 166.03125 338.808594 165.804688 339.710938 165.625 340.621094 C 165.445312 341.535156 165.308594 342.453125 165.214844 343.378906 C 165.125 344.300781 165.078125 345.230469 165.078125 346.160156 C 165.078125 347.085938 165.125 348.015625 165.214844 348.941406 C 165.308594 349.863281 165.445312 350.78125 165.625 351.695312 C 165.804688 352.605469 166.03125 353.507812 166.300781 354.394531 C 166.570312 355.285156 166.882812 356.160156 167.238281 357.019531 C 167.59375 357.875 167.992188 358.714844 168.429688 359.535156 C 168.867188 360.355469 169.347656 361.152344 169.863281 361.925781 C 170.378906 362.695312 170.929688 363.441406 171.519531 364.160156 C 172.109375 364.878906 172.734375 365.566406 173.390625 366.222656 C 174.046875 366.882812 174.734375 367.503906 175.453125 368.09375 C 176.171875 368.683594 176.917969 369.238281 177.691406 369.753906 C 178.464844 370.269531 179.261719 370.746094 180.082031 371.183594 C 180.898438 371.621094 181.738281 372.019531 182.597656 372.375 C 183.457031 372.730469 184.332031 373.042969 185.21875 373.3125 C 186.109375 373.582031 187.007812 373.808594 187.921875 373.992188 C 188.832031 374.171875 189.75 374.308594 190.675781 374.398438 C 191.601562 374.488281 192.527344 374.535156 193.457031 374.535156 Z M 524.472656 346.160156 C 524.472656 345.230469 524.429688 344.300781 524.335938 343.378906 C 524.246094 342.453125 524.109375 341.535156 523.925781 340.625 C 523.746094 339.714844 523.519531 338.8125 523.25 337.925781 C 522.976562 337.035156 522.664062 336.164062 522.308594 335.304688 C 521.953125 334.445312 521.554688 333.605469 521.117188 332.789062 C 520.679688 331.96875 520.203125 331.171875 519.6875 330.402344 C 519.167969 329.628906 518.617188 328.882812 518.027344 328.164062 C 517.4375 327.449219 516.8125 326.761719 516.15625 326.101562 C 515.5 325.445312 514.8125 324.824219 514.09375 324.234375 C 513.375 323.644531 512.628906 323.09375 511.859375 322.578125 C 511.085938 322.0625 510.289062 321.582031 509.46875 321.144531 C 508.648438 320.707031 507.8125 320.3125 506.953125 319.957031 C 506.09375 319.601562 505.222656 319.289062 504.332031 319.019531 C 503.441406 318.75 502.542969 318.523438 501.632812 318.34375 C 500.71875 318.160156 499.800781 318.023438 498.878906 317.933594 C 497.953125 317.84375 497.027344 317.796875 496.097656 317.796875 L 306.949219 317.796875 C 306.003906 317.773438 305.0625 317.800781 304.121094 317.871094 C 303.183594 317.941406 302.246094 318.058594 301.316406 318.226562 C 300.386719 318.390625 299.46875 318.601562 298.5625 318.855469 C 297.652344 319.113281 296.761719 319.414062 295.882812 319.757812 C 295.003906 320.105469 294.144531 320.492188 293.304688 320.921875 C 292.464844 321.355469 291.652344 321.824219 290.859375 322.339844 C 290.066406 322.851562 289.300781 323.402344 288.5625 323.988281 C 287.824219 324.578125 287.121094 325.203125 286.445312 325.863281 C 285.769531 326.519531 285.128906 327.210938 284.523438 327.933594 C 283.914062 328.65625 283.347656 329.410156 282.816406 330.1875 C 282.285156 330.96875 281.792969 331.773438 281.34375 332.601562 C 280.890625 333.429688 280.484375 334.28125 280.117188 335.148438 C 279.75 336.019531 279.425781 336.90625 279.148438 337.808594 C 278.871094 338.707031 278.640625 339.621094 278.453125 340.546875 C 278.265625 341.472656 278.125 342.402344 278.03125 343.34375 C 277.9375 344.28125 277.890625 345.222656 277.890625 346.167969 C 277.890625 347.109375 277.9375 348.050781 278.03125 348.992188 C 278.125 349.929688 278.265625 350.863281 278.453125 351.785156 C 278.640625 352.710938 278.871094 353.625 279.148438 354.527344 C 279.425781 355.429688 279.75 356.3125 280.117188 357.183594 C 280.484375 358.054688 280.890625 358.902344 281.34375 359.730469 C 281.792969 360.558594 282.285156 361.363281 282.816406 362.144531 C 283.347656 362.925781 283.914062 363.675781 284.523438 364.398438 C 285.128906 365.121094 285.769531 365.8125 286.445312 366.472656 C 287.121094 367.132812 287.824219 367.753906 288.5625 368.34375 C 289.300781 368.933594 290.066406 369.484375 290.859375 369.996094 C 291.652344 370.507812 292.464844 370.980469 293.304688 371.410156 C 294.144531 371.839844 295.003906 372.230469 295.882812 372.574219 C 296.761719 372.921875 297.652344 373.222656 298.5625 373.476562 C 299.46875 373.734375 300.386719 373.945312 301.316406 374.109375 C 302.246094 374.273438 303.183594 374.390625 304.121094 374.460938 C 305.0625 374.535156 306.003906 374.558594 306.949219 374.535156 L 496.097656 374.535156 C 497.027344 374.535156 497.953125 374.488281 498.878906 374.398438 C 499.804688 374.308594 500.722656 374.171875 501.632812 373.992188 C 502.542969 373.808594 503.445312 373.582031 504.335938 373.3125 C 505.222656 373.042969 506.097656 372.730469 506.957031 372.375 C 507.816406 372.019531 508.65625 371.621094 509.472656 371.183594 C 510.292969 370.746094 511.089844 370.269531 511.863281 369.753906 C 512.636719 369.238281 513.382812 368.683594 514.097656 368.09375 C 514.816406 367.503906 515.503906 366.882812 516.164062 366.222656 C 516.820312 365.566406 517.441406 364.878906 518.03125 364.160156 C 518.621094 363.441406 519.175781 362.695312 519.691406 361.925781 C 520.207031 361.152344 520.683594 360.355469 521.125 359.535156 C 521.5625 358.714844 521.957031 357.875 522.3125 357.019531 C 522.667969 356.160156 522.984375 355.285156 523.253906 354.394531 C 523.523438 353.507812 523.746094 352.605469 523.929688 351.695312 C 524.109375 350.78125 524.246094 349.863281 524.335938 348.941406 C 524.429688 348.015625 524.472656 347.085938 524.472656 346.160156 Z M 193.457031 525.863281 L 306.949219 525.863281 C 307.878906 525.863281 308.804688 525.820312 309.730469 525.726562 C 310.65625 525.636719 311.574219 525.5 312.484375 525.320312 C 313.398438 525.136719 314.296875 524.910156 315.1875 524.640625 C 316.074219 524.371094 316.949219 524.058594 317.808594 523.703125 C 318.667969 523.347656 319.507812 522.953125 320.324219 522.511719 C 321.144531 522.074219 321.941406 521.597656 322.714844 521.082031 C 323.488281 520.566406 324.234375 520.011719 324.953125 519.421875 C 325.667969 518.832031 326.359375 518.210938 327.015625 517.550781 C 327.671875 516.894531 328.296875 516.207031 328.886719 515.488281 C 329.472656 514.769531 330.027344 514.023438 330.542969 513.253906 C 331.058594 512.480469 331.539062 511.683594 331.976562 510.863281 C 332.414062 510.042969 332.808594 509.203125 333.167969 508.347656 C 333.523438 507.488281 333.835938 506.613281 334.105469 505.722656 C 334.375 504.835938 334.601562 503.933594 334.78125 503.023438 C 334.960938 502.113281 335.097656 501.191406 335.191406 500.269531 C 335.28125 499.34375 335.328125 498.417969 335.328125 497.488281 C 335.328125 496.558594 335.28125 495.628906 335.191406 494.707031 C 335.097656 493.78125 334.960938 492.863281 334.78125 491.949219 C 334.601562 491.039062 334.375 490.140625 334.105469 489.25 C 333.835938 488.359375 333.523438 487.484375 333.167969 486.628906 C 332.808594 485.769531 332.414062 484.929688 331.976562 484.109375 C 331.539062 483.289062 331.058594 482.492188 330.542969 481.722656 C 330.027344 480.949219 329.472656 480.203125 328.886719 479.484375 C 328.296875 478.765625 327.671875 478.078125 327.015625 477.421875 C 326.359375 476.765625 325.667969 476.140625 324.953125 475.550781 C 324.234375 474.960938 323.488281 474.410156 322.714844 473.890625 C 321.941406 473.375 321.144531 472.898438 320.324219 472.460938 C 319.507812 472.023438 318.667969 471.625 317.808594 471.269531 C 316.949219 470.914062 316.074219 470.601562 315.1875 470.332031 C 314.296875 470.0625 313.398438 469.835938 312.484375 469.65625 C 311.574219 469.472656 310.65625 469.335938 309.730469 469.246094 C 308.804688 469.15625 307.878906 469.109375 306.949219 469.109375 L 193.457031 469.109375 C 192.527344 469.109375 191.601562 469.15625 190.675781 469.246094 C 189.75 469.335938 188.832031 469.472656 187.921875 469.65625 C 187.007812 469.835938 186.109375 470.0625 185.21875 470.332031 C 184.332031 470.601562 183.457031 470.914062 182.597656 471.269531 C 181.738281 471.625 180.898438 472.023438 180.082031 472.460938 C 179.261719 472.898438 178.464844 473.375 177.691406 473.890625 C 176.917969 474.410156 176.171875 474.960938 175.453125 475.550781 C 174.734375 476.140625 174.046875 476.765625 173.390625 477.421875 C 172.734375 478.078125 172.109375 478.765625 171.519531 479.484375 C 170.929688 480.203125 170.378906 480.949219 169.863281 481.722656 C 169.347656 482.492188 168.867188 483.289062 168.429688 484.109375 C 167.992188 484.929688 167.59375 485.769531 167.238281 486.628906 C 166.882812 487.484375 166.570312 488.359375 166.300781 489.25 C 166.03125 490.140625 165.804688 491.039062 165.625 491.949219 C 165.445312 492.863281 165.308594 493.78125 165.214844 494.707031 C 165.125 495.628906 165.078125 496.558594 165.078125 497.488281 C 165.078125 498.417969 165.125 499.34375 165.214844 500.269531 C 165.308594 501.191406 165.445312 502.113281 165.625 503.023438 C 165.804688 503.933594 166.03125 504.835938 166.300781 505.722656 C 166.570312 506.613281 166.882812 507.488281 167.238281 508.347656 C 167.59375 509.203125 167.992188 510.042969 168.429688 510.863281 C 168.867188 511.683594 169.347656 512.480469 169.863281 513.253906 C 170.378906 514.023438 170.929688 514.769531 171.519531 515.488281 C 172.109375 516.207031 172.734375 516.894531 173.390625 517.550781 C 174.046875 518.210938 174.734375 518.832031 175.453125 519.421875 C 176.171875 520.011719 176.917969 520.566406 177.691406 521.082031 C 178.464844 521.597656 179.261719 522.074219 180.082031 522.511719 C 180.898438 522.953125 181.738281 523.347656 182.597656 523.703125 C 183.457031 524.058594 184.332031 524.371094 185.21875 524.640625 C 186.109375 524.910156 187.007812 525.136719 187.921875 525.320312 C 188.832031 525.5 189.75 525.636719 190.675781 525.726562 C 191.601562 525.820312 192.527344 525.863281 193.457031 525.863281 Z M 193.457031 525.863281 " fill-opacity="1" fill-rule="nonzero"/></g></svg>