<svg xmlns="http://www.w3.org/2000/svg" xmlns:xlink="http://www.w3.org/1999/xlink" width="1024" zoomAndPan="magnify" viewBox="0 0 768 767.999994" height="1024" preserveAspectRatio="xMidYMid meet" version="1.0"><defs><clipPath id="c8da064deb"><path d="M 28.320312 0 L 739.320312 0 L 739.320312 768 L 28.320312 768 Z M 28.320312 0 " clip-rule="nonzero"/></clipPath></defs><g clip-path="url(#c8da064deb)"><path fill="#ffffff" d="M 589.996094 0.117188 L 589.996094 56.355469 L 643.941406 56.355469 L 543.632812 156.667969 C 501.847656 117.53125 445.789062 93.730469 384.082031 93.730469 C 322.558594 93.730469 266.496094 117.53125 224.714844 156.492188 L 208.671875 140.449219 L 248.160156 100.957031 L 208.492188 61.292969 L 169.003906 100.605469 L 124.578125 56.179688 L 178.171875 56.179688 L 178.171875 0.117188 L 28.320312 0.117188 L 28.320312 149.96875 L 84.558594 149.96875 L 84.558594 95.667969 L 129.160156 140.273438 L 89.316406 180.113281 L 128.984375 219.78125 L 168.828125 179.9375 L 188.21875 199.332031 C 164.066406 236.175781 149.964844 280.25 149.964844 327.496094 C 149.964844 447.203125 239.875 545.925781 355.875 559.855469 L 355.875 655.40625 L 299.636719 655.40625 L 299.636719 711.644531 L 355.875 711.644531 L 355.875 767.882812 L 412.113281 767.882812 L 412.113281 711.644531 L 468.351562 711.644531 L 468.351562 655.40625 L 412.113281 655.40625 L 412.113281 560.03125 C 528.117188 546.105469 618.027344 447.554688 618.027344 327.671875 C 618.027344 280.425781 603.925781 236.351562 579.773438 199.683594 L 683.433594 96.023438 L 683.433594 149.96875 L 739.671875 149.96875 L 739.671875 0.117188 Z M 384.082031 505.554688 C 286.0625 505.554688 206.203125 425.695312 206.203125 327.671875 C 206.203125 229.652344 286.0625 149.792969 384.082031 149.792969 C 482.105469 149.792969 561.964844 229.652344 561.964844 327.671875 C 561.964844 425.871094 482.105469 505.554688 384.082031 505.554688 Z M 384.082031 505.554688 " fill-opacity="1" fill-rule="nonzero"/></g></svg>