<svg xmlns="http://www.w3.org/2000/svg" xmlns:xlink="http://www.w3.org/1999/xlink" width="1024" zoomAndPan="magnify" viewBox="0 0 768 767.999994" height="1024" preserveAspectRatio="xMidYMid meet" version="1.0"><defs><clipPath id="a3d740785e"><path d="M 4 4.800781 L 765 4.800781 L 765 763.050781 L 4 763.050781 Z M 4 4.800781 " clip-rule="nonzero"/></clipPath></defs><g clip-path="url(#a3d740785e)"><path fill="#0a3871" d="M 284.890625 240.105469 C 285.492188 241.609375 285.828125 243.25 285.828125 244.96875 C 285.828125 293.214844 246.714844 332.324219 198.472656 332.324219 C 150.230469 332.324219 111.117188 293.214844 111.117188 244.96875 C 111.117188 243.25 111.449219 241.609375 112.054688 240.105469 L 179.566406 71.320312 C 177.367188 67.855469 176.089844 63.746094 176.089844 59.335938 C 176.089844 46.984375 186.117188 36.957031 198.472656 36.957031 C 205.933594 36.957031 212.546875 40.617188 216.617188 46.238281 L 332.847656 46.238281 C 337.894531 22.558594 358.925781 4.800781 384.105469 4.800781 C 409.285156 4.800781 430.316406 22.558594 435.359375 46.238281 L 551.59375 46.238281 C 555.660156 40.617188 562.273438 36.957031 569.738281 36.957031 C 582.089844 36.957031 592.121094 46.984375 592.121094 59.335938 C 592.121094 63.746094 590.84375 67.855469 588.644531 71.324219 L 656.15625 240.105469 C 656.757812 241.609375 657.09375 243.25 657.09375 244.96875 C 657.09375 293.214844 617.980469 332.324219 569.738281 332.324219 C 521.496094 332.324219 482.382812 293.214844 482.382812 244.96875 C 482.382812 243.25 482.714844 241.609375 483.320312 240.105469 L 550.386719 72.4375 L 399.492188 72.4375 L 450.945312 390.808594 L 476.921875 390.808594 C 482.933594 390.808594 488.171875 394.898438 489.628906 400.730469 L 496.433594 427.9375 L 523.332031 427.9375 C 529.40625 427.9375 534.683594 432.113281 536.082031 438.027344 L 547.515625 486.527344 C 548.4375 490.429688 547.523438 494.53125 545.039062 497.667969 C 542.554688 500.808594 538.769531 502.636719 534.765625 502.636719 L 233.445312 502.636719 C 229.4375 502.636719 225.65625 500.808594 223.171875 497.667969 C 220.683594 494.53125 219.773438 490.429688 220.691406 486.527344 L 232.128906 438.027344 C 233.523438 432.113281 238.800781 427.9375 244.878906 427.9375 L 271.777344 427.9375 L 278.578125 400.730469 C 280.035156 394.898438 285.277344 390.808594 291.289062 390.808594 L 317.261719 390.808594 L 368.714844 72.4375 L 217.824219 72.4375 Z M 143.570312 231.871094 L 253.375 231.871094 L 198.472656 94.613281 Z M 624.640625 231.871094 L 569.738281 94.613281 L 514.835938 231.871094 Z M 424.40625 390.808594 L 384.105469 141.453125 C 384.105469 141.453125 343.804688 390.808594 343.804688 390.808594 Z M 469.421875 427.9375 L 466.695312 417.011719 C 466.695312 417.011719 455.882812 417.011719 439.792969 417.011719 L 328.417969 417.011719 C 312.328125 417.011719 301.515625 417.011719 301.515625 417.011719 L 298.785156 427.9375 Z M 282.007812 454.136719 L 255.25 454.136719 L 249.992188 476.4375 L 518.21875 476.4375 L 512.957031 454.136719 Z M 138.726562 258.070312 C 144.722656 285.550781 169.195312 306.121094 198.472656 306.121094 C 227.75 306.121094 252.222656 285.550781 258.21875 258.070312 Z M 361.410156 44.101562 C 361.410156 44.101562 406.800781 44.101562 406.804688 44.109375 C 402.273438 36.273438 393.804688 31 384.105469 31 C 374.402344 31 365.9375 36.269531 361.410156 44.101562 Z M 509.992188 258.070312 C 515.988281 285.550781 540.460938 306.121094 569.738281 306.121094 C 599.015625 306.121094 623.488281 285.550781 629.484375 258.070312 Z M 374.820312 379.886719 C 367.59375 379.886719 361.722656 374.015625 361.722656 366.785156 C 361.722656 359.550781 367.59375 353.683594 374.820312 353.683594 L 393.386719 353.683594 C 400.617188 353.683594 406.488281 359.550781 406.488281 366.785156 C 406.488281 374.015625 400.617188 379.886719 393.386719 379.886719 Z M 68.492188 499.488281 C 61.226562 485.453125 55.804688 470.414062 52.800781 454.375 C 49.632812 437.453125 49.355469 420.101562 48.21875 402.90625 C 47.21875 387.679688 45.550781 372.570312 39.484375 358.171875 C 39.300781 357.730469 38.917969 356.96875 38.417969 356.03125 C 36.128906 364.925781 34.503906 374.496094 34.164062 376.996094 C 27.371094 426.730469 28.875 468.507812 45.910156 515.984375 C 63.136719 563.996094 102.699219 594.164062 143.089844 621.839844 C 171.296875 641.171875 205.195312 659.003906 220.917969 691.519531 C 229.714844 709.714844 229.257812 730.210938 229.390625 749.882812 C 229.441406 757.113281 223.613281 763.023438 216.378906 763.074219 C 209.148438 763.125 203.242188 757.296875 203.191406 750.0625 C 203.082031 734.21875 204.417969 717.582031 197.328125 702.929688 C 183.613281 674.5625 152.882812 660.316406 128.277344 643.457031 C 83.371094 612.683594 40.402344 578.214844 21.25 524.832031 C 2.691406 473.113281 0.800781 427.628906 8.203125 373.453125 C 8.902344 368.34375 14.433594 340.125 20.3125 329.535156 C 25.222656 320.6875 32.558594 318.667969 37.523438 319.34375 C 42.71875 320.050781 47.878906 322.988281 52.167969 327.804688 C 57.863281 334.195312 62.15625 344.492188 63.632812 348 C 73.535156 371.503906 73.597656 396.589844 75.296875 421.46875 C 82.761719 412.96875 92.769531 408.757812 104.332031 410.59375 C 112.179688 411.84375 117.617188 414.398438 121.722656 417.65625 C 127.742188 422.4375 131.179688 429.042969 133.726562 437.988281 C 137.5625 451.464844 140.066406 472.585938 168.441406 499.71875 C 184.519531 515.097656 205.214844 526.046875 223.851562 537.90625 C 241.15625 548.914062 298.433594 579.222656 320.398438 630.976562 C 335.816406 667.296875 341.082031 706.191406 344.746094 745.390625 C 345.417969 752.589844 340.117188 758.980469 332.917969 759.652344 C 325.722656 760.328125 319.328125 755.027344 318.65625 747.828125 C 315.246094 711.324219 310.636719 675.039062 296.28125 641.214844 C 276.847656 595.429688 225.097656 569.753906 209.789062 560.011719 C 189.730469 547.25 167.636719 535.203125 150.332031 518.65625 C 121.742188 491.316406 114.8125 469.054688 110.585938 452.980469 C 109.53125 448.964844 108.707031 445.402344 107.648438 442.332031 C 107.09375 440.730469 106.667969 439.28125 105.554688 438.285156 C 104.378906 437.230469 102.617188 436.855469 100.214844 436.472656 C 97.335938 436.011719 95.359375 438.027344 93.691406 440.449219 C 90.125 445.636719 88.191406 453.082031 87.574219 460.867188 C 86.730469 471.507812 88.347656 482.96875 93.621094 490.738281 C 94.304688 491.746094 94.828125 492.8125 95.199219 493.910156 C 112.234375 523.484375 138.855469 547.574219 166.980469 566.535156 C 172.972656 570.574219 174.5625 578.722656 170.519531 584.71875 C 166.476562 590.714844 158.328125 592.300781 152.332031 588.257812 C 119.476562 566.109375 88.949219 537.410156 69.96875 502.277344 C 69.460938 501.363281 68.964844 500.433594 68.492188 499.488281 Z M 673.011719 493.910156 C 673.382812 492.8125 673.90625 491.746094 674.585938 490.738281 C 682.566406 478.984375 682.6875 459.011719 677.257812 445.667969 C 675.1875 440.582031 672.863281 435.699219 667.992188 436.472656 C 665.59375 436.855469 663.832031 437.230469 662.65625 438.285156 C 661.542969 439.28125 661.117188 440.730469 660.5625 442.332031 C 659.503906 445.402344 658.675781 448.964844 657.625 452.980469 C 653.394531 469.054688 646.46875 491.316406 617.878906 518.65625 C 600.570312 535.203125 578.480469 547.25 558.421875 560.011719 C 543.113281 569.753906 491.363281 595.429688 471.929688 641.214844 C 457.570312 675.039062 452.964844 711.324219 449.554688 747.828125 C 448.882812 755.027344 442.488281 760.328125 435.289062 759.652344 C 428.089844 758.980469 422.789062 752.589844 423.464844 745.390625 C 427.128906 706.191406 432.394531 667.296875 447.808594 630.976562 C 469.777344 579.222656 527.054688 548.914062 544.355469 537.90625 C 562.996094 526.046875 583.691406 515.097656 599.769531 499.71875 C 628.144531 472.585938 630.648438 451.464844 634.484375 437.988281 C 637.03125 429.042969 640.46875 422.4375 646.488281 417.65625 C 650.59375 414.398438 656.027344 411.84375 663.878906 410.59375 C 675.441406 408.757812 685.449219 412.96875 692.914062 421.46875 C 694.609375 396.589844 694.675781 371.503906 704.574219 348 C 706.054688 344.492188 710.347656 334.195312 716.039062 327.804688 C 720.328125 322.988281 725.492188 320.050781 730.6875 319.34375 C 735.652344 318.667969 742.988281 320.6875 747.898438 329.535156 C 753.777344 340.125 759.308594 368.34375 760.007812 373.453125 C 767.40625 427.628906 765.519531 473.113281 746.960938 524.832031 C 727.808594 578.214844 684.835938 612.683594 639.933594 643.457031 C 615.324219 660.316406 584.597656 674.5625 570.882812 702.929688 C 563.792969 717.582031 565.128906 734.21875 565.019531 750.0625 C 564.96875 757.296875 559.058594 763.125 551.828125 763.074219 C 544.597656 763.023438 538.769531 757.113281 538.820312 749.882812 C 538.953125 730.210938 538.492188 709.714844 547.292969 691.519531 C 563.015625 659.003906 596.914062 641.171875 625.121094 621.839844 C 665.507812 594.164062 705.070312 563.996094 722.296875 515.984375 C 739.332031 468.507812 740.839844 426.730469 734.046875 376.996094 C 733.707031 374.496094 732.082031 364.925781 729.789062 356.03125 C 729.289062 356.96875 728.90625 357.730469 728.722656 358.171875 C 722.660156 372.570312 720.992188 387.679688 719.988281 402.90625 C 718.851562 420.101562 718.578125 437.453125 715.410156 454.375 C 712.40625 470.414062 706.984375 485.453125 699.71875 499.488281 C 699.242188 500.433594 698.75 501.363281 698.242188 502.277344 C 679.261719 537.410156 648.730469 566.109375 615.875 588.257812 C 609.882812 592.300781 601.730469 590.714844 597.6875 584.71875 C 593.648438 578.722656 595.234375 570.574219 601.230469 566.535156 C 629.355469 547.574219 655.976562 523.484375 673.011719 493.910156 Z M 673.011719 493.910156 " fill-opacity="1" fill-rule="evenodd"/></g></svg>