<svg xmlns="http://www.w3.org/2000/svg" xmlns:xlink="http://www.w3.org/1999/xlink" width="1024" zoomAndPan="magnify" viewBox="0 0 768 767.999994" height="1024" preserveAspectRatio="xMidYMid meet" version="1.0"><defs><clipPath id="37bd731674"><path d="M 14.070312 14 L 753.570312 14 L 753.570312 320 L 14.070312 320 Z M 14.070312 14 " clip-rule="nonzero"/></clipPath><clipPath id="b2b8f6d9de"><path d="M 14.070312 623 L 753.570312 623 L 753.570312 754.894531 L 14.070312 754.894531 Z M 14.070312 623 " clip-rule="nonzero"/></clipPath></defs><g clip-path="url(#37bd731674)"><path fill="#0a3871" d="M 732.164062 319.078125 L 35.832031 319.078125 C 23.8125 319.078125 14.070312 309.335938 14.070312 297.316406 L 14.070312 210.277344 C 14.070312 202.03125 18.726562 194.496094 26.097656 190.808594 L 374.261719 16.726562 C 380.390625 13.660156 387.605469 13.660156 393.730469 16.726562 L 741.898438 190.808594 C 749.269531 194.496094 753.925781 202.03125 753.921875 210.277344 L 753.921875 297.316406 C 753.921875 309.335938 744.179688 319.078125 732.164062 319.078125 Z M 57.59375 275.558594 L 710.402344 275.558594 L 710.402344 223.722656 L 383.996094 60.519531 L 57.59375 223.722656 Z M 57.59375 275.558594 " fill-opacity="1" fill-rule="nonzero"/></g><g clip-path="url(#b2b8f6d9de)"><path fill="#0a3871" d="M 732.164062 754.285156 L 35.832031 754.285156 C 23.8125 754.285156 14.070312 744.542969 14.070312 732.523438 L 14.070312 645.484375 C 14.070312 633.464844 23.8125 623.722656 35.832031 623.722656 L 732.164062 623.722656 C 744.179688 623.722656 753.921875 633.464844 753.921875 645.484375 L 753.921875 732.523438 C 753.921875 744.542969 744.179688 754.285156 732.164062 754.285156 Z M 57.59375 710.765625 L 710.402344 710.765625 L 710.402344 667.242188 L 57.59375 667.242188 Z M 57.59375 710.765625 " fill-opacity="1" fill-rule="nonzero"/></g><path fill="#0a3871" d="M 166.394531 667.242188 L 79.351562 667.242188 C 67.335938 667.242188 57.59375 657.5 57.59375 645.484375 L 57.59375 297.316406 C 57.59375 285.300781 67.335938 275.558594 79.351562 275.558594 L 166.394531 275.558594 C 178.410156 275.558594 188.152344 285.300781 188.152344 297.316406 L 188.152344 645.484375 C 188.152344 657.5 178.410156 667.242188 166.394531 667.242188 Z M 101.113281 623.722656 L 144.632812 623.722656 L 144.632812 319.078125 L 101.113281 319.078125 Z M 101.113281 623.722656 " fill-opacity="1" fill-rule="nonzero"/><path fill="#0a3871" d="M 688.640625 667.242188 L 601.601562 667.242188 C 589.582031 667.242188 579.839844 657.5 579.839844 645.484375 L 579.839844 297.316406 C 579.839844 285.300781 589.582031 275.558594 601.601562 275.558594 L 688.640625 275.558594 C 700.660156 275.558594 710.402344 285.300781 710.402344 297.316406 L 710.402344 645.484375 C 710.402344 657.5 700.660156 667.242188 688.640625 667.242188 Z M 623.359375 623.722656 L 666.882812 623.722656 L 666.882812 319.078125 L 623.359375 319.078125 Z M 623.359375 623.722656 " fill-opacity="1" fill-rule="nonzero"/><path fill="#0a3871" d="M 383.996094 253.796875 C 347.941406 253.796875 318.714844 224.570312 318.714844 188.515625 C 318.714844 152.460938 347.941406 123.234375 383.996094 123.234375 C 420.050781 123.234375 449.277344 152.460938 449.277344 188.515625 C 449.238281 224.550781 420.035156 253.757812 383.996094 253.796875 Z M 383.996094 166.753906 C 371.980469 166.753906 362.238281 176.5 362.238281 188.515625 C 362.238281 200.53125 371.980469 210.277344 383.996094 210.277344 C 396.015625 210.277344 405.757812 200.53125 405.757812 188.515625 C 405.757812 176.5 396.015625 166.753906 383.996094 166.753906 Z M 383.996094 166.753906 " fill-opacity="1" fill-rule="nonzero"/><path fill="#0a3871" d="M 449.277344 667.242188 L 318.714844 667.242188 C 306.699219 667.242188 296.957031 657.5 296.957031 645.484375 L 296.957031 449.640625 C 296.957031 437.621094 306.699219 427.878906 318.714844 427.878906 L 449.277344 427.878906 C 461.296875 427.878906 471.039062 437.621094 471.039062 449.640625 L 471.039062 645.484375 C 471.039062 657.5 461.296875 667.242188 449.277344 667.242188 Z M 340.476562 623.722656 L 427.519531 623.722656 L 427.519531 471.398438 L 340.476562 471.398438 Z M 340.476562 623.722656 " fill-opacity="1" fill-rule="nonzero"/></svg>