<svg xmlns="http://www.w3.org/2000/svg" xmlns:xlink="http://www.w3.org/1999/xlink" width="1024" zoomAndPan="magnify" viewBox="0 0 768 767.999994" height="1024" preserveAspectRatio="xMidYMid meet" version="1.0"><path fill="#ffffff" d="M 215.417969 465.992188 C 214.546875 469.578125 216.496094 472.820312 217.75 476.0625 C 222.175781 487.527344 226.847656 498.921875 231.339844 510.382812 C 231.722656 511.394531 231.933594 512.542969 231.933594 513.660156 C 231.96875 525.472656 232.804688 537.355469 231.550781 549.027344 C 230.816406 555.824219 230.992188 562.792969 229.109375 569.585938 C 227.960938 573.734375 228.519531 578.472656 228.761719 582.898438 C 229.109375 588.925781 227.890625 594.46875 224.652344 599.554688 C 222.769531 602.550781 222.140625 605.828125 221.757812 609.382812 C 221.199219 614.46875 219.320312 618.824219 213.394531 620.460938 C 209.597656 621.507812 207.542969 625.339844 205.136719 628.371094 C 201.304688 633.25 197.957031 638.617188 191.652344 640.882812 C 190.1875 641.402344 188.792969 641.960938 187.226562 641.925781 C 184.160156 641.925781 181.164062 642.066406 178.167969 643.078125 C 173.566406 644.609375 168.898438 642.832031 164.679688 641.578125 C 153.914062 638.40625 143.042969 634.714844 135.933594 625.167969 C 132.484375 620.566406 128.40625 616.628906 124.816406 612.238281 C 120.355469 606.765625 114.222656 604.328125 108.054688 601.925781 C 100.914062 599.171875 93.910156 596.558594 89.519531 589.484375 C 87.53125 586.277344 84.117188 583.945312 81.398438 581.15625 C 79.65625 579.378906 77.878906 577.671875 77.53125 574.917969 C 77.289062 572.898438 75.824219 571.816406 73.769531 571.679688 C 68.785156 571.292969 65.125 569.449219 63.871094 563.90625 C 63.175781 560.804688 60.769531 558.402344 58.019531 556.589844 C 54.5 554.253906 51.570312 551.328125 49.203125 547.808594 C 45.71875 542.617188 40.910156 539.898438 34.566406 539.828125 C 30.003906 539.792969 26.414062 538.050781 23.765625 533.941406 C 21.847656 530.941406 19.375 528.328125 15.402344 527.5625 C 13.3125 527.144531 11.324219 525.855469 9.410156 524.777344 C 1.601562 520.316406 -0.175781 516.167969 2.613281 507.804688 C 9.582031 486.863281 17.179688 466.09375 23.589844 444.980469 C 30.140625 423.515625 37.738281 402.433594 44.429688 381.035156 C 48.367188 368.527344 52.859375 356.15625 56.9375 343.683594 C 58.367188 339.328125 58.296875 335.355469 54.359375 331.589844 C 42.164062 319.882812 30.386719 307.722656 18.328125 295.839844 C 15.226562 292.773438 14.808594 289.8125 17.144531 286.222656 C 22.824219 277.546875 27.738281 268.277344 35.613281 261.238281 C 40.804688 256.601562 46.589844 252.769531 52.234375 248.726562 C 54.183594 247.332031 55.683594 245.558594 55.753906 243.363281 C 55.859375 238.101562 56.660156 232.804688 54.882812 227.644531 C 53.976562 224.960938 54.183594 222.105469 54.359375 219.351562 C 54.535156 216.632812 56.171875 215.03125 58.960938 214.925781 C 61.050781 214.859375 63.140625 214.859375 65.230469 214.890625 C 68.644531 214.960938 71.15625 213.742188 73.316406 210.816406 C 77.636719 204.925781 83.457031 201.335938 90.808594 199.699219 C 98.195312 198.027344 105.339844 195.34375 112.621094 193.183594 C 114.640625 192.589844 114.609375 191.058594 114.503906 189.523438 C 114.15625 184.855469 114.609375 180.742188 117.675781 176.632812 C 120.566406 172.765625 120.601562 167.433594 120.984375 162.695312 C 121.542969 156.175781 123.144531 150.148438 126.421875 144.574219 C 129.382812 139.484375 134.296875 136.90625 139.59375 134.957031 C 141.613281 134.222656 143.390625 135.617188 145.167969 136.246094 C 150.671875 138.09375 154.507812 133.773438 159.175781 132.585938 C 166.910156 130.601562 174.613281 128.476562 182.347656 126.382812 C 191.789062 123.839844 201.234375 121.261719 210.710938 118.683594 C 213.640625 117.882812 216.773438 117.707031 219.320312 115.824219 C 220.992188 114.570312 222.386719 113.074219 223.394531 111.191406 C 224.964844 108.335938 227.089844 105.546875 230.296875 104.917969 C 234.023438 104.152344 234.617188 102.167969 235.140625 98.855469 C 236.882812 87.566406 236.984375 76.066406 241.203125 65.089844 C 244.09375 57.527344 245.59375 49.410156 248.101562 41.675781 C 250.644531 33.835938 252.980469 32.058594 260.679688 34.390625 C 269.914062 37.179688 279.601562 38.886719 287.929688 44.148438 C 294.515625 48.328125 300.335938 53.136719 300.71875 61.851562 C 300.824219 64.429688 302.25 65.648438 304.898438 66.136719 C 310.578125 67.179688 316.363281 67.703125 322.007812 69.167969 C 326.085938 70.214844 329.363281 72.164062 332.253906 75.089844 C 341.453125 84.359375 350.027344 94.222656 358.667969 103.976562 C 367.273438 113.664062 377.171875 114.363281 388.496094 111.855469 C 391.316406 111.226562 394.3125 111.191406 397.207031 111.261719 C 401.910156 111.367188 406.265625 110.179688 410.414062 108.089844 C 412.957031 106.800781 415.359375 106.835938 418.324219 107.324219 C 423.480469 108.125 428.707031 108.960938 433.933594 109.484375 C 437.765625 109.867188 441.703125 109.273438 445.46875 110.84375 C 447.941406 111.886719 450.277344 109.796875 452.785156 109.796875 C 471.042969 109.761719 489.304688 109.625 507.5625 109.625 C 512.09375 109.625 513.277344 111.785156 513.382812 116.140625 C 513.488281 120.914062 511.011719 124.257812 508.78125 127.882812 C 505.195312 133.632812 503.347656 139.871094 502.894531 146.628906 C 502.371094 153.945312 503.835938 161.335938 501.535156 168.617188 C 500.523438 171.824219 498.640625 174.4375 496.621094 176.703125 C 491.570312 182.417969 489.652344 189.628906 486.761719 196.285156 C 484.738281 200.953125 483.171875 205.796875 480.382812 210.117188 C 478.433594 213.148438 477.59375 216.390625 477.804688 220.015625 C 477.980469 222.523438 477.769531 224.929688 476.757812 227.367188 C 475.75 229.773438 476.167969 231.445312 479.546875 231.828125 C 486.34375 232.628906 490.28125 237.890625 494.148438 242.699219 C 495.644531 244.546875 495.191406 247.613281 493.832031 249.878906 C 492.195312 252.664062 491.289062 255.730469 490.28125 258.726562 C 489.128906 262.179688 490.246094 265.453125 490.941406 268.902344 C 492.507812 276.742188 493.519531 284.722656 494.566406 292.667969 C 494.808594 294.621094 495.089844 296.464844 496.167969 298.171875 C 499.792969 304.0625 500.316406 311.03125 502.824219 317.304688 C 505.089844 322.984375 512.199219 328.417969 518.46875 328.523438 C 525.300781 328.628906 532.128906 328.523438 538.957031 328.664062 C 548.960938 328.871094 558.054688 338.351562 558.367188 348.386719 C 558.820312 363.578125 555.335938 378.039062 550.738281 392.292969 C 549.515625 396.089844 551.226562 399.820312 555.195312 400.375 C 560.320312 401.109375 564.605469 403.722656 568.960938 406.089844 C 573.144531 408.320312 574.816406 412.886719 576.3125 416.929688 C 578.789062 423.617188 582.585938 429.542969 585.863281 435.78125 C 588.195312 440.238281 590.007812 444.875 589.972656 449.996094 C 589.9375 452.785156 590.984375 454.074219 593.910156 453.96875 C 596.835938 453.863281 599.660156 454.214844 602.484375 455.292969 C 605.585938 456.476562 608.476562 454.664062 610.253906 452.4375 C 615.515625 445.816406 623.285156 445.988281 630.394531 444.003906 C 637.746094 441.914062 643.566406 443.027344 649.246094 448.566406 C 652.730469 451.984375 658.621094 451.285156 663.113281 453.761719 C 670.78125 457.941406 677.644531 462.714844 682.628906 470.101562 C 685.101562 473.726562 688.515625 476.722656 691.652344 479.894531 C 692.835938 481.113281 694.09375 483.101562 696.183594 482.054688 C 698.03125 481.148438 699.703125 479.648438 699.980469 477.386719 C 700.851562 470.066406 703.988281 464.003906 709.527344 459.023438 C 711.722656 457.035156 713.882812 455.710938 716.882812 455.746094 C 727.753906 455.816406 738.660156 455.292969 749.496094 455.988281 C 758.558594 456.582031 762.042969 458.636719 762.390625 469.058594 C 762.738281 478.882812 763.332031 488.78125 763.46875 498.570312 C 763.851562 525.996094 765.839844 553.347656 765.980469 580.738281 C 766.046875 593.628906 767.199219 606.523438 767.582031 619.453125 C 767.859375 628.476562 765.109375 636.351562 761.03125 643.984375 C 754.132812 656.910156 745.246094 668.445312 735.347656 679.105469 C 730.472656 684.367188 724.441406 687.992188 716.566406 687.121094 C 712.28125 686.632812 708.238281 689.109375 703.847656 688.863281 C 702.386719 688.792969 701.339844 690.117188 700.679688 691.304688 C 697.679688 696.878906 693.222656 699.945312 686.84375 700.605469 C 682.140625 701.09375 678.515625 704.160156 675.03125 707.125 C 669.492188 711.863281 663.394531 716.148438 661.582031 724.023438 C 660.816406 727.265625 658.621094 730.015625 656.457031 732.527344 C 653.8125 735.59375 650.359375 736.046875 647.191406 733.535156 C 639.105469 727.230469 631.125 720.78125 623.144531 714.335938 C 616.558594 709.039062 609.976562 703.742188 603.492188 698.273438 C 601.195312 696.320312 599.871094 697.644531 598.683594 699.214844 C 594.921875 704.089844 592.621094 709.773438 590.285156 715.382812 C 588.578125 719.492188 586.699219 723.5 584.675781 727.4375 C 582.761719 731.167969 578.789062 731.550781 575.269531 731.167969 C 568.054688 730.367188 561.644531 726.671875 554.746094 724.6875 C 542.792969 721.234375 533.800781 713.046875 524.21875 705.835938 C 520.769531 703.21875 516.136719 701.617188 515.75 696.113281 C 511.328125 698.480469 507.144531 700.574219 503.101562 702.90625 C 493.730469 708.34375 484.355469 707.785156 474.980469 703.152344 C 469.71875 700.539062 464.425781 698.621094 458.359375 698.585938 C 454.285156 698.550781 450.171875 697.296875 447.140625 693.988281 C 445.746094 692.453125 444.214844 691.023438 442.609375 689.699219 C 439.996094 687.574219 437.3125 686.425781 433.96875 688.65625 C 430.449219 691.023438 426.859375 690.675781 422.921875 688.96875 C 415.011719 685.554688 409.261719 680.640625 405.011719 672.730469 C 399.890625 663.113281 391.945312 655.238281 384.871094 646.875 C 378.390625 639.210938 372.816406 631.019531 368.390625 621.996094 C 366.785156 618.753906 366.925781 615.445312 367.902344 612.238281 C 368.597656 609.972656 368.144531 608.023438 368.039062 605.828125 C 367.761719 600.808594 364.589844 598.859375 360.722656 597.429688 C 353.648438 594.816406 347.898438 590.460938 342.847656 584.953125 C 341.664062 583.628906 340.199219 582.480469 338.699219 581.503906 C 335.773438 579.589844 333.195312 578.296875 329.5 581.191406 C 324.972656 584.746094 320.929688 584.1875 317.898438 579.691406 C 314.519531 574.746094 308.976562 571.121094 307.933594 564.640625 C 307.792969 563.835938 307.339844 562.828125 307.652344 562.234375 C 310.894531 556.3125 307.757812 552.304688 303.679688 548.539062 C 302.601562 547.566406 301.9375 546.308594 301.972656 544.847656 C 302.285156 537.390625 300.960938 529.863281 303.472656 522.476562 C 304.621094 519.097656 306.710938 516.378906 308.769531 513.625 C 310.195312 511.742188 310.824219 510.035156 309.675781 507.910156 C 308.175781 505.121094 308.175781 502.300781 309.605469 499.511719 C 310.613281 497.527344 310.265625 495.433594 310.335938 493.378906 C 310.582031 486.480469 309.1875 479.511719 311.660156 472.679688 C 312.636719 470 310.683594 467.734375 308.28125 465.363281 C 307.304688 471.460938 306.328125 477.035156 306.609375 482.683594 C 306.921875 488.953125 302.949219 493.972656 301.9375 499.824219 C 294.621094 503.9375 291.625 514.390625 280.855469 513.589844 C 271.621094 512.894531 263.851562 510 258.171875 502.300781 C 255.070312 498.117188 251.378906 494.496094 246.117188 493.101562 C 239.113281 491.21875 235.523438 485.332031 231.132812 480.417969 C 230.679688 479.929688 230.539062 478.8125 230.085938 478.710938 C 222.976562 476.933594 222.003906 468.675781 215.417969 465.992188 Z M 215.417969 465.992188 " fill-opacity="1" fill-rule="nonzero"/></svg>