<svg xmlns="http://www.w3.org/2000/svg" xmlns:xlink="http://www.w3.org/1999/xlink" width="1024" zoomAndPan="magnify" viewBox="0 0 768 767.999994" height="1024" preserveAspectRatio="xMidYMid meet" version="1.0"><defs><clipPath id="4cb6b24ecd"><path d="M 54 7.027344 L 714 7.027344 L 714 220 L 54 220 Z M 54 7.027344 " clip-rule="nonzero"/></clipPath><clipPath id="60575eedbf"><path d="M 31.058594 690 L 736.808594 690 L 736.808594 760.777344 L 31.058594 760.777344 Z M 31.058594 690 " clip-rule="nonzero"/></clipPath></defs><path fill="#0a3871" d="M 701.644531 290.171875 L 66.351562 290.171875 C 59.855469 290.171875 54.585938 284.90625 54.585938 278.40625 L 54.585938 207.820312 C 54.585938 201.324219 59.855469 196.054688 66.351562 196.054688 L 701.644531 196.054688 C 708.140625 196.054688 713.40625 201.324219 713.40625 207.820312 L 713.40625 278.40625 C 713.40625 284.90625 708.140625 290.171875 701.644531 290.171875 Z M 78.117188 266.644531 L 689.878906 266.644531 L 689.878906 219.585938 L 78.117188 219.585938 Z M 78.117188 266.644531 " fill-opacity="1" fill-rule="nonzero"/><g clip-path="url(#4cb6b24ecd)"><path fill="#0a3871" d="M 701.632812 219.585938 C 699.59375 219.585938 697.527344 219.054688 695.644531 217.941406 L 383.996094 33.261719 L 72.351562 217.941406 C 66.757812 221.253906 59.546875 219.40625 56.230469 213.816406 C 52.921875 208.226562 54.765625 201.011719 60.355469 197.699219 L 378 9.464844 C 381.699219 7.273438 386.300781 7.273438 389.996094 9.464844 L 707.640625 197.699219 C 713.234375 201.007812 715.078125 208.226562 711.765625 213.816406 C 709.566406 217.523438 705.652344 219.585938 701.632812 219.585938 Z M 701.632812 219.585938 " fill-opacity="1" fill-rule="nonzero"/></g><path fill="#0a3871" d="M 689.878906 713.699219 L 78.117188 713.699219 C 71.621094 713.699219 66.351562 708.433594 66.351562 701.933594 L 66.351562 654.875 C 66.351562 648.378906 71.621094 643.113281 78.117188 643.113281 L 689.878906 643.113281 C 696.375 643.113281 701.644531 648.378906 701.644531 654.875 L 701.644531 701.933594 C 701.644531 708.433594 696.375 713.699219 689.878906 713.699219 Z M 89.882812 690.171875 L 678.113281 690.171875 L 678.113281 666.640625 L 89.882812 666.640625 Z M 89.882812 690.171875 " fill-opacity="1" fill-rule="nonzero"/><path fill="#0a3871" d="M 172.234375 619.582031 L 125.175781 619.582031 C 118.679688 619.582031 113.410156 614.316406 113.410156 607.816406 L 113.410156 325.464844 C 113.410156 318.96875 118.679688 313.703125 125.175781 313.703125 L 172.234375 313.703125 C 178.730469 313.703125 184 318.96875 184 325.464844 L 184 607.816406 C 184 614.316406 178.730469 619.582031 172.234375 619.582031 Z M 136.941406 596.054688 L 160.46875 596.054688 L 160.46875 337.230469 L 136.941406 337.230469 Z M 136.941406 596.054688 " fill-opacity="1" fill-rule="nonzero"/><path fill="#0a3871" d="M 195.761719 337.230469 L 101.644531 337.230469 C 95.148438 337.230469 89.882812 331.964844 89.882812 325.464844 L 89.882812 278.40625 C 89.882812 271.910156 95.148438 266.644531 101.644531 266.644531 L 195.761719 266.644531 C 202.261719 266.644531 207.527344 271.910156 207.527344 278.40625 L 207.527344 325.464844 C 207.527344 331.964844 202.261719 337.230469 195.761719 337.230469 Z M 113.410156 313.703125 L 184 313.703125 L 184 290.171875 L 113.410156 290.171875 Z M 113.410156 313.703125 " fill-opacity="1" fill-rule="nonzero"/><path fill="#0a3871" d="M 195.761719 666.640625 L 101.644531 666.640625 C 95.148438 666.640625 89.882812 661.375 89.882812 654.875 L 89.882812 607.816406 C 89.882812 601.320312 95.148438 596.054688 101.644531 596.054688 L 195.761719 596.054688 C 202.261719 596.054688 207.527344 601.320312 207.527344 607.816406 L 207.527344 654.875 C 207.527344 661.375 202.261719 666.640625 195.761719 666.640625 Z M 113.410156 643.113281 L 184 643.113281 L 184 619.582031 L 113.410156 619.582031 Z M 113.410156 643.113281 " fill-opacity="1" fill-rule="nonzero"/><path fill="#0a3871" d="M 642.820312 619.582031 L 595.761719 619.582031 C 589.265625 619.582031 583.996094 614.316406 583.996094 607.816406 L 583.996094 325.464844 C 583.996094 318.96875 589.265625 313.703125 595.761719 313.703125 L 642.820312 313.703125 C 649.316406 313.703125 654.585938 318.96875 654.585938 325.464844 L 654.585938 607.816406 C 654.585938 614.316406 649.316406 619.582031 642.820312 619.582031 Z M 607.527344 596.054688 L 631.054688 596.054688 L 631.054688 337.230469 L 607.527344 337.230469 Z M 607.527344 596.054688 " fill-opacity="1" fill-rule="nonzero"/><path fill="#0a3871" d="M 666.347656 337.230469 L 572.230469 337.230469 C 565.734375 337.230469 560.46875 331.964844 560.46875 325.464844 L 560.46875 278.40625 C 560.46875 271.910156 565.734375 266.644531 572.230469 266.644531 L 666.347656 266.644531 C 672.847656 266.644531 678.113281 271.910156 678.113281 278.40625 L 678.113281 325.464844 C 678.113281 331.964844 672.847656 337.230469 666.347656 337.230469 Z M 583.996094 313.703125 L 654.585938 313.703125 L 654.585938 290.171875 L 583.996094 290.171875 Z M 583.996094 313.703125 " fill-opacity="1" fill-rule="nonzero"/><path fill="#0a3871" d="M 666.347656 666.640625 L 572.230469 666.640625 C 565.734375 666.640625 560.46875 661.375 560.46875 654.875 L 560.46875 607.816406 C 560.46875 601.320312 565.734375 596.054688 572.230469 596.054688 L 666.347656 596.054688 C 672.847656 596.054688 678.113281 601.320312 678.113281 607.816406 L 678.113281 654.875 C 678.113281 661.375 672.847656 666.640625 666.347656 666.640625 Z M 583.996094 643.113281 L 654.585938 643.113281 L 654.585938 619.582031 L 583.996094 619.582031 Z M 583.996094 643.113281 " fill-opacity="1" fill-rule="nonzero"/><path fill="#0a3871" d="M 383.996094 619.582031 C 377.5 619.582031 372.234375 614.316406 372.234375 607.816406 L 372.234375 419.582031 C 372.234375 413.085938 377.5 407.820312 383.996094 407.820312 C 390.496094 407.820312 395.761719 413.085938 395.761719 419.582031 L 395.761719 607.816406 C 395.761719 614.316406 390.496094 619.582031 383.996094 619.582031 Z M 383.996094 619.582031 " fill-opacity="1" fill-rule="nonzero"/><path fill="#0a3871" d="M 489.878906 584.289062 C 474.160156 584.289062 459.390625 578.171875 448.28125 567.0625 C 437.175781 555.953125 431.054688 541.183594 431.054688 525.464844 C 431.054688 518.96875 436.324219 513.699219 442.820312 513.699219 L 536.9375 513.699219 C 543.433594 513.699219 548.703125 518.96875 548.703125 525.464844 C 548.703125 557.898438 522.316406 584.289062 489.878906 584.289062 Z M 456.582031 537.230469 C 458.3125 542.136719 461.132812 546.636719 464.917969 550.425781 C 471.585938 557.089844 480.449219 560.757812 489.878906 560.757812 C 505.21875 560.757812 518.300781 550.921875 523.15625 537.230469 Z M 456.582031 537.230469 " fill-opacity="1" fill-rule="nonzero"/><path fill="#0a3871" d="M 442.820312 537.234375 C 441.484375 537.234375 440.128906 537.003906 438.800781 536.523438 C 432.695312 534.300781 429.542969 527.550781 431.765625 521.445312 L 473.082031 407.820312 L 407.527344 407.820312 C 401.03125 407.820312 395.761719 402.550781 395.761719 396.054688 C 395.761719 389.558594 401.03125 384.289062 407.527344 384.289062 L 489.878906 384.289062 C 493.714844 384.289062 497.316406 386.160156 499.515625 389.304688 C 501.71875 392.449219 502.246094 396.46875 500.9375 400.074219 L 453.878906 529.484375 C 452.140625 534.261719 447.628906 537.234375 442.820312 537.234375 Z M 442.820312 537.234375 " fill-opacity="1" fill-rule="nonzero"/><path fill="#0a3871" d="M 360.46875 407.820312 L 278.117188 407.820312 C 271.617188 407.820312 266.351562 402.550781 266.351562 396.054688 C 266.351562 389.558594 271.617188 384.289062 278.117188 384.289062 L 360.46875 384.289062 C 366.964844 384.289062 372.234375 389.558594 372.234375 396.054688 C 372.234375 402.550781 366.964844 407.820312 360.46875 407.820312 Z M 360.46875 407.820312 " fill-opacity="1" fill-rule="nonzero"/><path fill="#0a3871" d="M 536.941406 537.234375 C 532.132812 537.234375 527.617188 534.265625 525.882812 529.484375 L 478.824219 400.074219 C 476.601562 393.96875 479.753906 387.21875 485.859375 384.996094 C 491.964844 382.777344 498.714844 385.925781 500.933594 392.03125 L 547.992188 521.441406 C 550.214844 527.546875 547.0625 534.300781 540.957031 536.519531 C 539.632812 537.003906 538.273438 537.234375 536.941406 537.234375 Z M 536.941406 537.234375 " fill-opacity="1" fill-rule="nonzero"/><path fill="#0a3871" d="M 278.117188 584.289062 C 262.398438 584.289062 247.625 578.171875 236.519531 567.0625 C 225.410156 555.953125 219.292969 541.183594 219.292969 525.464844 C 219.292969 518.96875 224.558594 513.699219 231.058594 513.699219 L 325.175781 513.699219 C 331.671875 513.699219 336.9375 518.96875 336.9375 525.464844 C 336.9375 557.898438 310.550781 584.289062 278.117188 584.289062 Z M 244.820312 537.230469 C 246.546875 542.136719 249.367188 546.636719 253.15625 550.425781 C 259.820312 557.089844 268.683594 560.757812 278.117188 560.757812 C 293.453125 560.757812 306.539062 550.921875 311.394531 537.230469 Z M 244.820312 537.230469 " fill-opacity="1" fill-rule="nonzero"/><path fill="#0a3871" d="M 231.058594 537.234375 C 229.722656 537.234375 228.363281 537.003906 227.039062 536.523438 C 220.933594 534.300781 217.78125 527.550781 220 521.445312 L 267.058594 392.035156 C 269.28125 385.929688 276.03125 382.777344 282.136719 384.996094 C 288.242188 387.21875 291.390625 393.96875 289.171875 400.074219 L 242.113281 529.488281 C 240.375 534.261719 235.863281 537.234375 231.058594 537.234375 Z M 231.058594 537.234375 " fill-opacity="1" fill-rule="nonzero"/><path fill="#0a3871" d="M 325.175781 537.234375 C 320.367188 537.234375 315.855469 534.265625 314.117188 529.484375 L 267.058594 400.074219 C 264.839844 393.96875 267.988281 387.21875 274.09375 384.996094 C 280.199219 382.777344 286.953125 385.925781 289.171875 392.03125 L 336.230469 521.441406 C 338.449219 527.546875 335.300781 534.300781 329.195312 536.519531 C 327.867188 537.003906 326.511719 537.234375 325.175781 537.234375 Z M 325.175781 537.234375 " fill-opacity="1" fill-rule="nonzero"/><path fill="#0a3871" d="M 383.996094 431.347656 C 364.535156 431.347656 348.703125 415.515625 348.703125 396.054688 C 348.703125 376.59375 364.535156 360.761719 383.996094 360.761719 C 403.457031 360.761719 419.292969 376.59375 419.292969 396.054688 C 419.292969 415.515625 403.457031 431.347656 383.996094 431.347656 Z M 383.996094 384.289062 C 377.511719 384.289062 372.234375 389.566406 372.234375 396.054688 C 372.234375 402.539062 377.511719 407.820312 383.996094 407.820312 C 390.484375 407.820312 395.761719 402.539062 395.761719 396.054688 C 395.761719 389.566406 390.484375 384.289062 383.996094 384.289062 Z M 383.996094 384.289062 " fill-opacity="1" fill-rule="nonzero"/><path fill="#0a3871" d="M 383.996094 384.289062 C 377.5 384.289062 372.234375 379.023438 372.234375 372.523438 L 372.234375 348.996094 C 372.234375 342.5 377.5 337.230469 383.996094 337.230469 C 390.496094 337.230469 395.761719 342.5 395.761719 348.996094 L 395.761719 372.523438 C 395.761719 379.023438 390.496094 384.289062 383.996094 384.289062 Z M 383.996094 384.289062 " fill-opacity="1" fill-rule="nonzero"/><g clip-path="url(#60575eedbf)"><path fill="#0a3871" d="M 725.171875 760.757812 L 42.824219 760.757812 C 36.324219 760.757812 31.058594 755.492188 31.058594 748.992188 L 31.058594 701.933594 C 31.058594 695.4375 36.324219 690.171875 42.824219 690.171875 L 725.171875 690.171875 C 731.667969 690.171875 736.9375 695.4375 736.9375 701.933594 L 736.9375 748.992188 C 736.9375 755.492188 731.667969 760.757812 725.171875 760.757812 Z M 54.585938 737.230469 L 713.40625 737.230469 L 713.40625 713.699219 L 54.585938 713.699219 Z M 54.585938 737.230469 " fill-opacity="1" fill-rule="nonzero"/></g><path fill="#0a3871" d="M 383.996094 172.527344 C 358.050781 172.527344 336.9375 151.414062 336.9375 125.46875 C 336.9375 99.519531 358.050781 78.410156 383.996094 78.410156 C 409.945312 78.410156 431.054688 99.519531 431.054688 125.46875 C 431.054688 151.414062 409.945312 172.527344 383.996094 172.527344 Z M 383.996094 101.9375 C 371.023438 101.9375 360.46875 112.492188 360.46875 125.46875 C 360.46875 138.441406 371.023438 148.996094 383.996094 148.996094 C 396.972656 148.996094 407.527344 138.441406 407.527344 125.46875 C 407.527344 112.492188 396.972656 101.9375 383.996094 101.9375 Z M 383.996094 101.9375 " fill-opacity="1" fill-rule="nonzero"/><path fill="#0a3871" d="M 431.054688 666.640625 L 336.9375 666.640625 C 330.441406 666.640625 325.175781 661.375 325.175781 654.875 L 325.175781 607.816406 C 325.175781 601.320312 330.441406 596.054688 336.9375 596.054688 L 431.054688 596.054688 C 437.554688 596.054688 442.820312 601.320312 442.820312 607.816406 L 442.820312 654.875 C 442.820312 661.375 437.554688 666.640625 431.054688 666.640625 Z M 348.703125 643.113281 L 419.292969 643.113281 L 419.292969 619.582031 L 348.703125 619.582031 Z M 348.703125 643.113281 " fill-opacity="1" fill-rule="nonzero"/></svg>