<svg xmlns="http://www.w3.org/2000/svg" xmlns:xlink="http://www.w3.org/1999/xlink" width="1024" zoomAndPan="magnify" viewBox="0 0 768 767.999994" height="1024" preserveAspectRatio="xMidYMid meet" version="1.0"><defs><clipPath id="8016bd6eb2"><path d="M 100 212 L 750.710938 212 L 750.710938 734.507812 L 100 734.507812 Z M 100 212 " clip-rule="nonzero"/></clipPath></defs><path fill="#0a3871" d="M 688.445312 215.976562 L 649.683594 72.402344 C 643.042969 47.832031 617.550781 33.195312 592.796875 39.777344 L 53.742188 183.136719 C 41.660156 186.351562 31.59375 194.03125 25.402344 204.769531 C 19.25 215.421875 17.628906 227.835938 20.851562 239.734375 L 99.773438 532.089844 C 101.167969 537.261719 105.851562 540.675781 110.976562 540.675781 C 111.972656 540.675781 112.984375 540.535156 114.007812 540.257812 C 120.203125 538.589844 123.863281 532.214844 122.1875 526.027344 L 43.261719 233.671875 C 41.675781 227.785156 42.472656 221.640625 45.511719 216.367188 C 48.601562 211.019531 53.640625 207.183594 59.710938 205.574219 L 598.761719 62.214844 C 611.175781 58.925781 623.960938 66.199219 627.273438 78.457031 L 666.035156 222.03125 C 667.703125 228.21875 674.0625 231.886719 680.265625 230.210938 C 686.453125 228.539062 690.113281 222.164062 688.445312 215.976562 Z M 688.445312 215.976562 " fill-opacity="1" fill-rule="nonzero"/><g clip-path="url(#8016bd6eb2)"><path fill="#0a3871" d="M 704.179688 212.332031 L 146.9375 212.332031 C 121.339844 212.332031 100.503906 233.199219 100.503906 258.839844 L 100.503906 688.226562 C 100.503906 713.875 121.339844 734.742188 146.9375 734.742188 L 704.179688 734.742188 C 729.789062 734.742188 750.613281 713.875 750.613281 688.226562 L 750.613281 258.847656 C 750.613281 233.199219 729.789062 212.332031 704.179688 212.332031 Z M 727.398438 688.226562 C 727.398438 701.070312 716.984375 711.527344 704.179688 711.527344 L 146.9375 711.527344 C 134.144531 711.527344 123.730469 701.070312 123.730469 688.226562 L 123.730469 258.847656 C 123.730469 246.003906 134.144531 235.550781 146.9375 235.550781 L 704.179688 235.550781 C 716.984375 235.550781 727.398438 245.996094 727.398438 258.839844 Z M 727.398438 688.226562 " fill-opacity="1" fill-rule="nonzero"/></g><path fill="#0a3871" d="M 367.519531 444.511719 L 170.164062 444.511719 C 163.753906 444.511719 158.554688 449.71875 158.554688 456.121094 L 158.554688 572.210938 C 158.554688 578.621094 163.753906 583.828125 170.164062 583.828125 L 367.511719 583.828125 C 373.921875 583.828125 379.125 578.621094 379.125 572.210938 L 379.125 456.121094 C 379.125 449.71875 373.921875 444.511719 367.519531 444.511719 Z M 355.910156 560.601562 L 181.769531 560.601562 L 181.769531 467.738281 L 355.910156 467.738281 Z M 355.910156 560.601562 " fill-opacity="1" fill-rule="nonzero"/><path fill="#0a3871" d="M 402.335938 479.34375 L 692.5625 479.34375 L 692.5625 456.121094 L 402.335938 456.121094 Z M 402.335938 479.34375 " fill-opacity="1" fill-rule="nonzero"/><path fill="#0a3871" d="M 402.335938 572.210938 L 692.5625 572.210938 L 692.5625 548.996094 L 402.335938 548.996094 Z M 402.335938 572.210938 " fill-opacity="1" fill-rule="nonzero"/><path fill="#0a3871" d="M 402.335938 525.777344 L 692.5625 525.777344 L 692.5625 502.5625 L 402.335938 502.5625 Z M 402.335938 525.777344 " fill-opacity="1" fill-rule="nonzero"/><path fill="#0a3871" d="M 170.15625 618.652344 L 692.5625 618.652344 L 692.5625 595.4375 L 170.15625 595.4375 Z M 170.15625 618.652344 " fill-opacity="1" fill-rule="nonzero"/><path fill="#0a3871" d="M 170.15625 665.085938 L 692.5625 665.085938 L 692.5625 641.867188 L 170.15625 641.867188 Z M 170.15625 665.085938 " fill-opacity="1" fill-rule="nonzero"/><path fill="#0a3871" d="M 246.84375 296.539062 C 246.652344 295.183594 246.199219 293.996094 245.484375 293 C 244.769531 291.996094 243.707031 291.199219 242.304688 290.601562 C 240.890625 290.003906 238.964844 289.703125 236.539062 289.703125 C 234.339844 289.703125 232.605469 290.003906 231.34375 290.601562 C 230.070312 291.199219 229.117188 291.996094 228.476562 293 C 227.832031 293.996094 227.414062 295.183594 227.222656 296.539062 C 227.03125 297.898438 226.933594 299.34375 226.933594 300.878906 L 226.933594 360.316406 L 225.214844 360.316406 L 202.4375 298.582031 C 201.816406 296.910156 200.976562 295.425781 199.929688 294.136719 C 198.976562 293.042969 197.746094 292.027344 196.242188 291.097656 C 194.734375 290.160156 192.789062 289.695312 190.40625 289.695312 L 180.949219 289.695312 C 178.277344 289.695312 176.207031 290.160156 174.753906 291.097656 C 173.292969 292.027344 172.238281 293.273438 171.566406 294.828125 C 170.902344 296.371094 170.503906 298.140625 170.386719 300.125 C 170.269531 302.101562 170.210938 304.117188 170.210938 306.167969 L 170.210938 378.792969 C 170.210938 380.320312 170.304688 381.765625 170.496094 383.117188 C 170.6875 384.480469 171.132812 385.667969 171.855469 386.671875 C 172.570312 387.667969 173.640625 388.472656 175.078125 389.0625 C 176.515625 389.660156 178.464844 389.960938 180.949219 389.960938 C 183.140625 389.960938 184.886719 389.660156 186.148438 389.0625 C 187.410156 388.472656 188.371094 387.667969 189.011719 386.671875 C 189.660156 385.667969 190.074219 384.480469 190.265625 383.117188 C 190.449219 381.765625 190.546875 380.320312 190.546875 378.792969 L 190.546875 319.347656 L 192.265625 319.347656 L 213.898438 377.9375 C 214.230469 378.890625 214.695312 380.0625 215.292969 381.441406 C 215.890625 382.835938 216.695312 384.15625 217.699219 385.417969 C 218.695312 386.6875 219.949219 387.765625 221.453125 388.648438 C 222.957031 389.527344 224.832031 389.96875 227.074219 389.96875 L 236.53125 389.96875 C 239.15625 389.96875 241.199219 389.503906 242.652344 388.574219 C 244.113281 387.632812 245.160156 386.398438 245.808594 384.851562 C 246.445312 383.300781 246.828125 381.539062 246.945312 379.589844 C 247.0625 377.628906 247.128906 375.59375 247.128906 373.492188 L 247.128906 300.878906 C 247.136719 299.34375 247.035156 297.898438 246.84375 296.539062 Z M 246.84375 296.539062 " fill-opacity="1" fill-rule="nonzero"/><path fill="#0a3871" d="M 323.777344 339.152344 C 323.578125 337.175781 323.152344 335.214844 322.480469 333.28125 C 321.808594 331.355469 320.804688 329.46875 319.464844 327.660156 C 318.136719 325.847656 316.320312 324.246094 314.027344 322.859375 C 311.734375 321.480469 308.878906 320.351562 305.46875 319.496094 C 302.046875 318.632812 297.9375 318.199219 293.113281 318.199219 C 291.675781 318.199219 289.972656 318.277344 287.988281 318.417969 C 286.003906 318.566406 283.917969 318.921875 281.71875 319.488281 C 279.519531 320.070312 277.351562 320.941406 275.203125 322.113281 C 273.058594 323.273438 271.125 324.910156 269.40625 327.011719 C 267.6875 329.113281 266.292969 331.734375 265.210938 334.890625 C 264.140625 338.039062 263.601562 341.882812 263.601562 346.417969 L 263.601562 363.199219 C 263.601562 368.113281 264.414062 372.257812 266.042969 375.652344 C 267.660156 379.039062 269.84375 381.789062 272.59375 383.890625 C 275.34375 385.988281 278.507812 387.519531 282.085938 388.472656 C 285.664062 389.429688 289.433594 389.925781 293.394531 389.976562 C 296.40625 389.976562 299.644531 389.71875 303.101562 389.1875 C 306.570312 388.664062 309.769531 387.785156 312.742188 386.539062 C 315.695312 385.300781 318.164062 383.640625 320.113281 381.566406 C 322.074219 379.480469 323.054688 376.898438 323.054688 373.792969 C 323.054688 372.304688 322.789062 371.109375 322.265625 370.179688 C 321.742188 369.25 321.042969 368.519531 320.1875 367.988281 C 319.324219 367.464844 318.328125 367.101562 317.207031 366.910156 C 316.085938 366.726562 314.933594 366.625 313.738281 366.625 C 311.253906 366.625 309.304688 366.851562 307.898438 367.308594 C 306.488281 367.757812 305.402344 368.320312 304.613281 368.984375 C 303.824219 369.65625 303.191406 370.371094 302.710938 371.136719 C 302.238281 371.898438 301.707031 372.621094 301.109375 373.285156 C 300.5 373.949219 299.695312 374.515625 298.667969 374.964844 C 297.636719 375.421875 296.175781 375.644531 294.265625 375.644531 C 292.589844 375.644531 291.175781 375.3125 290.039062 374.640625 C 288.886719 373.976562 287.964844 373.121094 287.273438 372.066406 C 286.585938 371.011719 286.09375 369.863281 285.804688 368.628906 C 285.523438 367.382812 285.371094 366.1875 285.371094 365.039062 L 285.371094 358.164062 L 313.886719 358.164062 C 316.410156 358.164062 318.378906 357.832031 319.757812 357.160156 C 321.136719 356.496094 322.15625 355.699219 322.796875 354.769531 C 323.445312 353.839844 323.816406 352.859375 323.910156 351.828125 C 324 350.800781 324.050781 349.902344 324.050781 349.140625 L 324.058594 349.140625 L 324.058594 344.707031 C 324.066406 342.976562 323.96875 341.136719 323.777344 339.152344 Z M 285.371094 347.421875 L 285.371094 342.40625 C 285.371094 341.601562 285.4375 340.671875 285.589844 339.617188 C 285.730469 338.570312 286.085938 337.566406 286.667969 336.644531 C 287.242188 335.714844 288.089844 334.941406 289.210938 334.316406 C 290.328125 333.695312 291.875 333.386719 293.824219 333.386719 C 296.175781 333.386719 297.976562 333.695312 299.238281 334.316406 C 300.5 334.949219 301.421875 335.855469 302.03125 337.042969 C 302.628906 338.230469 302.984375 339.707031 303.101562 341.449219 C 303.21875 343.1875 303.285156 345.179688 303.285156 347.429688 L 285.371094 347.429688 Z M 285.371094 347.421875 " fill-opacity="1" fill-rule="nonzero"/><path fill="#0a3871" d="M 427.828125 325.152344 C 427.496094 323.863281 426.9375 322.71875 426.183594 321.714844 C 425.417969 320.71875 424.4375 319.902344 423.242188 319.28125 C 422.046875 318.65625 420.59375 318.351562 418.875 318.351562 C 417.207031 318.351562 415.769531 318.640625 414.582031 319.238281 C 413.386719 319.84375 412.355469 320.625 411.5 321.605469 C 410.648438 322.585938 409.914062 323.699219 409.308594 324.933594 C 408.710938 326.179688 408.230469 327.476562 407.847656 328.804688 L 399.820312 356.878906 L 398.679688 356.878906 L 391.082031 336.683594 C 389.695312 332.914062 388.109375 330.289062 386.324219 328.847656 C 384.53125 327.382812 382.496094 326.652344 380.199219 326.652344 C 377.90625 326.652344 375.773438 327.382812 373.789062 328.847656 C 371.804688 330.300781 370.21875 332.921875 369.023438 336.691406 L 362.4375 356.886719 L 361.292969 356.886719 L 352.265625 328.804688 C 351.832031 327.476562 351.308594 326.179688 350.695312 324.933594 C 350.066406 323.699219 349.335938 322.59375 348.46875 321.613281 C 347.617188 320.625 346.652344 319.851562 345.574219 319.246094 C 344.492188 318.65625 343.289062 318.351562 341.953125 318.351562 C 340.042969 318.351562 338.449219 318.640625 337.160156 319.214844 C 335.867188 319.777344 334.828125 320.558594 334.039062 321.53125 C 333.25 322.519531 332.6875 323.648438 332.320312 324.933594 C 331.964844 326.222656 331.78125 327.566406 331.78125 328.945312 C 331.78125 330.242188 331.964844 331.542969 332.320312 332.847656 C 332.675781 334.160156 333.074219 335.398438 333.5 336.542969 L 349.550781 378.800781 C 350.605469 381.605469 351.609375 383.773438 352.554688 385.277344 C 353.519531 386.777344 354.457031 387.875 355.386719 388.5625 C 356.316406 389.261719 357.246094 389.667969 358.175781 389.792969 C 359.105469 389.902344 360.09375 389.960938 361.148438 389.960938 C 362.105469 389.960938 363.019531 389.910156 363.875 389.792969 C 364.738281 389.660156 365.582031 389.261719 366.421875 388.5625 C 367.253906 387.875 368.117188 386.777344 368.996094 385.277344 C 369.875 383.773438 370.839844 381.613281 371.902344 378.800781 L 379.632812 353.015625 L 380.777344 353.015625 L 388.21875 378.800781 C 389.28125 381.605469 390.277344 383.773438 391.234375 385.277344 C 392.1875 386.777344 393.132812 387.875 394.066406 388.5625 C 394.984375 389.261719 395.925781 389.667969 396.855469 389.792969 C 397.785156 389.902344 398.773438 389.960938 399.828125 389.960938 C 400.78125 389.960938 401.695312 389.910156 402.550781 389.792969 C 403.40625 389.660156 404.269531 389.261719 405.125 388.5625 C 405.988281 387.875 406.859375 386.777344 407.742188 385.277344 C 408.628906 383.773438 409.617188 381.613281 410.714844 378.800781 L 426.613281 336.542969 C 427.039062 335.296875 427.4375 334.0625 427.792969 332.847656 C 428.148438 331.636719 428.332031 330.382812 428.332031 329.09375 C 428.332031 327.757812 428.160156 326.445312 427.828125 325.152344 Z M 427.828125 325.152344 " fill-opacity="1" fill-rule="nonzero"/><path fill="#0a3871" d="M 488.019531 360.855469 C 486.746094 358.53125 485.113281 356.496094 483.109375 354.726562 C 481.109375 352.960938 478.882812 351.429688 476.449219 350.109375 C 474.019531 348.789062 471.625 347.570312 469.292969 346.417969 C 467.757812 345.703125 466.289062 344.988281 464.882812 344.273438 C 463.472656 343.558594 462.234375 342.828125 461.15625 342.082031 C 460.085938 341.34375 459.238281 340.578125 458.617188 339.765625 C 458 338.953125 457.683594 338.0625 457.683594 337.109375 C 457.683594 336.0625 457.882812 335.207031 458.234375 334.535156 C 458.589844 333.871094 459.0625 333.328125 459.660156 332.929688 C 460.269531 332.523438 460.933594 332.242188 461.671875 332.066406 C 462.417969 331.902344 463.191406 331.820312 463.996094 331.820312 C 465.949219 331.820312 467.617188 332.300781 468.96875 333.246094 C 470.332031 334.210938 471.054688 335.597656 471.152344 337.40625 C 471.152344 338.070312 471.335938 338.769531 471.691406 339.484375 C 472.058594 340.195312 472.574219 340.84375 473.238281 341.410156 C 473.910156 341.992188 474.707031 342.464844 475.636719 342.84375 C 476.566406 343.234375 477.605469 343.417969 478.75 343.417969 C 480.089844 343.378906 481.375 343.246094 482.621094 343.027344 C 483.859375 342.8125 484.96875 342.4375 485.949219 341.890625 C 486.929688 341.335938 487.710938 340.59375 488.308594 339.664062 C 488.90625 338.734375 489.207031 337.554688 489.207031 336.121094 C 489.207031 335.265625 489.148438 334.21875 489.03125 332.972656 C 488.914062 331.734375 488.597656 330.433594 488.09375 329.070312 C 487.59375 327.707031 486.832031 326.363281 485.800781 325.027344 C 484.769531 323.691406 483.367188 322.484375 481.574219 321.40625 C 479.789062 320.335938 477.539062 319.453125 474.839844 318.789062 C 472.140625 318.125 468.863281 317.792969 465 317.792969 L 463.855469 317.792969 C 459.554688 317.878906 455.726562 318.265625 452.363281 318.941406 C 449 319.605469 446.136719 320.707031 443.800781 322.261719 C 441.460938 323.8125 439.683594 325.839844 438.472656 328.355469 C 437.25 330.855469 436.636719 333.96875 436.636719 337.699219 C 436.636719 340.230469 437.191406 342.480469 438.289062 344.464844 C 439.382812 346.449219 440.8125 348.226562 442.582031 349.804688 C 444.351562 351.375 446.316406 352.808594 448.492188 354.097656 C 450.667969 355.382812 452.828125 356.605469 454.976562 357.75 C 456.699219 358.707031 458.375 359.644531 460.027344 360.574219 C 461.671875 361.503906 463.140625 362.476562 464.4375 363.480469 C 465.722656 364.484375 466.753906 365.570312 467.542969 366.734375 C 468.332031 367.914062 468.730469 369.160156 468.730469 370.496094 C 468.730469 372.066406 468.140625 373.34375 466.96875 374.324219 C 465.804688 375.304688 464.285156 375.792969 462.425781 375.792969 C 461.523438 375.792969 460.589844 375.742188 459.628906 375.621094 C 458.683594 375.503906 457.808594 375.253906 457.019531 374.90625 C 456.230469 374.539062 455.585938 374.074219 455.085938 373.5 C 454.578125 372.929688 454.304688 372.164062 454.265625 371.203125 C 454.164062 368.34375 453.351562 366.269531 451.824219 364.984375 C 450.296875 363.6875 448.335938 363.039062 445.953125 363.039062 C 442.65625 363.039062 440.207031 363.710938 438.605469 365.050781 C 437.011719 366.394531 436.210938 368.488281 436.210938 371.359375 C 436.210938 372.546875 436.34375 373.851562 436.636719 375.253906 C 436.925781 376.664062 437.425781 378.09375 438.140625 379.511719 C 438.851562 380.949219 439.851562 382.328125 441.113281 383.640625 C 442.382812 384.945312 443.992188 386.113281 445.953125 387.144531 C 447.902344 388.175781 450.246094 388.996094 452.96875 389.617188 C 455.683594 390.234375 458.882812 390.546875 462.558594 390.546875 C 464.429688 390.546875 466.402344 390.414062 468.503906 390.148438 C 470.597656 389.882812 472.664062 389.445312 474.699219 388.828125 C 476.734375 388.207031 478.660156 387.367188 480.496094 386.3125 C 482.328125 385.269531 483.949219 383.9375 485.335938 382.34375 C 486.714844 380.742188 487.820312 378.839844 488.65625 376.648438 C 489.503906 374.457031 489.917969 371.914062 489.917969 369.050781 C 489.917969 365.902344 489.28125 363.171875 488.019531 360.855469 Z M 488.019531 360.855469 " fill-opacity="1" fill-rule="nonzero"/></svg>