<svg xmlns="http://www.w3.org/2000/svg" xmlns:xlink="http://www.w3.org/1999/xlink" width="1024" zoomAndPan="magnify" viewBox="0 0 768 767.999994" height="1024" preserveAspectRatio="xMidYMid meet" version="1.0"><defs><clipPath id="da412f66ac"><path d="M 161.28125 189 L 606.53125 189 L 606.53125 767.992188 L 161.28125 767.992188 Z M 161.28125 189 " clip-rule="nonzero"/></clipPath></defs><path fill="#ffffff" d="M 383.933594 165.785156 C 429.714844 165.785156 466.851562 128.707031 466.851562 82.925781 C 466.851562 37.148438 429.714844 0.0078125 383.933594 0.0078125 C 338.15625 0.0078125 301.015625 37.148438 301.015625 82.925781 C 301.015625 128.707031 338.15625 165.785156 383.933594 165.785156 " fill-opacity="1" fill-rule="nonzero"/><g clip-path="url(#da412f66ac)"><path fill="#ffffff" d="M 602.871094 431.277344 L 514.910156 240.242188 C 498.652344 209.222656 466.554688 189.722656 431.453125 189.722656 L 336.414062 189.722656 C 301.375 189.722656 269.21875 209.222656 252.957031 240.242188 L 165.058594 431.277344 C 156.121094 448.378906 163.621094 467.878906 182.28125 472.859375 C 193.980469 475.976562 205.917969 471.539062 212.757812 462.179688 L 290.816406 324.480469 C 291.777344 321.722656 295.855469 322.980469 295.136719 383.941406 L 293.398438 666.59375 L 293.398438 728.871094 C 293.398438 750.472656 310.917969 767.992188 332.515625 767.992188 C 354.054688 767.992188 371.574219 750.472656 371.574219 728.871094 L 371.574219 528.65625 C 371.574219 521.816406 377.09375 516.296875 383.933594 516.296875 C 390.773438 516.296875 396.292969 521.816406 396.292969 528.65625 L 396.292969 728.871094 C 396.292969 750.472656 413.8125 767.992188 435.414062 767.992188 C 457.011719 767.992188 474.472656 750.472656 474.472656 728.871094 L 474.472656 666.59375 L 472.734375 383.941406 C 472.011719 322.980469 476.09375 321.722656 477.050781 324.480469 L 555.109375 462.179688 C 561.949219 471.539062 573.949219 475.976562 585.648438 472.859375 C 604.25 467.878906 611.808594 448.378906 602.871094 431.277344 " fill-opacity="1" fill-rule="nonzero"/></g></svg>