<svg xmlns="http://www.w3.org/2000/svg" xmlns:xlink="http://www.w3.org/1999/xlink" width="1024" zoomAndPan="magnify" viewBox="0 0 768 767.999994" height="1024" preserveAspectRatio="xMidYMid meet" version="1.0"><defs><clipPath id="12ebc034c5"><path d="M 0 9.078125 L 766 9.078125 L 766 759 L 0 759 Z M 0 9.078125 " clip-rule="nonzero"/></clipPath></defs><g clip-path="url(#12ebc034c5)"><path fill="#ffffff" d="M 73.898438 758.914062 L 525.78125 758.914062 C 566.382812 758.914062 599.3125 725.984375 599.3125 685.382812 L 599.3125 546.476562 L 722.234375 265.789062 C 728.46875 270.902344 733.421875 277.617188 736.460938 285.289062 C 741.09375 297.117188 740.777344 310.066406 735.660156 321.734375 L 681.3125 446.253906 L 704.808594 456.484375 L 759.316406 332.125 C 767.148438 314.222656 767.628906 294.402344 760.4375 276.179688 C 754.84375 261.953125 745.25 250.285156 732.941406 241.972656 L 749.246094 204.886719 C 760.597656 178.992188 748.769531 148.78125 722.871094 137.433594 L 710.246094 131.835938 C 697.777344 126.402344 683.871094 126.082031 671.082031 131.039062 C 658.296875 135.992188 648.382812 145.585938 642.789062 158.210938 L 621.851562 206.007812 L 599.472656 257.15625 L 599.472656 197.375 L 411.015625 9.078125 L 73.578125 9.078125 C 33.140625 9.078125 0.371094 41.84375 0.371094 82.285156 L 0.371094 685.542969 C 0.371094 725.984375 33.296875 758.914062 73.898438 758.914062 Z M 666.128906 168.441406 C 668.84375 162.207031 673.960938 157.414062 680.195312 154.855469 C 686.429688 152.296875 693.460938 152.457031 699.695312 155.175781 L 712.324219 160.769531 C 725.269531 166.363281 731.183594 181.550781 725.429688 194.496094 L 709.605469 230.621094 L 650.144531 204.566406 Z M 640.074219 228.066406 L 686.585938 248.367188 L 699.535156 254.121094 L 570.539062 548.554688 L 511.078125 522.5 Z M 559.03125 571.414062 L 514.113281 596.828125 L 502.285156 546.476562 Z M 418.527344 52.714844 L 555.675781 189.863281 L 466 190.023438 C 466 190.023438 466 190.023438 465.839844 190.023438 C 453.214844 190.023438 441.226562 185.066406 432.273438 176.113281 C 423.320312 167.164062 418.367188 155.175781 418.367188 142.386719 Z M 25.945312 82.285156 C 25.945312 56.070312 47.363281 34.652344 73.578125 34.652344 L 393.109375 34.652344 L 392.953125 142.386719 C 392.953125 162.046875 400.464844 180.429688 414.371094 194.175781 C 428.117188 207.925781 446.5 215.597656 466.160156 215.597656 C 466.160156 215.597656 466.320312 215.597656 466.320312 215.597656 L 574.054688 215.4375 L 574.054688 315.5 L 496.371094 493.089844 L 496.371094 491.96875 L 103.628906 491.96875 L 103.628906 517.546875 L 485.183594 517.546875 L 476.390625 537.847656 C 475.273438 540.402344 474.953125 543.28125 475.589844 545.839844 L 487.738281 597.628906 L 103.628906 597.628906 L 103.628906 623.203125 L 494.613281 623.203125 C 495.890625 625.28125 497.96875 627.039062 500.367188 628.160156 C 501.964844 628.796875 503.722656 629.277344 505.484375 629.277344 C 507.71875 629.277344 509.796875 628.796875 511.714844 627.679688 L 573.738281 592.511719 L 573.738281 685.542969 C 573.738281 712.078125 552.15625 733.496094 525.78125 733.496094 L 73.898438 733.496094 C 47.363281 733.496094 25.945312 711.917969 25.945312 685.542969 Z M 25.945312 82.285156 " fill-opacity="1" fill-rule="nonzero"/></g><path fill="#ffffff" d="M 299.921875 280.652344 L 496.050781 280.652344 L 496.050781 306.230469 L 299.921875 306.230469 Z M 299.921875 280.652344 " fill-opacity="1" fill-rule="nonzero"/><path fill="#ffffff" d="M 103.628906 386.3125 L 495.890625 386.3125 L 495.890625 411.886719 L 103.628906 411.886719 Z M 103.628906 386.3125 " fill-opacity="1" fill-rule="nonzero"/><path fill="#0a3871" d="M 360.191406 5.359375 C 352.25 5.292969 345.402344 10.992188 343.992188 18.804688 L 335.027344 67.851562 C 327.34375 70.347656 319.917969 73.355469 312.617188 76.941406 L 272.34375 47.871094 C 265.878906 43.199219 256.914062 43.839844 251.277344 49.539062 L 216.253906 83.984375 C 210.621094 89.621094 209.789062 98.457031 214.335938 104.984375 L 242.636719 145.964844 C 238.921875 153.199219 235.785156 160.628906 233.285156 168.246094 L 184.175781 176.1875 C 176.300781 177.402344 170.476562 184.191406 170.410156 192.257812 L 170.089844 241.429688 C 170.027344 249.371094 175.726562 256.222656 183.535156 257.628906 L 232.773438 266.59375 C 235.207031 274.214844 238.28125 281.578125 241.867188 288.8125 L 212.605469 329.277344 C 207.929688 335.746094 208.570312 344.710938 214.207031 350.40625 L 248.78125 385.367188 C 254.351562 391 263.1875 391.835938 269.71875 387.289062 L 311.210938 358.730469 C 318.378906 362.382812 325.742188 365.390625 333.300781 367.886719 L 341.75 417.574219 C 343.097656 425.449219 349.820312 431.210938 357.824219 431.277344 L 406.933594 431.53125 C 415 431.597656 421.851562 425.769531 423.195312 417.894531 L 431.582031 368.273438 C 439.074219 365.839844 446.375 362.894531 453.480469 359.308594 L 494.652344 388.570312 C 501.183594 393.179688 510.019531 392.410156 515.652344 386.839844 L 550.675781 352.328125 C 556.375 346.695312 557.144531 337.730469 552.46875 331.136719 L 523.273438 290.15625 C 526.921875 283.050781 529.996094 275.816406 532.492188 268.386719 L 582.371094 259.933594 C 590.183594 258.589844 595.945312 251.804688 596.007812 243.800781 L 596.265625 194.691406 C 596.328125 186.6875 590.566406 179.835938 582.625 178.492188 L 533.195312 170.101562 C 530.761719 162.546875 527.753906 155.183594 524.234375 147.949219 L 553.300781 106.90625 C 557.976562 100.441406 557.269531 91.605469 551.636719 85.90625 L 517.0625 50.945312 C 511.425781 45.3125 502.460938 44.480469 495.933594 49.152344 L 455.335938 77.964844 C 448.167969 74.316406 440.867188 71.242188 433.375 68.746094 L 425.4375 19.445312 C 424.15625 11.503906 417.367188 5.679688 409.300781 5.613281 Z M 373.765625 38.203125 L 395.277344 38.332031 L 402.386719 82.640625 C 403.410156 89.105469 408.210938 94.292969 414.488281 95.894531 C 426.523438 98.96875 438.113281 103.898438 449 110.492188 C 454.570312 113.949219 461.675781 113.695312 466.992188 109.917969 L 503.550781 83.984375 L 518.660156 99.222656 L 492.347656 136.105469 C 488.632812 141.417969 488.3125 148.398438 491.640625 153.96875 C 498.109375 164.917969 502.847656 176.570312 505.664062 188.542969 C 507.199219 194.945312 512.386719 199.8125 518.917969 200.964844 L 563.417969 208.457031 L 563.289062 229.90625 L 518.34375 237.460938 C 511.9375 238.550781 506.753906 243.351562 505.152344 249.625 C 502.144531 261.535156 497.339844 273.0625 490.746094 283.816406 C 487.351562 289.453125 487.609375 296.558594 491.449219 301.875 L 517.636719 338.820312 L 502.460938 353.867188 L 465.261719 327.484375 C 459.949219 323.707031 452.96875 323.453125 447.398438 326.78125 C 436.511719 333.25 424.988281 337.859375 413.015625 340.804688 C 406.613281 342.339844 401.808594 347.527344 400.722656 353.992188 L 393.167969 398.683594 L 371.78125 398.492188 L 364.226562 353.671875 C 363.136719 347.269531 358.335938 342.085938 351.933594 340.546875 C 340.085938 337.601562 328.433594 332.734375 317.546875 326.203125 C 312.042969 322.875 305.0625 323.066406 299.75 326.78125 L 262.417969 352.519531 L 247.308594 337.21875 L 273.625 300.851562 C 277.464844 295.535156 277.785156 288.429688 274.394531 282.792969 C 267.925781 271.84375 263.1875 260.191406 260.242188 248.152344 C 258.707031 241.878906 253.648438 237.078125 247.246094 235.859375 L 202.9375 227.855469 L 203.128906 206.34375 L 247.246094 199.234375 C 253.710938 198.210938 258.960938 193.410156 260.5625 187.070312 C 263.636719 174.96875 268.4375 163.316406 275.097656 152.429688 C 278.492188 146.925781 278.296875 139.882812 274.585938 134.566406 L 249.164062 97.6875 L 264.40625 82.578125 L 300.644531 108.699219 C 305.894531 112.542969 312.9375 112.863281 318.574219 109.597656 C 329.585938 103 341.304688 98.328125 353.40625 95.382812 C 359.742188 93.910156 364.546875 88.785156 365.699219 82.449219 Z M 382.984375 137.066406 C 361.921875 136.9375 340.789062 144.8125 324.71875 160.753906 C 292.578125 192.511719 292.320312 244.824219 324.078125 277.03125 C 355.835938 309.171875 408.210938 309.429688 440.355469 277.671875 C 472.496094 245.914062 472.753906 193.539062 440.996094 161.394531 C 425.117188 145.324219 404.050781 137.191406 382.984375 137.066406 Z M 382.859375 169.65625 C 395.472656 169.71875 408.019531 174.648438 417.6875 184.445312 C 437.027344 203.972656 436.832031 235.027344 417.304688 254.300781 C 397.777344 273.636719 366.722656 273.507812 347.386719 253.980469 C 328.050781 234.386719 328.242188 203.335938 347.769531 184.0625 C 357.566406 174.394531 370.179688 169.589844 382.859375 169.65625 Z M 209.789062 431.53125 C 167.015625 431.53125 147.296875 441.777344 126.039062 449.972656 C 126.039062 450.035156 126.039062 450.035156 126.039062 450.035156 C 85.253906 465.914062 15.460938 498.824219 15.460938 498.824219 C 7.265625 502.667969 3.746094 512.464844 7.585938 520.660156 C 11.492188 528.855469 21.289062 532.378906 29.484375 528.535156 C 29.484375 528.535156 99.722656 495.433594 137.882812 480.578125 C 161.445312 471.421875 171.691406 464.316406 209.789062 464.316406 C 293.859375 464.316406 290.464844 500.8125 325.9375 521.683594 C 326.449219 522.003906 327.023438 522.324219 327.601562 522.515625 C 371.589844 542.238281 418.839844 546.269531 456.9375 546.269531 C 473.777344 546.269531 484.40625 550.175781 490.167969 554.53125 C 495.867188 558.949219 497.917969 563.496094 497.917969 570.859375 C 497.917969 579.503906 495.738281 583.601562 490.042969 587.761719 C 484.40625 591.859375 473.523438 595.445312 456.9375 595.445312 L 370.882812 595.445312 C 334.773438 595.445312 272.601562 579.566406 272.601562 579.566406 C 266.964844 578.03125 260.882812 579.695312 256.722656 583.855469 C 252.558594 588.019531 250.957031 594.101562 252.496094 599.734375 C 254.097656 605.433594 258.578125 609.851562 264.277344 611.324219 C 264.277344 611.324219 325.9375 628.226562 370.882812 628.226562 L 456.9375 628.226562 C 473.648438 628.226562 488.183594 625.472656 500.351562 619.457031 C 501.949219 619.007812 503.488281 618.304688 504.832031 617.34375 L 660.292969 515.34375 C 683.664062 501.835938 699.605469 498.058594 708.953125 498.1875 C 718.304688 498.378906 721.503906 501.195312 724.320312 504.78125 C 728.484375 510.160156 728.738281 512.207031 726.050781 518.417969 C 723.296875 524.695312 715.292969 534.363281 700.886719 544.351562 C 700.886719 544.351562 700.886719 544.351562 700.824219 544.351562 C 683.023438 556.773438 483.957031 686.492188 460.972656 699.554688 C 443.621094 709.417969 429.855469 719.789062 414.167969 724.207031 C 398.480469 728.5625 379.976562 728.5625 349.371094 713.960938 C 328.945312 704.164062 241.996094 659.601562 213.820312 645.324219 C 198.136719 637.382812 184.753906 632.902344 171.113281 633.671875 C 157.414062 634.4375 145.824219 640.265625 133.851562 647.820312 C 133.785156 647.820312 133.722656 647.882812 133.722656 647.949219 L 93.128906 673.878906 C 88.003906 676.953125 84.996094 682.589844 85.1875 688.542969 C 85.378906 694.496094 88.839844 699.875 94.152344 702.566406 C 99.53125 705.253906 105.871094 704.871094 110.800781 701.476562 L 151.203125 675.609375 C 161.640625 669.078125 167.53125 666.707031 172.90625 666.390625 C 178.285156 666.070312 185.648438 667.796875 199.03125 674.585938 C 226.949219 688.734375 312.554688 732.660156 335.285156 743.480469 C 370.949219 760.574219 399.824219 762.175781 422.9375 755.773438 C 446.054688 749.304688 462.507812 736.371094 477.171875 728.046875 C 508.800781 710.054688 696.726562 587.121094 719.582031 571.242188 C 736.933594 559.140625 749.675781 546.527344 756.144531 531.417969 C 762.609375 516.304688 760.496094 497.867188 750.1875 484.675781 C 750.1875 484.675781 750.1875 484.675781 750.1875 484.613281 C 742.058594 474.238281 727.652344 465.789062 709.53125 465.402344 C 699.222656 465.210938 687.761719 467.582031 675.019531 472.253906 C 672.652344 469.117188 669.066406 465.019531 664.136719 461.433594 C 654.59375 454.324219 639.421875 447.921875 618.804688 447.921875 C 608.238281 447.921875 599.59375 450.355469 592.679688 453.238281 C 582.820312 443.824219 565.339844 431.851562 539.917969 431.851562 C 519.300781 431.851562 499.964844 438.765625 486.519531 446.707031 C 484.023438 448.179688 478.003906 451.957031 467.757812 458.359375 C 457.515625 464.761719 444.132812 473.023438 430.941406 481.28125 C 409.878906 494.40625 396.816406 502.605469 389.261719 507.34375 C 373.1875 504.140625 357.117188 499.59375 341.941406 492.933594 C 329.007812 484.613281 304.101562 431.53125 209.789062 431.53125 Z M 539.917969 464.636719 C 550.292969 464.636719 557.71875 467.261719 562.96875 470.332031 L 487.160156 517.332031 C 478.132812 514.769531 468.015625 513.488281 456.9375 513.488281 C 452.199219 513.488281 447.015625 513.167969 442.082031 512.976562 C 445.15625 511.054688 445.15625 511.054688 448.292969 509.132812 C 461.484375 500.875 474.800781 492.550781 485.109375 486.148438 C 495.355469 479.808594 503.742188 474.625 503.167969 474.945312 C 510.914062 470.332031 527.753906 464.636719 539.917969 464.636719 Z M 618.804688 480.707031 C 632.121094 480.707031 639.292969 484.097656 643.644531 487.109375 C 643.390625 487.238281 643.199219 487.363281 642.941406 487.558594 L 529.675781 561.832031 C 528.136719 552.675781 524.359375 543.902344 518.34375 536.601562 L 597.546875 487.492188 L 597.609375 487.363281 C 598.25 487.042969 611.953125 480.707031 618.804688 480.707031 Z M 618.804688 480.707031 " fill-opacity="1" fill-rule="nonzero"/></svg>