<svg xmlns="http://www.w3.org/2000/svg" xmlns:xlink="http://www.w3.org/1999/xlink" width="1024" zoomAndPan="magnify" viewBox="0 0 768 767.999994" height="1024" preserveAspectRatio="xMidYMid meet" version="1.0"><path fill="#ffffff" d="M 243.910156 32.027344 C 243.910156 32.027344 243.761719 31.875 243.761719 31.875 C 243.460938 32.027344 243.160156 32.027344 242.710938 32.027344 C 243.011719 32.175781 243.3125 32.175781 243.910156 32.027344 Z M 243.910156 32.027344 " fill-opacity="1" fill-rule="nonzero"/><path fill="#ffffff" d="M 242.261719 29.78125 C 242.113281 29.179688 241.964844 29.179688 242.261719 29.78125 Z M 242.261719 29.78125 " fill-opacity="1" fill-rule="nonzero"/><path fill="#ffffff" d="M 732.074219 41.609375 C 723.089844 19.296875 698.683594 6.71875 675.023438 9.5625 C 649.714844 12.558594 634.292969 33.972656 620.964844 53.4375 C 565.410156 135.347656 510.15625 217.707031 455.796875 300.515625 C 401.742188 382.726562 345.886719 464.933594 299.015625 551.636719 C 291.980469 549.242188 284.789062 547.445312 277.003906 546.546875 C 244.960938 542.800781 217.707031 555.679688 195.09375 577.691406 C 150.917969 620.820312 118.574219 707.671875 49.542969 715.457031 C 37.265625 716.804688 18.847656 732.675781 40.410156 736.71875 C 88.328125 745.703125 136.695312 752.292969 185.359375 756.039062 C 226.988281 759.332031 269.515625 761.277344 306.652344 738.816406 C 335.855469 721.148438 356.667969 692.546875 369.695312 661.550781 C 379.429688 638.339844 386.917969 610.039062 380.625 585.179688 C 431.242188 529.773438 475.117188 467.179688 519.140625 406.683594 C 577.242188 326.722656 633.695312 245.5625 687.601562 162.753906 C 709.613281 129.058594 749.148438 84.136719 732.074219 41.609375 Z M 338.101562 657.957031 C 327.167969 685.507812 308.601562 713.210938 281.644531 727.285156 C 249.152344 744.207031 206.027344 735.671875 171.136719 732.226562 C 170.085938 732.078125 169.039062 731.929688 167.992188 731.929688 C 223.097656 733.277344 283.144531 722.792969 305.007812 667.988281 C 308.152344 659.902344 274.757812 657.804688 271.613281 665.59375 C 252.296875 714.257812 205.128906 721.746094 159.304688 719.648438 C 173.832031 714.410156 187.605469 707.519531 200.035156 697.9375 C 225.640625 678.171875 244.0625 651.066406 261.878906 624.414062 C 270.117188 612.132812 237.320312 602.398438 230.132812 613.03125 C 214.5625 636.390625 198.6875 660.652344 177.125 678.917969 C 158.855469 694.34375 137.441406 702.578125 114.832031 708.71875 C 138.492188 691.496094 158.40625 668.136719 176.527344 643.429688 C 194.496094 618.871094 215.308594 582.183594 244.359375 569.757812 C 275.957031 556.277344 311.296875 588.023438 333.757812 606.292969 C 337.351562 609.136719 343.339844 609.4375 349.179688 607.941406 C 349.480469 625.011719 344.238281 642.679688 338.101562 657.957031 Z M 654.058594 154.367188 C 602.996094 232.53125 549.6875 309.351562 494.882812 384.972656 C 453.101562 442.773438 411.324219 502.671875 364.003906 556.878906 C 352.625 552.234375 329.714844 561.070312 335.703125 570.804688 C 333.457031 569.308594 331.210938 567.660156 328.816406 566.164062 C 365.953125 497.128906 409.527344 431.242188 452.054688 365.65625 C 505.363281 283.445312 559.871094 201.984375 614.527344 120.824219 C 625.757812 104.050781 636.988281 87.429688 648.367188 70.660156 C 657.203125 57.480469 685.054688 10.011719 698.234375 39.214844 C 715.605469 77.398438 673.675781 124.417969 654.058594 154.367188 Z M 654.058594 154.367188 " fill-opacity="1" fill-rule="nonzero"/></svg>