<svg xmlns="http://www.w3.org/2000/svg" xmlns:xlink="http://www.w3.org/1999/xlink" width="1024" zoomAndPan="magnify" viewBox="0 0 768 767.999994" height="1024" preserveAspectRatio="xMidYMid meet" version="1.0"><defs><clipPath id="143fe5a6ad"><path d="M 0 9.078125 L 766 9.078125 L 766 759 L 0 759 Z M 0 9.078125 " clip-rule="nonzero"/></clipPath><clipPath id="40ecb0344b"><path d="M 104 12.984375 L 664 12.984375 L 664 759 L 104 759 Z M 104 12.984375 " clip-rule="nonzero"/></clipPath></defs><g clip-path="url(#143fe5a6ad)"><path fill="#ffffff" d="M 73.898438 758.914062 L 525.78125 758.914062 C 566.382812 758.914062 599.3125 725.984375 599.3125 685.382812 L 599.3125 546.476562 L 722.234375 265.789062 C 728.46875 270.902344 733.421875 277.617188 736.460938 285.289062 C 741.09375 297.117188 740.777344 310.066406 735.660156 321.734375 L 681.3125 446.253906 L 704.808594 456.484375 L 759.316406 332.125 C 767.148438 314.222656 767.628906 294.402344 760.4375 276.179688 C 754.84375 261.953125 745.25 250.285156 732.941406 241.972656 L 749.246094 204.886719 C 760.597656 178.992188 748.769531 148.78125 722.871094 137.433594 L 710.246094 131.835938 C 697.777344 126.402344 683.871094 126.082031 671.082031 131.039062 C 658.296875 135.992188 648.382812 145.585938 642.789062 158.210938 L 621.851562 206.007812 L 599.472656 257.15625 L 599.472656 197.375 L 411.015625 9.078125 L 73.578125 9.078125 C 33.140625 9.078125 0.371094 41.84375 0.371094 82.285156 L 0.371094 685.542969 C 0.371094 725.984375 33.296875 758.914062 73.898438 758.914062 Z M 666.128906 168.441406 C 668.84375 162.207031 673.960938 157.414062 680.195312 154.855469 C 686.429688 152.296875 693.460938 152.457031 699.695312 155.175781 L 712.324219 160.769531 C 725.269531 166.363281 731.183594 181.550781 725.429688 194.496094 L 709.605469 230.621094 L 650.144531 204.566406 Z M 640.074219 228.066406 L 686.585938 248.367188 L 699.535156 254.121094 L 570.539062 548.554688 L 511.078125 522.5 Z M 559.03125 571.414062 L 514.113281 596.828125 L 502.285156 546.476562 Z M 418.527344 52.714844 L 555.675781 189.863281 L 466 190.023438 C 466 190.023438 466 190.023438 465.839844 190.023438 C 453.214844 190.023438 441.226562 185.066406 432.273438 176.113281 C 423.320312 167.164062 418.367188 155.175781 418.367188 142.386719 Z M 25.945312 82.285156 C 25.945312 56.070312 47.363281 34.652344 73.578125 34.652344 L 393.109375 34.652344 L 392.953125 142.386719 C 392.953125 162.046875 400.464844 180.429688 414.371094 194.175781 C 428.117188 207.925781 446.5 215.597656 466.160156 215.597656 C 466.160156 215.597656 466.320312 215.597656 466.320312 215.597656 L 574.054688 215.4375 L 574.054688 315.5 L 496.371094 493.089844 L 496.371094 491.96875 L 103.628906 491.96875 L 103.628906 517.546875 L 485.183594 517.546875 L 476.390625 537.847656 C 475.273438 540.402344 474.953125 543.28125 475.589844 545.839844 L 487.738281 597.628906 L 103.628906 597.628906 L 103.628906 623.203125 L 494.613281 623.203125 C 495.890625 625.28125 497.96875 627.039062 500.367188 628.160156 C 501.964844 628.796875 503.722656 629.277344 505.484375 629.277344 C 507.71875 629.277344 509.796875 628.796875 511.714844 627.679688 L 573.738281 592.511719 L 573.738281 685.542969 C 573.738281 712.078125 552.15625 733.496094 525.78125 733.496094 L 73.898438 733.496094 C 47.363281 733.496094 25.945312 711.917969 25.945312 685.542969 Z M 25.945312 82.285156 " fill-opacity="1" fill-rule="nonzero"/></g><path fill="#ffffff" d="M 299.921875 280.652344 L 496.050781 280.652344 L 496.050781 306.230469 L 299.921875 306.230469 Z M 299.921875 280.652344 " fill-opacity="1" fill-rule="nonzero"/><path fill="#ffffff" d="M 103.628906 386.3125 L 495.890625 386.3125 L 495.890625 411.886719 L 103.628906 411.886719 Z M 103.628906 386.3125 " fill-opacity="1" fill-rule="nonzero"/><g clip-path="url(#40ecb0344b)"><path fill="#0a3871" d="M 618.699219 327.945312 C 584.820312 266.683594 562.4375 226.210938 641.191406 163.726562 C 643.832031 161.632812 645.472656 158.53125 645.714844 155.171875 C 645.957031 151.8125 644.78125 148.503906 642.472656 146.054688 L 560.878906 59.410156 C 558.574219 56.960938 555.277344 55.554688 551.972656 55.640625 C 548.605469 55.679688 545.402344 57.136719 543.152344 59.636719 C 542.84375 59.980469 511.847656 93.929688 473.578125 89.515625 C 444.976562 86.214844 418.402344 62.5625 394.59375 19.222656 C 392.480469 15.375 388.4375 12.984375 384.050781 12.984375 C 379.660156 12.984375 375.617188 15.375 373.503906 19.222656 C 349.695312 62.5625 323.125 86.214844 294.523438 89.515625 C 256.246094 93.9375 225.253906 59.980469 224.964844 59.660156 C 222.722656 57.136719 219.523438 55.675781 216.148438 55.625 C 212.738281 55.542969 209.535156 56.953125 207.21875 59.410156 L 125.625 146.054688 C 123.316406 148.503906 122.144531 151.8125 122.386719 155.171875 C 122.628906 158.53125 124.269531 161.632812 126.90625 163.726562 C 205.664062 226.210938 183.28125 266.683594 149.402344 327.945312 C 126.921875 368.589844 101.441406 414.660156 104.53125 475.066406 C 111.667969 614.574219 205.226562 656.945312 280.402344 690.996094 C 321.476562 709.601562 356.949219 725.667969 373.792969 753.167969 C 375.976562 756.742188 379.863281 758.917969 384.050781 758.917969 C 388.238281 758.917969 392.125 756.742188 394.308594 753.167969 C 411.152344 725.667969 446.625 709.601562 487.699219 690.996094 C 562.875 656.945312 656.433594 614.574219 663.570312 475.066406 C 666.660156 414.660156 641.179688 368.589844 618.699219 327.945312 Z M 214.265625 152.835938 L 223.292969 143.25 C 244.191406 153.769531 265.757812 159.097656 287.542969 159.097656 C 312.152344 159.09375 348.105469 151.839844 384.050781 118.796875 C 419.996094 151.847656 455.949219 159.097656 480.558594 159.097656 C 480.5625 159.097656 480.566406 159.097656 480.570312 159.097656 C 502.339844 159.09375 523.90625 153.769531 544.804688 143.246094 L 553.835938 152.835938 C 525.59375 188.15625 514.554688 225.046875 520.117188 265.285156 C 525.160156 301.746094 542.695312 333.453125 558.164062 361.425781 C 577.914062 397.128906 596.5625 430.847656 594.480469 471.53125 C 592.214844 515.839844 579.117188 548.011719 553.265625 572.773438 C 528.355469 596.636719 493.179688 612.570312 459.15625 627.980469 C 433.601562 639.554688 407.257812 651.484375 384.050781 667.433594 C 360.84375 651.484375 334.5 639.554688 308.949219 627.980469 C 274.925781 612.570312 239.746094 596.636719 214.839844 572.773438 C 188.984375 548.011719 175.890625 515.839844 173.621094 471.53125 C 171.542969 430.847656 190.195312 397.125 209.941406 361.425781 C 225.410156 333.453125 242.945312 301.746094 247.988281 265.285156 C 253.546875 225.046875 242.507812 188.15625 214.265625 152.835938 Z M 214.265625 152.835938 " fill-opacity="1" fill-rule="nonzero"/></g><path fill="#0a3871" d="M 507.929688 334.355469 L 429.785156 323 L 394.839844 252.1875 C 392.8125 248.082031 388.628906 245.484375 384.050781 245.484375 C 379.46875 245.484375 375.289062 248.082031 373.261719 252.1875 L 338.3125 323 L 260.167969 334.355469 C 255.632812 335.011719 251.867188 338.1875 250.453125 342.542969 C 249.039062 346.898438 250.21875 351.679688 253.5 354.878906 L 310.046875 409.996094 L 296.695312 487.828125 C 295.921875 492.339844 297.777344 496.902344 301.484375 499.59375 C 305.1875 502.285156 310.101562 502.640625 314.152344 500.507812 L 384.050781 463.761719 L 453.949219 500.507812 C 455.707031 501.433594 457.628906 501.890625 459.542969 501.890625 C 462.039062 501.890625 464.523438 501.113281 466.617188 499.59375 C 470.324219 496.902344 472.175781 492.339844 471.40625 487.828125 L 458.054688 409.996094 L 514.601562 354.878906 C 517.882812 351.679688 519.0625 346.898438 517.644531 342.542969 C 516.230469 338.1875 512.464844 335.011719 507.929688 334.355469 Z M 507.929688 334.355469 " fill-opacity="1" fill-rule="nonzero"/></svg>