<svg xmlns="http://www.w3.org/2000/svg" xmlns:xlink="http://www.w3.org/1999/xlink" width="1024" zoomAndPan="magnify" viewBox="0 0 768 767.999994" height="1024" preserveAspectRatio="xMidYMid meet" version="1.0"><defs><clipPath id="55b62b8397"><path d="M 80.707031 9.765625 L 687.457031 9.765625 L 687.457031 768 L 80.707031 768 Z M 80.707031 9.765625 " clip-rule="nonzero"/></clipPath></defs><g clip-path="url(#55b62b8397)"><path fill="#0a3871" d="M 80.707031 692.167969 C 80.707031 734.046875 114.652344 767.992188 156.53125 767.992188 L 611.46875 767.992188 C 653.347656 767.992188 687.289062 734.046875 687.289062 692.167969 C 687.289062 633.179688 687.289062 536.734375 687.289062 481.609375 C 687.289062 444.960938 661.082031 413.570312 625.039062 407.027344 C 571.609375 397.292969 479.484375 380.539062 427.371094 371.085938 C 398.683594 365.855469 369.316406 365.855469 340.628906 371.085938 C 288.511719 380.539062 196.390625 397.292969 142.957031 407.027344 C 106.917969 413.570312 80.707031 444.960938 80.707031 481.609375 Z M 442.332031 425.171875 L 480.269531 569.414062 C 485.246094 588.34375 478.574219 608.4375 463.257812 620.667969 C 450.320312 630.980469 429.921875 647.257812 415.769531 658.578125 C 397.191406 673.390625 370.804688 673.390625 352.230469 658.578125 C 338.074219 647.257812 317.679688 630.980469 304.738281 620.667969 C 289.421875 608.4375 282.75 588.34375 287.730469 569.414062 L 325.667969 425.171875 L 152.007812 456.738281 C 140 458.9375 131.257812 469.402344 131.257812 481.609375 L 131.257812 692.167969 C 131.257812 706.121094 142.578125 717.445312 156.53125 717.445312 C 262.277344 717.445312 505.71875 717.445312 611.46875 717.445312 C 625.417969 717.445312 636.742188 706.121094 636.742188 692.167969 C 636.742188 633.179688 636.742188 536.734375 636.742188 481.609375 C 636.742188 469.402344 627.996094 458.9375 615.992188 456.738281 Z M 388.117188 417.765625 C 385.363281 417.691406 382.632812 417.691406 379.878906 417.765625 L 336.8125 581.59375 L 383.773438 619.050781 C 383.898438 619.175781 384.101562 619.175781 384.226562 619.050781 L 431.1875 581.59375 Z M 384 9.765625 C 293.339844 9.765625 219.714844 83.390625 219.714844 174.046875 C 219.714844 264.707031 293.339844 338.332031 384 338.332031 C 474.65625 338.332031 548.28125 264.707031 548.28125 174.046875 C 548.28125 83.390625 474.65625 9.765625 384 9.765625 Z M 384 60.3125 C 446.78125 60.3125 497.734375 111.265625 497.734375 174.046875 C 497.734375 236.828125 446.78125 287.78125 384 287.78125 C 321.21875 287.78125 270.265625 236.828125 270.265625 174.046875 C 270.265625 111.265625 321.21875 60.3125 384 60.3125 Z M 384 60.3125 " fill-opacity="1" fill-rule="evenodd"/></g></svg>