<svg xmlns="http://www.w3.org/2000/svg" xmlns:xlink="http://www.w3.org/1999/xlink" width="1024" zoomAndPan="magnify" viewBox="0 0 768 767.999994" height="1024" preserveAspectRatio="xMidYMid meet" version="1.0"><defs><clipPath id="02b91a8987"><path d="M 63.597656 11 L 703 11 L 703 765 L 63.597656 765 Z M 63.597656 11 " clip-rule="nonzero"/></clipPath></defs><g clip-path="url(#02b91a8987)"><path fill="#0a3871" d="M 693.664062 156.117188 C 687.808594 149.476562 679.585938 145.644531 670.925781 145.410156 C 603.773438 143.652344 518.800781 71.847656 462.621094 43.671875 C 427.917969 26.320312 405.007812 14.878906 387.800781 11.863281 C 386.015625 11.628906 384.292969 11.453125 382.535156 11.453125 C 380.78125 11.453125 379.054688 11.628906 377.269531 11.894531 C 360.0625 14.90625 337.152344 26.347656 302.480469 43.699219 C 246.296875 71.847656 161.324219 143.652344 94.171875 145.410156 C 85.511719 145.644531 77.261719 149.503906 71.410156 156.117188 C 65.496094 162.730469 62.453125 171.539062 62.894531 180.523438 C 77.320312 473.800781 182.511719 655.300781 367.085938 760.785156 C 371.882812 763.507812 377.210938 764.910156 382.507812 764.910156 C 387.800781 764.910156 393.128906 763.507812 397.957031 760.785156 C 582.53125 655.300781 687.691406 473.800781 702.148438 180.523438 C 702.617188 171.539062 699.574219 162.730469 693.664062 156.117188 Z M 546.890625 271.464844 L 391.136719 501.304688 C 385.550781 509.554688 376.769531 515.027344 368.082031 515.027344 C 359.359375 515.027344 349.675781 510.257812 343.558594 504.144531 L 233.773438 394.328125 C 226.3125 386.835938 226.3125 374.695312 233.773438 367.234375 L 260.898438 340.050781 C 268.390625 332.617188 280.5625 332.617188 287.996094 340.050781 L 359.390625 411.445312 L 483.425781 228.363281 C 489.335938 219.644531 501.304688 217.390625 510.050781 223.300781 L 541.800781 244.835938 C 550.519531 250.777344 552.800781 262.714844 546.890625 271.464844 Z M 546.890625 271.464844 " fill-opacity="1" fill-rule="nonzero"/></g></svg>