<svg xmlns="http://www.w3.org/2000/svg" xmlns:xlink="http://www.w3.org/1999/xlink" width="1024" zoomAndPan="magnify" viewBox="0 0 768 767.999994" height="1024" preserveAspectRatio="xMidYMid meet" version="1.0"><path fill="#ffffff" d="M 397.515625 594.269531 C 238.707031 594.269531 109.476562 465.042969 109.476562 306.234375 C 109.476562 147.457031 238.707031 18.230469 397.515625 18.230469 C 556.320312 18.230469 685.582031 147.457031 685.582031 306.265625 C 685.582031 465.074219 556.320312 594.269531 397.515625 594.269531 Z M 397.515625 50.035156 C 256.230469 50.035156 141.285156 164.984375 141.285156 306.265625 C 141.285156 447.515625 256.230469 562.527344 397.515625 562.527344 C 538.765625 562.527344 653.777344 447.546875 653.777344 306.265625 C 653.777344 165.015625 538.765625 50.035156 397.515625 50.035156 Z M 397.515625 50.035156 " fill-opacity="1" fill-rule="nonzero"/><path fill="#ffffff" d="M 397.515625 424.617188 C 336.128906 424.617188 286.191406 374.679688 286.191406 313.296875 C 286.191406 251.910156 336.128906 201.972656 397.515625 201.972656 C 458.898438 201.972656 508.835938 251.910156 508.835938 313.296875 C 508.835938 374.679688 458.898438 424.617188 397.515625 424.617188 Z M 397.515625 233.78125 C 353.683594 233.78125 318 269.464844 318 313.296875 C 318 357.125 353.683594 392.808594 397.515625 392.808594 C 441.34375 392.808594 477.027344 357.125 477.027344 313.296875 C 477.027344 269.464844 441.34375 233.78125 397.515625 233.78125 Z M 397.515625 233.78125 " fill-opacity="1" fill-rule="nonzero"/><path fill="#ffffff" d="M 461.125 281.488281 C 461.125 299.0625 446.894531 313.296875 429.320312 313.296875 C 411.746094 313.296875 397.515625 299.0625 397.515625 281.488281 C 397.515625 263.914062 411.746094 249.683594 429.320312 249.683594 C 446.894531 249.683594 461.125 263.914062 461.125 281.488281 Z M 461.125 281.488281 " fill-opacity="1" fill-rule="nonzero"/><path fill="#ffffff" d="M 735.453125 765.675781 L 59.574219 765.675781 C 50.796875 765.675781 43.671875 758.550781 43.671875 749.769531 C 43.671875 669.554688 80.980469 588.734375 146.023438 528.242188 C 152.351562 522.324219 162.242188 522.546875 168.285156 528.8125 C 229.226562 591.566406 310.621094 626.109375 397.515625 626.109375 C 484.410156 626.109375 565.832031 591.566406 626.742188 528.8125 C 632.753906 522.578125 642.644531 522.355469 649.003906 528.242188 C 714.046875 588.734375 751.355469 669.492188 751.355469 749.769531 C 751.355469 758.550781 744.199219 765.675781 735.453125 765.675781 Z M 76.015625 733.867188 L 718.980469 733.867188 C 714.75 672.226562 685.933594 611.0625 638.222656 562.179688 C 572.605469 624.042969 487.78125 657.945312 397.515625 657.945312 C 307.246094 657.945312 222.390625 624.074219 156.804688 562.179688 C 109.0625 611.0625 80.28125 672.257812 76.015625 733.867188 Z M 76.015625 733.867188 " fill-opacity="1" fill-rule="nonzero"/></svg>